{
DisplayStrings = (
2,
3,
5,
6,
7,
8,
9,
"\U00BD",
w,
f,
1
);
copyright = "Copyright (c) 2014 by Steven Ng with Reserved Font Name \"Aitu\". Licensed under the SIL Open Font License, Version 1.1. ";
customParameters = (
{
name = vendorID;
value = tyPL;
}
);
date = "2014-08-18 18:15:56 +0000";
designer = "Steven Ng";
designerURL = "http://www.assignittous.com";
familyName = "Aitu";
featurePrefixes = (
{
automatic = 1;
code = "languagesystem DFLT dflt;\012languagesystem latn dflt;\012languagesystem math dflt;\012";
name = Languagesystems;
}
);
features = (
{
automatic = 1;
code = "feature frac;\012";
name = aalt;
},
{
automatic = 1;
code = "sub one slash four by onequarter;\012sub one slash two by onehalf;\012sub three slash four by threequarters;\012";
name = frac;
},
{
automatic = 1;
code = "sub f f i by f_f_i;\012sub f f l by f_f_l;\012sub f i by fi;\012sub f l by fl;\012";
name = liga;
}
);
fontMaster = (
{
alignmentZones = (
"{1431, 21}",
"{1012, 16}",
"{0, -17}",
"{-343, -6}"
);
ascender = 1610;
capHeight = 1433;
customParameters = (
{
name = typoAscender;
value = 1610;
},
{
name = typoDescender;
value = "-390";
},
{
name = typoLineGap;
value = 400;
},
{
name = underlinePosition;
value = "-6";
}
);
descender = "-390";
id = "28213FCA-CDAC-4A0A-BF59-EE4F382E99BB";
italicAngle = 7;
weightValue = 400;
widthValue = 5;
xHeight = 1013;
}
);
glyphs = (
{
glyphname = A;
layers = (
{
layerId = "28213FCA-CDAC-4A0A-BF59-EE4F382E99BB";
name = "Regular Italic";
paths = (
{
closed = 1;
nodes = (
"1178 0 LINE",
"827 1433 LINE",
"637 1433 LINE",
"-65 0 LINE",
"81 0 LINE SMOOTH",
"96.3333 0 OFFCURVE",
"110.167 4.5 OFFCURVE",
"122.5 13.5 CURVE SMOOTH",
"134.833 22.5 OFFCURVE",
"144 33 OFFCURVE",
"150 45 CURVE SMOOTH",
"314 395 LINE",
"897 395 LINE",
"975 45 LINE",
"979 31.6667 OFFCURVE",
"985.667 20.8333 OFFCURVE",
"995 12.5 CURVE SMOOTH",
"1004.33 4.16667 OFFCURVE",
"1017.33 0 OFFCURVE",
"1034 0 CURVE SMOOTH"
);
},
{
closed = 1;
nodes = (
"377 531 LINE",
"655 1123 LINE",
"662.333 1141 OFFCURVE",
"671 1161.83 OFFCURVE",
"681 1185.5 CURVE SMOOTH",
"691 1209.17 OFFCURVE",
"701 1234.67 OFFCURVE",
"711 1262 CURVE",
"715 1234.67 OFFCURVE",
"719.333 1209.33 OFFCURVE",
"724 1186 CURVE SMOOTH",
"728.667 1162.67 OFFCURVE",
"732.667 1142 OFFCURVE",
"736 1124 CURVE SMOOTH",
"867 531 LINE"
);
}
);
width = 1262;
}
);
leftKerningGroup = A;
rightKerningGroup = A;
unicode = 0041;
},
{
glyphname = Aacute;
layers = (
{
layerId = "28213FCA-CDAC-4A0A-BF59-EE4F382E99BB";
name = "Regular Italic";
paths = (
{
closed = 1;
nodes = (
"0 0 LINE"
);
},
{
closed = 1;
nodes = (
"1178 0 LINE",
"827 1433 LINE",
"637 1433 LINE",
"-65 0 LINE",
"81 0 LINE SMOOTH",
"96.3333 0 OFFCURVE",
"110.167 4.5 OFFCURVE",
"122.5 13.5 CURVE SMOOTH",
"134.833 22.5 OFFCURVE",
"144 33 OFFCURVE",
"150 45 CURVE SMOOTH",
"314 395 LINE",
"897 395 LINE",
"975 45 LINE",
"979 31.6667 OFFCURVE",
"985.667 20.8333 OFFCURVE",
"995 12.5 CURVE SMOOTH",
"1004.33 4.16667 OFFCURVE",
"1017.33 0 OFFCURVE",
"1034 0 CURVE SMOOTH"
);
},
{
closed = 1;
nodes = (
"377 531 LINE",
"655 1123 LINE",
"662.333 1141 OFFCURVE",
"671 1161.83 OFFCURVE",
"681 1185.5 CURVE SMOOTH",
"691 1209.17 OFFCURVE",
"701 1234.67 OFFCURVE",
"711 1262 CURVE",
"715 1234.67 OFFCURVE",
"719.333 1209.33 OFFCURVE",
"724 1186 CURVE SMOOTH",
"728.667 1162.67 OFFCURVE",
"732.667 1142 OFFCURVE",
"736 1124 CURVE SMOOTH",
"867 531 LINE"
);
},
{
closed = 1;
nodes = (
"1130 1852 LINE",
"945 1852 LINE SMOOTH",
"925 1852 OFFCURVE",
"909.667 1850.33 OFFCURVE",
"899 1847 CURVE SMOOTH",
"888.333 1843.67 OFFCURVE",
"877 1834.67 OFFCURVE",
"865 1820 CURVE",
"621 1546 LINE",
"737 1546 LINE SMOOTH",
"750.333 1546 OFFCURVE",
"761.167 1547 OFFCURVE",
"769.5 1549 CURVE SMOOTH",
"777.833 1551 OFFCURVE",
"787.667 1556.67 OFFCURVE",
"799 1566 CURVE SMOOTH"
);
}
);
width = 1262;
}
);
leftKerningGroup = A;
rightKerningGroup = A;
unicode = 00C1;
},
{
glyphname = Acircumflex;
layers = (
{
layerId = "28213FCA-CDAC-4A0A-BF59-EE4F382E99BB";
name = "Regular Italic";
paths = (
{
closed = 1;
nodes = (
"0 0 LINE"
);
},
{
closed = 1;
nodes = (
"1178 0 LINE",
"827 1433 LINE",
"637 1433 LINE",
"-65 0 LINE",
"81 0 LINE SMOOTH",
"96.3333 0 OFFCURVE",
"110.167 4.5 OFFCURVE",
"122.5 13.5 CURVE SMOOTH",
"134.833 22.5 OFFCURVE",
"144 33 OFFCURVE",
"150 45 CURVE SMOOTH",
"314 395 LINE",
"897 395 LINE",
"975 45 LINE",
"979 31.6667 OFFCURVE",
"985.667 20.8333 OFFCURVE",
"995 12.5 CURVE SMOOTH",
"1004.33 4.16667 OFFCURVE",
"1017.33 0 OFFCURVE",
"1034 0 CURVE SMOOTH"
);
},
{
closed = 1;
nodes = (
"377 531 LINE",
"655 1123 LINE",
"662.333 1141 OFFCURVE",
"671 1161.83 OFFCURVE",
"681 1185.5 CURVE SMOOTH",
"691 1209.17 OFFCURVE",
"701 1234.67 OFFCURVE",
"711 1262 CURVE",
"715 1234.67 OFFCURVE",
"719.333 1209.33 OFFCURVE",
"724 1186 CURVE SMOOTH",
"728.667 1162.67 OFFCURVE",
"732.667 1142 OFFCURVE",
"736 1124 CURVE SMOOTH",
"867 531 LINE"
);
},
{
closed = 1;
nodes = (
"1051 1546 LINE",
"862 1817 LINE",
"715 1817 LINE",
"464 1546 LINE",
"580 1546 LINE SMOOTH",
"587.333 1546 OFFCURVE",
"596.167 1547.5 OFFCURVE",
"606.5 1550.5 CURVE SMOOTH",
"616.833 1553.5 OFFCURVE",
"628 1561.67 OFFCURVE",
"640 1575 CURVE SMOOTH",
"764 1716 LINE",
"766 1718.67 OFFCURVE",
"768.167 1721.33 OFFCURVE",
"770.5 1724 CURVE SMOOTH",
"772.833 1726.67 OFFCURVE",
"774.667 1729.33 OFFCURVE",
"776 1732 CURVE",
"785 1716 LINE",
"877 1575 LINE SMOOTH",
"885.667 1561.67 OFFCURVE",
"895 1553.5 OFFCURVE",
"905 1550.5 CURVE SMOOTH",
"915 1547.5 OFFCURVE",
"923.667 1546 OFFCURVE",
"931 1546 CURVE SMOOTH"
);
}
);
width = 1262;
}
);
leftKerningGroup = A;
rightKerningGroup = A;
unicode = 00C2;
},
{
glyphname = Adieresis;
layers = (
{
layerId = "28213FCA-CDAC-4A0A-BF59-EE4F382E99BB";
name = "Regular Italic";
paths = (
{
closed = 1;
nodes = (
"0 0 LINE"
);
},
{
closed = 1;
nodes = (
"1178 0 LINE",
"827 1433 LINE",
"637 1433 LINE",
"-65 0 LINE",
"81 0 LINE SMOOTH",
"96.3333 0 OFFCURVE",
"110.167 4.5 OFFCURVE",
"122.5 13.5 CURVE SMOOTH",
"134.833 22.5 OFFCURVE",
"144 33 OFFCURVE",
"150 45 CURVE SMOOTH",
"314 395 LINE",
"897 395 LINE",
"975 45 LINE",
"979 31.6667 OFFCURVE",
"985.667 20.8333 OFFCURVE",
"995 12.5 CURVE SMOOTH",
"1004.33 4.16667 OFFCURVE",
"1017.33 0 OFFCURVE",
"1034 0 CURVE SMOOTH"
);
},
{
closed = 1;
nodes = (
"377 531 LINE",
"655 1123 LINE",
"662.333 1141 OFFCURVE",
"671 1161.83 OFFCURVE",
"681 1185.5 CURVE SMOOTH",
"691 1209.17 OFFCURVE",
"701 1234.67 OFFCURVE",
"711 1262 CURVE",
"715 1234.67 OFFCURVE",
"719.333 1209.33 OFFCURVE",
"724 1186 CURVE SMOOTH",
"728.667 1162.67 OFFCURVE",
"732.667 1142 OFFCURVE",
"736 1124 CURVE SMOOTH",
"867 531 LINE"
);
},
{
closed = 1;
nodes = (
"677 1679 OFFCURVE",
"674 1693.83 OFFCURVE",
"668 1707.5 CURVE SMOOTH",
"662 1721.17 OFFCURVE",
"653.667 1733.33 OFFCURVE",
"643 1744 CURVE SMOOTH",
"632.333 1754.67 OFFCURVE",
"620.167 1763 OFFCURVE",
"606.5 1769 CURVE SMOOTH",
"592.833 1775 OFFCURVE",
"578.333 1778 OFFCURVE",
"563 1778 CURVE SMOOTH",
"548.333 1778 OFFCURVE",
"534.333 1775 OFFCURVE",
"521 1769 CURVE SMOOTH",
"507.667 1763 OFFCURVE",
"495.833 1754.67 OFFCURVE",
"485.5 1744 CURVE SMOOTH",
"475.167 1733.33 OFFCURVE",
"467 1721.17 OFFCURVE",
"461 1707.5 CURVE SMOOTH",
"455 1693.83 OFFCURVE",
"452 1679 OFFCURVE",
"452 1663 CURVE SMOOTH",
"452 1647.67 OFFCURVE",
"455 1633.33 OFFCURVE",
"461 1620 CURVE SMOOTH",
"467 1606.67 OFFCURVE",
"475.167 1595 OFFCURVE",
"485.5 1585 CURVE SMOOTH",
"495.833 1575 OFFCURVE",
"507.667 1567.17 OFFCURVE",
"521 1561.5 CURVE SMOOTH",
"534.333 1555.83 OFFCURVE",
"548.333 1553 OFFCURVE",
"563 1553 CURVE SMOOTH",
"578.333 1553 OFFCURVE",
"592.833 1555.83 OFFCURVE",
"606.5 1561.5 CURVE SMOOTH",
"620.167 1567.17 OFFCURVE",
"632.333 1575 OFFCURVE",
"643 1585 CURVE SMOOTH",
"653.667 1595 OFFCURVE",
"662 1606.67 OFFCURVE",
"668 1620 CURVE SMOOTH",
"674 1633.33 OFFCURVE",
"677 1647.67 OFFCURVE",
"677 1663 CURVE SMOOTH"
);
},
{
closed = 1;
nodes = (
"1057 1679 OFFCURVE",
"1054 1693.83 OFFCURVE",
"1048 1707.5 CURVE SMOOTH",
"1042 1721.17 OFFCURVE",
"1033.83 1733.33 OFFCURVE",
"1023.5 1744 CURVE SMOOTH",
"1013.17 1754.67 OFFCURVE",
"1001.17 1763 OFFCURVE",
"987.5 1769 CURVE SMOOTH",
"973.833 1775 OFFCURVE",
"959.333 1778 OFFCURVE",
"944 1778 CURVE SMOOTH",
"928.667 1778 OFFCURVE",
"914.167 1775 OFFCURVE",
"900.5 1769 CURVE SMOOTH",
"886.833 1763 OFFCURVE",
"875 1754.67 OFFCURVE",
"865 1744 CURVE SMOOTH",
"855 1733.33 OFFCURVE",
"847 1721.17 OFFCURVE",
"841 1707.5 CURVE SMOOTH",
"835 1693.83 OFFCURVE",
"832 1679 OFFCURVE",
"832 1663 CURVE SMOOTH",
"832 1647.67 OFFCURVE",
"835 1633.33 OFFCURVE",
"841 1620 CURVE SMOOTH",
"847 1606.67 OFFCURVE",
"855 1595 OFFCURVE",
"865 1585 CURVE SMOOTH",
"875 1575 OFFCURVE",
"886.833 1567.17 OFFCURVE",
"900.5 1561.5 CURVE SMOOTH",
"914.167 1555.83 OFFCURVE",
"928.667 1553 OFFCURVE",
"944 1553 CURVE SMOOTH",
"959.333 1553 OFFCURVE",
"973.833 1555.83 OFFCURVE",
"987.5 1561.5 CURVE SMOOTH",
"1001.17 1567.17 OFFCURVE",
"1013.17 1575 OFFCURVE",
"1023.5 1585 CURVE SMOOTH",
"1033.83 1595 OFFCURVE",
"1042 1606.67 OFFCURVE",
"1048 1620 CURVE SMOOTH",
"1054 1633.33 OFFCURVE",
"1057 1647.67 OFFCURVE",
"1057 1663 CURVE SMOOTH"
);
}
);
width = 1262;
}
);
leftKerningGroup = A;
rightKerningGroup = A;
unicode = 00C4;
},
{
glyphname = Agrave;
layers = (
{
layerId = "28213FCA-CDAC-4A0A-BF59-EE4F382E99BB";
name = "Regular Italic";
paths = (
{
closed = 1;
nodes = (
"0 0 LINE"
);
},
{
closed = 1;
nodes = (
"1178 0 LINE",
"827 1433 LINE",
"637 1433 LINE",
"-65 0 LINE",
"81 0 LINE SMOOTH",
"96.3333 0 OFFCURVE",
"110.167 4.5 OFFCURVE",
"122.5 13.5 CURVE SMOOTH",
"134.833 22.5 OFFCURVE",
"144 33 OFFCURVE",
"150 45 CURVE SMOOTH",
"314 395 LINE",
"897 395 LINE",
"975 45 LINE",
"979 31.6667 OFFCURVE",
"985.667 20.8333 OFFCURVE",
"995 12.5 CURVE SMOOTH",
"1004.33 4.16667 OFFCURVE",
"1017.33 0 OFFCURVE",
"1034 0 CURVE SMOOTH"
);
},
{
closed = 1;
nodes = (
"377 531 LINE",
"655 1123 LINE",
"662.333 1141 OFFCURVE",
"671 1161.83 OFFCURVE",
"681 1185.5 CURVE SMOOTH",
"691 1209.17 OFFCURVE",
"701 1234.67 OFFCURVE",
"711 1262 CURVE",
"715 1234.67 OFFCURVE",
"719.333 1209.33 OFFCURVE",
"724 1186 CURVE SMOOTH",
"728.667 1162.67 OFFCURVE",
"732.667 1142 OFFCURVE",
"736 1124 CURVE SMOOTH",
"867 531 LINE"
);
},
{
closed = 1;
nodes = (
"412 1852 LINE",
"667 1565 LINE",
"674.333 1555.67 OFFCURVE",
"681.833 1550.17 OFFCURVE",
"689.5 1548.5 CURVE SMOOTH",
"697.167 1546.83 OFFCURVE",
"707.667 1546 OFFCURVE",
"721 1546 CURVE SMOOTH",
"839 1546 LINE",
"661 1820 LINE SMOOTH",
"651.667 1834.67 OFFCURVE",
"642 1843.67 OFFCURVE",
"632 1847 CURVE SMOOTH",
"622 1850.33 OFFCURVE",
"607 1852 OFFCURVE",
"587 1852 CURVE SMOOTH"
);
}
);
width = 1262;
}
);
leftKerningGroup = A;
rightKerningGroup = A;
unicode = 00C0;
},
{
glyphname = Aring;
layers = (
{
layerId = "28213FCA-CDAC-4A0A-BF59-EE4F382E99BB";
name = "Regular Italic";
paths = (
{
closed = 1;
nodes = (
"0 0 LINE"
);
},
{
closed = 1;
nodes = (
"1178 0 LINE",
"827 1433 LINE",
"637 1433 LINE",
"-65 0 LINE",
"81 0 LINE SMOOTH",
"96.3333 0 OFFCURVE",
"110.167 4.5 OFFCURVE",
"122.5 13.5 CURVE SMOOTH",
"134.833 22.5 OFFCURVE",
"144 33 OFFCURVE",
"150 45 CURVE SMOOTH",
"314 395 LINE",
"897 395 LINE",
"975 45 LINE",
"979 31.6667 OFFCURVE",
"985.667 20.8333 OFFCURVE",
"995 12.5 CURVE SMOOTH",
"1004.33 4.16667 OFFCURVE",
"1017.33 0 OFFCURVE",
"1034 0 CURVE SMOOTH"
);
},
{
closed = 1;
nodes = (
"377 531 LINE",
"655 1123 LINE",
"662.333 1141 OFFCURVE",
"671 1161.83 OFFCURVE",
"681 1185.5 CURVE SMOOTH",
"691 1209.17 OFFCURVE",
"701 1234.67 OFFCURVE",
"711 1262 CURVE",
"715 1234.67 OFFCURVE",
"719.333 1209.33 OFFCURVE",
"724 1186 CURVE SMOOTH",
"728.667 1162.67 OFFCURVE",
"732.667 1142 OFFCURVE",
"736 1124 CURVE SMOOTH",
"867 531 LINE"
);
},
{
closed = 1;
nodes = (
"588.333 1671 OFFCURVE",
"590.5 1647.33 OFFCURVE",
"597.5 1626 CURVE SMOOTH",
"604.5 1604.67 OFFCURVE",
"615.167 1586.33 OFFCURVE",
"629.5 1571 CURVE SMOOTH",
"643.833 1555.67 OFFCURVE",
"660.833 1543.67 OFFCURVE",
"680.5 1535 CURVE SMOOTH",
"700.167 1526.33 OFFCURVE",
"721.667 1522 OFFCURVE",
"745 1522 CURVE SMOOTH",
"769 1522 OFFCURVE",
"792 1526.33 OFFCURVE",
"814 1535 CURVE SMOOTH",
"836 1543.67 OFFCURVE",
"856 1555.67 OFFCURVE",
"874 1571 CURVE SMOOTH",
"892 1586.33 OFFCURVE",
"906.833 1604.67 OFFCURVE",
"918.5 1626 CURVE SMOOTH",
"930.167 1647.33 OFFCURVE",
"937.333 1671 OFFCURVE",
"940 1697 CURVE SMOOTH",
"942.667 1723 OFFCURVE",
"940.667 1747 OFFCURVE",
"934 1769 CURVE SMOOTH",
"927.333 1791 OFFCURVE",
"916.833 1809.67 OFFCURVE",
"902.5 1825 CURVE SMOOTH",
"888.167 1840.33 OFFCURVE",
"870.833 1852.33 OFFCURVE",
"850.5 1861 CURVE SMOOTH",
"830.167 1869.67 OFFCURVE",
"808 1874 OFFCURVE",
"784 1874 CURVE SMOOTH",
"761.333 1874 OFFCURVE",
"739.167 1869.67 OFFCURVE",
"717.5 1861 CURVE SMOOTH",
"695.833 1852.33 OFFCURVE",
"676.167 1840.33 OFFCURVE",
"658.5 1825 CURVE SMOOTH",
"640.833 1809.67 OFFCURVE",
"626 1791 OFFCURVE",
"614 1769 CURVE SMOOTH",
"602 1747 OFFCURVE",
"594.333 1723 OFFCURVE",
"591 1697 CURVE SMOOTH"
);
},
{
closed = 1;
nodes = (
"677.333 1727 OFFCURVE",
"688.333 1751.33 OFFCURVE",
"707 1770 CURVE SMOOTH",
"725.667 1788.67 OFFCURVE",
"749.333 1798 OFFCURVE",
"778 1798 CURVE SMOOTH",
"806 1798 OFFCURVE",
"827.333 1788.67 OFFCURVE",
"842 1770 CURVE SMOOTH",
"856.667 1751.33 OFFCURVE",
"862.333 1727 OFFCURVE",
"859 1697 CURVE SMOOTH",
"855.667 1667.67 OFFCURVE",
"844.5 1643.67 OFFCURVE",
"825.5 1625 CURVE SMOOTH",
"806.5 1606.33 OFFCURVE",
"783.333 1597 OFFCURVE",
"756 1597 CURVE SMOOTH",
"727.333 1597 OFFCURVE",
"705.667 1606.33 OFFCURVE",
"691 1625 CURVE SMOOTH",
"676.333 1643.67 OFFCURVE",
"670.667 1667.67 OFFCURVE",
"674 1697 CURVE SMOOTH"
);
}
);
width = 1262;
}
);
leftKerningGroup = A;
rightKerningGroup = A;
unicode = 00C5;
},
{
glyphname = Atilde;
layers = (
{
layerId = "28213FCA-CDAC-4A0A-BF59-EE4F382E99BB";
name = "Regular Italic";
paths = (
{
closed = 1;
nodes = (
"0 0 LINE"
);
},
{
closed = 1;
nodes = (
"1178 0 LINE",
"827 1433 LINE",
"637 1433 LINE",
"-65 0 LINE",
"81 0 LINE SMOOTH",
"96.3333 0 OFFCURVE",
"110.167 4.5 OFFCURVE",
"122.5 13.5 CURVE SMOOTH",
"134.833 22.5 OFFCURVE",
"144 33 OFFCURVE",
"150 45 CURVE SMOOTH",
"314 395 LINE",
"897 395 LINE",
"975 45 LINE",
"979 31.6667 OFFCURVE",
"985.667 20.8333 OFFCURVE",
"995 12.5 CURVE SMOOTH",
"1004.33 4.16667 OFFCURVE",
"1017.33 0 OFFCURVE",
"1034 0 CURVE SMOOTH"
);
},
{
closed = 1;
nodes = (
"377 531 LINE",
"655 1123 LINE",
"662.333 1141 OFFCURVE",
"671 1161.83 OFFCURVE",
"681 1185.5 CURVE SMOOTH",
"691 1209.17 OFFCURVE",
"701 1234.67 OFFCURVE",
"711 1262 CURVE",
"715 1234.67 OFFCURVE",
"719.333 1209.33 OFFCURVE",
"724 1186 CURVE SMOOTH",
"728.667 1162.67 OFFCURVE",
"732.667 1142 OFFCURVE",
"736 1124 CURVE SMOOTH",
"867 531 LINE"
);
},
{
closed = 1;
nodes = (
"867.333 1663 OFFCURVE",
"851.333 1668.5 OFFCURVE",
"836 1679.5 CURVE SMOOTH",
"820.667 1690.5 OFFCURVE",
"804.5 1702.5 OFFCURVE",
"787.5 1715.5 CURVE SMOOTH",
"770.5 1728.5 OFFCURVE",
"751.5 1740.5 OFFCURVE",
"730.5 1751.5 CURVE SMOOTH",
"709.5 1762.5 OFFCURVE",
"685 1768 OFFCURVE",
"657 1768 CURVE SMOOTH",
"630.333 1768 OFFCURVE",
"606 1762 OFFCURVE",
"584 1750 CURVE SMOOTH",
"562 1738 OFFCURVE",
"542.667 1721.83 OFFCURVE",
"526 1701.5 CURVE SMOOTH",
"509.333 1681.17 OFFCURVE",
"495.667 1657.67 OFFCURVE",
"485 1631 CURVE SMOOTH",
"474.333 1604.33 OFFCURVE",
"467.333 1576.67 OFFCURVE",
"464 1548 CURVE",
"567 1548 LINE",
"568.333 1560 OFFCURVE",
"571.5 1572 OFFCURVE",
"576.5 1584 CURVE SMOOTH",
"581.5 1596 OFFCURVE",
"588.167 1606.83 OFFCURVE",
"596.5 1616.5 CURVE SMOOTH",
"604.833 1626.17 OFFCURVE",
"614.667 1634 OFFCURVE",
"626 1640 CURVE SMOOTH",
"637.333 1646 OFFCURVE",
"650 1649 OFFCURVE",
"664 1649 CURVE SMOOTH",
"680.667 1649 OFFCURVE",
"696.667 1643.5 OFFCURVE",
"712 1632.5 CURVE SMOOTH",
"727.333 1621.5 OFFCURVE",
"743.667 1609.5 OFFCURVE",
"761 1596.5 CURVE SMOOTH",
"778.333 1583.5 OFFCURVE",
"797.333 1571.5 OFFCURVE",
"818 1560.5 CURVE SMOOTH",
"838.667 1549.5 OFFCURVE",
"862.667 1544 OFFCURVE",
"890 1544 CURVE SMOOTH",
"916.667 1544 OFFCURVE",
"941.167 1550 OFFCURVE",
"963.5 1562 CURVE SMOOTH",
"985.833 1574 OFFCURVE",
"1005.17 1590.17 OFFCURVE",
"1021.5 1610.5 CURVE SMOOTH",
"1037.83 1630.83 OFFCURVE",
"1051.17 1654.17 OFFCURVE",
"1061.5 1680.5 CURVE SMOOTH",
"1071.83 1706.83 OFFCURVE",
"1078.67 1734.33 OFFCURVE",
"1082 1763 CURVE",
"981 1763 LINE",
"979.667 1751 OFFCURVE",
"976.5 1739 OFFCURVE",
"971.5 1727 CURVE SMOOTH",
"966.5 1715 OFFCURVE",
"959.833 1704.17 OFFCURVE",
"951.5 1694.5 CURVE SMOOTH",
"943.167 1684.83 OFFCURVE",
"933.333 1677.17 OFFCURVE",
"922 1671.5 CURVE SMOOTH",
"910.667 1665.83 OFFCURVE",
"898 1663 OFFCURVE",
"884 1663 CURVE SMOOTH"
);
}
);
width = 1262;
}
);
leftKerningGroup = A;
rightKerningGroup = A;
unicode = 00C3;
},
{
glyphname = AE;
layers = (
{
layerId = "28213FCA-CDAC-4A0A-BF59-EE4F382E99BB";
name = "Regular Italic";
paths = (
{
closed = 1;
nodes = (
"794 1433 LINE",
"-66 0 LINE",
"79 0 LINE SMOOTH",
"95 0 OFFCURVE",
"109.5 4.5 OFFCURVE",
"122.5 13.5 CURVE SMOOTH",
"135.5 22.5 OFFCURVE",
"145.667 33 OFFCURVE",
"153 45 CURVE SMOOTH",
"358 395 LINE",
"862 395 LINE",
"862 0 LINE",
"1572 0 LINE",
"1592 152 LINE",
"1038 152 LINE",
"1038 649 LINE",
"1532 649 LINE",
"1550 796 LINE",
"1038 796 LINE",
"1038 1280 LINE",
"1730 1280 LINE",
"1748 1433 LINE"
);
},
{
closed = 1;
nodes = (
"437 531 LINE",
"801 1151 LINE SMOOTH",
"812.333 1170.33 OFFCURVE",
"823 1190.67 OFFCURVE",
"833 1212 CURVE SMOOTH",
"843 1233.33 OFFCURVE",
"852.667 1256 OFFCURVE",
"862 1280 CURVE",
"862 531 LINE"
);
}
);
width = 1735;
}
);
leftKerningGroup = AE;
rightKerningGroup = E;
unicode = 00C6;
},
{
glyphname = B;
layers = (
{
layerId = "28213FCA-CDAC-4A0A-BF59-EE4F382E99BB";
name = "Regular Italic";
paths = (
{
closed = 1;
nodes = (
"98 0 LINE",
"569 0 LINE SMOOTH",
"649.667 0 OFFCURVE",
"722.167 11 OFFCURVE",
"786.5 33 CURVE SMOOTH",
"850.833 55 OFFCURVE",
"905.333 86 OFFCURVE",
"950 126 CURVE SMOOTH",
"994.667 166 OFFCURVE",
"1028.83 213.5 OFFCURVE",
"1052.5 268.5 CURVE SMOOTH",
"1076.17 323.5 OFFCURVE",
"1088 384 OFFCURVE",
"1088 450 CURVE SMOOTH",
"1088 524.667 OFFCURVE",
"1066.33 586.167 OFFCURVE",
"1023 634.5 CURVE SMOOTH",
"979.667 682.833 OFFCURVE",
"915 716.667 OFFCURVE",
"829 736 CURVE",
"878.333 751.333 OFFCURVE",
"921.5 771.667 OFFCURVE",
"958.5 797 CURVE SMOOTH",
"995.5 822.333 OFFCURVE",
"1026.33 851.333 OFFCURVE",
"1051 884 CURVE SMOOTH",
"1075.67 916.667 OFFCURVE",
"1094.17 952.333 OFFCURVE",
"1106.5 991 CURVE SMOOTH",
"1118.83 1029.67 OFFCURVE",
"1125 1070.33 OFFCURVE",
"1125 1113 CURVE SMOOTH",
"1125 1161.67 OFFCURVE",
"1116.67 1205.83 OFFCURVE",
"1100 1245.5 CURVE SMOOTH",
"1083.33 1285.17 OFFCURVE",
"1057.67 1318.83 OFFCURVE",
"1023 1346.5 CURVE SMOOTH",
"988.333 1374.17 OFFCURVE",
"944.167 1395.5 OFFCURVE",
"890.5 1410.5 CURVE SMOOTH",
"836.833 1425.5 OFFCURVE",
"773 1433 OFFCURVE",
"699 1433 CURVE SMOOTH",
"274 1433 LINE"
);
},
{
closed = 1;
nodes = (
"365 655 LINE",
"646 655 LINE SMOOTH",
"732.667 655 OFFCURVE",
"797.167 636.166 OFFCURVE",
"839.5 598.5 CURVE SMOOTH",
"881.833 560.833 OFFCURVE",
"903 510.333 OFFCURVE",
"903 447 CURVE SMOOTH",
"903 401 OFFCURVE",
"896.333 359.666 OFFCURVE",
"883 323 CURVE SMOOTH",
"869.667 286.333 OFFCURVE",
"849.833 255 OFFCURVE",
"823.5 229 CURVE SMOOTH",
"797.167 203 OFFCURVE",
"764 183 OFFCURVE",
"724 169 CURVE SMOOTH",
"684 155 OFFCURVE",
"637.333 148 OFFCURVE",
"584 148 CURVE SMOOTH",
"303 148 LINE"
);
},
{
closed = 1;
nodes = (
"381 787 LINE",
"443 1286 LINE",
"682 1286 LINE SMOOTH",
"768.667 1286 OFFCURVE",
"832.667 1268.83 OFFCURVE",
"874 1234.5 CURVE SMOOTH",
"915.333 1200.17 OFFCURVE",
"936 1148.67 OFFCURVE",
"936 1080 CURVE SMOOTH",
"936 1036.67 OFFCURVE",
"929.333 997 OFFCURVE",
"916 961 CURVE SMOOTH",
"902.667 925 OFFCURVE",
"882.5 894.166 OFFCURVE",
"855.5 868.5 CURVE SMOOTH",
"828.5 842.833 OFFCURVE",
"794.833 822.833 OFFCURVE",
"754.5 808.5 CURVE SMOOTH",
"714.167 794.166 OFFCURVE",
"667 787 OFFCURVE",
"613 787 CURVE SMOOTH"
);
}
);
width = 1204;
}
);
leftKerningGroup = B;
rightKerningGroup = B;
unicode = 0042;
},
{
glyphname = C;
layers = (
{
layerId = "28213FCA-CDAC-4A0A-BF59-EE4F382E99BB";
name = "Regular Italic";
paths = (
{
closed = 1;
nodes = (
"620.333 145 OFFCURVE",
"568.333 156 OFFCURVE",
"521 178 CURVE SMOOTH",
"473.667 200 OFFCURVE",
"432.833 231.5 OFFCURVE",
"398.5 272.5 CURVE SMOOTH",
"364.167 313.5 OFFCURVE",
"337.333 363.333 OFFCURVE",
"318 422 CURVE SMOOTH",
"298.667 480.667 OFFCURVE",
"289 547 OFFCURVE",
"289 621 CURVE SMOOTH",
"289 723 OFFCURVE",
"303.167 815 OFFCURVE",
"331.5 897 CURVE SMOOTH",
"359.833 979 OFFCURVE",
"398.667 1048.83 OFFCURVE",
"448 1106.5 CURVE SMOOTH",
"497.333 1164.17 OFFCURVE",
"555.5 1208.5 OFFCURVE",
"622.5 1239.5 CURVE SMOOTH",
"689.5 1270.5 OFFCURVE",
"762 1286 OFFCURVE",
"840 1286 CURVE SMOOTH",
"898 1286 OFFCURVE",
"945.167 1279.33 OFFCURVE",
"981.5 1266 CURVE SMOOTH",
"1017.83 1252.67 OFFCURVE",
"1047.5 1238.17 OFFCURVE",
"1070.5 1222.5 CURVE SMOOTH",
"1093.5 1206.83 OFFCURVE",
"1111.67 1192.33 OFFCURVE",
"1125 1179 CURVE SMOOTH",
"1138.33 1165.67 OFFCURVE",
"1151 1159 OFFCURVE",
"1163 1159 CURVE SMOOTH",
"1173 1159 OFFCURVE",
"1181.33 1161.17 OFFCURVE",
"1188 1165.5 CURVE SMOOTH",
"1194.67 1169.83 OFFCURVE",
"1200.67 1175.33 OFFCURVE",
"1206 1182 CURVE SMOOTH",
"1270 1260 LINE",
"1246 1288.67 OFFCURVE",
"1220.17 1314.67 OFFCURVE",
"1192.5 1338 CURVE SMOOTH",
"1164.83 1361.33 OFFCURVE",
"1134 1381.33 OFFCURVE",
"1100 1398 CURVE SMOOTH",
"1066 1414.67 OFFCURVE",
"1028.33 1427.33 OFFCURVE",
"987 1436 CURVE SMOOTH",
"945.667 1444.67 OFFCURVE",
"899.667 1449 OFFCURVE",
"849 1449 CURVE SMOOTH",
"743.667 1449 OFFCURVE",
"645.333 1428.5 OFFCURVE",
"554 1387.5 CURVE SMOOTH",
"462.667 1346.5 OFFCURVE",
"383.167 1288.83 OFFCURVE",
"315.5 1214.5 CURVE SMOOTH",
"247.833 1140.17 OFFCURVE",
"194.667 1051.33 OFFCURVE",
"156 948 CURVE SMOOTH",
"117.333 844.667 OFFCURVE",
"98 730.667 OFFCURVE",
"98 606 CURVE SMOOTH",
"98 514.667 OFFCURVE",
"110.5 431 OFFCURVE",
"135.5 355 CURVE SMOOTH",
"160.5 279 OFFCURVE",
"196.5 213.5 OFFCURVE",
"243.5 158.5 CURVE SMOOTH",
"290.5 103.5 OFFCURVE",
"347.833 60.6665 OFFCURVE",
"415.5 29.9998 CURVE SMOOTH",
"483.167 -1 OFFCURVE",
"560 -16 OFFCURVE",
"646 -16 CURVE SMOOTH",
"754.667 -16 OFFCURVE",
"849.833 2.83315 OFFCURVE",
"931.5 40.4998 CURVE SMOOTH",
"1013.17 78.1665 OFFCURVE",
"1085.33 131 OFFCURVE",
"1148 199 CURVE",
"1083 280 LINE SMOOTH",
"1080.33 283.333 OFFCURVE",
"1077 286.166 OFFCURVE",
"1073 288.5 CURVE SMOOTH",
"1069 290.833 OFFCURVE",
"1064 292 OFFCURVE",
"1058 292 CURVE SMOOTH",
"1050.67 292 OFFCURVE",
"1042.33 288.333 OFFCURVE",
"1033 281 CURVE SMOOTH",
"1023.67 273.667 OFFCURVE",
"1012.17 264.667 OFFCURVE",
"998.5 254 CURVE SMOOTH",
"984.833 243.333 OFFCURVE",
"968.833 231.5 OFFCURVE",
"950.5 218.5 CURVE SMOOTH",
"932.167 205.5 OFFCURVE",
"910 193.667 OFFCURVE",
"884 183 CURVE SMOOTH",
"858 172.333 OFFCURVE",
"828 163.333 OFFCURVE",
"794 156 CURVE SMOOTH",
"760 148.667 OFFCURVE",
"721 145 OFFCURVE",
"677 145 CURVE SMOOTH"
);
}
);
width = 1249;
}
);
leftKerningGroup = C;
rightKerningGroup = C;
unicode = 0043;
},
{
glyphname = Ccedilla;
layers = (
{
layerId = "28213FCA-CDAC-4A0A-BF59-EE4F382E99BB";
name = "Regular Italic";
paths = (
{
closed = 1;
nodes = (
"501 -253 OFFCURVE",
"492.667 -259 OFFCURVE",
"488 -271 CURVE",
"464 -326 LINE",
"482 -335 OFFCURVE",
"502 -343 OFFCURVE",
"524 -349 CURVE SMOOTH",
"546 -354 OFFCURVE",
"569.667 -357 OFFCURVE",
"595 -357 CURVE SMOOTH",
"627 -357 OFFCURVE",
"656.667 -354 OFFCURVE",
"684 -347 CURVE SMOOTH",
"711.333 -340 OFFCURVE",
"735 -329 OFFCURVE",
"755 -316 CURVE SMOOTH",
"775 -303 OFFCURVE",
"790.5 -286 OFFCURVE",
"801.5 -267 CURVE SMOOTH",
"812.5 -248 OFFCURVE",
"818 -226 OFFCURVE",
"818 -202 CURVE SMOOTH",
"818 -171 OFFCURVE",
"806.5 -145 OFFCURVE",
"783.5 -124 CURVE SMOOTH",
"760.5 -103 OFFCURVE",
"723.667 -87 OFFCURVE",
"673 -76 CURVE",
"697 -14 LINE",
"792.333 -9 OFFCURVE",
"877 12.5 OFFCURVE",
"951 49.5 CURVE SMOOTH",
"1025 86.5 OFFCURVE",
"1090.67 136.333 OFFCURVE",
"1148 199 CURVE",
"1083 280 LINE SMOOTH",
"1080.33 283.333 OFFCURVE",
"1077 286.167 OFFCURVE",
"1073 288.5 CURVE SMOOTH",
"1069 290.833 OFFCURVE",
"1064 292 OFFCURVE",
"1058 292 CURVE SMOOTH",
"1050.67 292 OFFCURVE",
"1042.33 288.333 OFFCURVE",
"1033 281 CURVE SMOOTH",
"1023.67 273.667 OFFCURVE",
"1012.17 264.667 OFFCURVE",
"998.5 254 CURVE SMOOTH",
"984.833 243.333 OFFCURVE",
"968.833 231.5 OFFCURVE",
"950.5 218.5 CURVE SMOOTH",
"932.167 205.5 OFFCURVE",
"910 193.667 OFFCURVE",
"884 183 CURVE SMOOTH",
"858 172.333 OFFCURVE",
"828 163.333 OFFCURVE",
"794 156 CURVE SMOOTH",
"760 148.667 OFFCURVE",
"721 145 OFFCURVE",
"677 145 CURVE SMOOTH",
"620.333 145 OFFCURVE",
"568.333 156 OFFCURVE",
"521 178 CURVE SMOOTH",
"473.667 200 OFFCURVE",
"432.833 231.5 OFFCURVE",
"398.5 272.5 CURVE SMOOTH",
"364.167 313.5 OFFCURVE",
"337.333 363.333 OFFCURVE",
"318 422 CURVE SMOOTH",
"298.667 480.667 OFFCURVE",
"289 547 OFFCURVE",
"289 621 CURVE SMOOTH",
"289 723 OFFCURVE",
"303.167 815 OFFCURVE",
"331.5 897 CURVE SMOOTH",
"359.833 979 OFFCURVE",
"398.667 1048.83 OFFCURVE",
"448 1106.5 CURVE SMOOTH",
"497.333 1164.17 OFFCURVE",
"555.5 1208.5 OFFCURVE",
"622.5 1239.5 CURVE SMOOTH",
"689.5 1270.5 OFFCURVE",
"762 1286 OFFCURVE",
"840 1286 CURVE SMOOTH",
"898 1286 OFFCURVE",
"945.167 1279.33 OFFCURVE",
"981.5 1266 CURVE SMOOTH",
"1017.83 1252.67 OFFCURVE",
"1047.5 1238.17 OFFCURVE",
"1070.5 1222.5 CURVE SMOOTH",
"1093.5 1206.83 OFFCURVE",
"1111.67 1192.33 OFFCURVE",
"1125 1179 CURVE SMOOTH",
"1138.33 1165.67 OFFCURVE",
"1151 1159 OFFCURVE",
"1163 1159 CURVE SMOOTH",
"1173 1159 OFFCURVE",
"1181.33 1161.17 OFFCURVE",
"1188 1165.5 CURVE SMOOTH",
"1194.67 1169.83 OFFCURVE",
"1200.67 1175.33 OFFCURVE",
"1206 1182 CURVE SMOOTH",
"1270 1260 LINE",
"1246 1288.67 OFFCURVE",
"1220.17 1314.67 OFFCURVE",
"1192.5 1338 CURVE SMOOTH",
"1164.83 1361.33 OFFCURVE",
"1134 1381.33 OFFCURVE",
"1100 1398 CURVE SMOOTH",
"1066 1414.67 OFFCURVE",
"1028.33 1427.33 OFFCURVE",
"987 1436 CURVE SMOOTH",
"945.667 1444.67 OFFCURVE",
"899.667 1449 OFFCURVE",
"849 1449 CURVE SMOOTH",
"743.667 1449 OFFCURVE",
"645.333 1428.5 OFFCURVE",
"554 1387.5 CURVE SMOOTH",
"462.667 1346.5 OFFCURVE",
"383.167 1288.83 OFFCURVE",
"315.5 1214.5 CURVE SMOOTH",
"247.833 1140.17 OFFCURVE",
"194.667 1051.33 OFFCURVE",
"156 948 CURVE SMOOTH",
"117.333 844.667 OFFCURVE",
"97.9999 730.667 OFFCURVE",
"97.9999 606 CURVE SMOOTH",
"97.9999 519.333 OFFCURVE",
"109.167 439.5 OFFCURVE",
"131.5 366.5 CURVE SMOOTH",
"153.833 293.5 OFFCURVE",
"186.333 229.833 OFFCURVE",
"229 175.5 CURVE SMOOTH",
"271.667 121.166 OFFCURVE",
"323.833 77.4998 OFFCURVE",
"385.5 44.4998 CURVE SMOOTH",
"447.167 11.4998 OFFCURVE",
"517 -8 OFFCURVE",
"595 -14 CURVE",
"541 -137 LINE",
"584.333 -143 OFFCURVE",
"617.833 -151 OFFCURVE",
"641.5 -161 CURVE SMOOTH",
"665.167 -170 OFFCURVE",
"677 -186 OFFCURVE",
"677 -209 CURVE SMOOTH",
"677 -228 OFFCURVE",
"670 -244 OFFCURVE",
"656 -257 CURVE SMOOTH",
"642 -270 OFFCURVE",
"621.667 -276 OFFCURVE",
"595 -276 CURVE SMOOTH",
"582.333 -276 OFFCURVE",
"571.667 -275 OFFCURVE",
"563 -273 CURVE SMOOTH",
"554.333 -270 OFFCURVE",
"547 -268 OFFCURVE",
"541 -265 CURVE SMOOTH",
"535 -262 OFFCURVE",
"529.833 -259 OFFCURVE",
"525.5 -257 CURVE SMOOTH",
"521.167 -254 OFFCURVE",
"517 -253 OFFCURVE",
"513 -253 CURVE SMOOTH"
);
}
);
width = 1249;
}
);
leftKerningGroup = C;
rightKerningGroup = C;
unicode = 00C7;
},
{
glyphname = D;
layers = (
{
layerId = "28213FCA-CDAC-4A0A-BF59-EE4F382E99BB";
name = "Regular Italic";
paths = (
{
closed = 1;
nodes = (
"1342 907.667 OFFCURVE",
"1328.67 990.833 OFFCURVE",
"1302 1066.5 CURVE SMOOTH",
"1275.33 1142.17 OFFCURVE",
"1237.17 1207.17 OFFCURVE",
"1187.5 1261.5 CURVE SMOOTH",
"1137.83 1315.83 OFFCURVE",
"1077.67 1358 OFFCURVE",
"1007 1388 CURVE SMOOTH",
"936.333 1418 OFFCURVE",
"857 1433 OFFCURVE",
"769 1433 CURVE SMOOTH",
"274 1433 LINE",
"98 0 LINE",
"592 0 LINE SMOOTH",
"700 0 OFFCURVE",
"799.833 19.6667 OFFCURVE",
"891.5 59 CURVE SMOOTH",
"983.167 98.3333 OFFCURVE",
"1062.33 153.833 OFFCURVE",
"1129 225.5 CURVE SMOOTH",
"1195.67 297.167 OFFCURVE",
"1247.83 383.167 OFFCURVE",
"1285.5 483.5 CURVE SMOOTH",
"1323.17 583.833 OFFCURVE",
"1342 695 OFFCURVE",
"1342 817 CURVE SMOOTH"
);
},
{
closed = 1;
nodes = (
"1149 709.667 OFFCURVE",
"1135.83 617.167 OFFCURVE",
"1109.5 535.5 CURVE SMOOTH",
"1083.17 453.833 OFFCURVE",
"1046.33 384.5 OFFCURVE",
"999 327.5 CURVE SMOOTH",
"951.667 270.5 OFFCURVE",
"895 226.833 OFFCURVE",
"829 196.5 CURVE SMOOTH",
"763 166.167 OFFCURVE",
"690.333 151 OFFCURVE",
"611 151 CURVE SMOOTH",
"304 151 LINE",
"444 1281 LINE",
"751 1281 LINE SMOOTH",
"813 1281 OFFCURVE",
"868.667 1270.17 OFFCURVE",
"918 1248.5 CURVE SMOOTH",
"967.333 1226.83 OFFCURVE",
"1009.17 1195.83 OFFCURVE",
"1043.5 1155.5 CURVE SMOOTH",
"1077.83 1115.17 OFFCURVE",
"1104 1066 OFFCURVE",
"1122 1008 CURVE SMOOTH",
"1140 950 OFFCURVE",
"1149 885 OFFCURVE",
"1149 813 CURVE SMOOTH"
);
}
);
width = 1415;
}
);
leftKerningGroup = B;
rightKerningGroup = D;
unicode = 0044;
},
{
glyphname = Eth;
layers = (
{
layerId = "28213FCA-CDAC-4A0A-BF59-EE4F382E99BB";
name = "Regular Italic";
paths = (
{
closed = 1;
nodes = (
"27 777 LINE",
"14 667 LINE",
"193 667 LINE",
"111 0 LINE",
"606 0 LINE SMOOTH",
"713.333 0 OFFCURVE",
"812.667 19.6667 OFFCURVE",
"904 59 CURVE SMOOTH",
"995.333 98.3333 OFFCURVE",
"1074.17 153.833 OFFCURVE",
"1140.5 225.5 CURVE SMOOTH",
"1206.83 297.167 OFFCURVE",
"1258.83 383.167 OFFCURVE",
"1296.5 483.5 CURVE SMOOTH",
"1334.17 583.833 OFFCURVE",
"1353 695 OFFCURVE",
"1353 817 CURVE SMOOTH",
"1353 907.667 OFFCURVE",
"1339.83 990.833 OFFCURVE",
"1313.5 1066.5 CURVE SMOOTH",
"1287.17 1142.17 OFFCURVE",
"1249.17 1207.17 OFFCURVE",
"1199.5 1261.5 CURVE SMOOTH",
"1149.83 1315.83 OFFCURVE",
"1089.67 1358 OFFCURVE",
"1019 1388 CURVE SMOOTH",
"948.333 1418 OFFCURVE",
"869 1433 OFFCURVE",
"781 1433 CURVE SMOOTH",
"287 1433 LINE",
"206 777 LINE"
);
},
{
closed = 1;
nodes = (
"1161 709.667 OFFCURVE",
"1148 617.167 OFFCURVE",
"1122 535.5 CURVE SMOOTH",
"1096 453.833 OFFCURVE",
"1059.33 384.5 OFFCURVE",
"1012 327.5 CURVE SMOOTH",
"964.667 270.5 OFFCURVE",
"908.167 226.833 OFFCURVE",
"842.5 196.5 CURVE SMOOTH",
"776.833 166.167 OFFCURVE",
"704 151 OFFCURVE",
"624 151 CURVE SMOOTH",
"318 151 LINE",
"381 667 LINE",
"729 667 LINE",
"742 777 LINE",
"394 777 LINE",
"456 1281 LINE",
"763 1281 LINE SMOOTH",
"825 1281 OFFCURVE",
"880.667 1270.17 OFFCURVE",
"930 1248.5 CURVE SMOOTH",
"979.333 1226.83 OFFCURVE",
"1021 1195.83 OFFCURVE",
"1055 1155.5 CURVE SMOOTH",
"1089 1115.17 OFFCURVE",
"1115.17 1066 OFFCURVE",
"1133.5 1008 CURVE SMOOTH",
"1151.83 950 OFFCURVE",
"1161 885 OFFCURVE",
"1161 813 CURVE SMOOTH"
);
}
);
width = 1426;
}
);
leftKerningGroup = B;
rightKerningGroup = D;
unicode = 00D0;
},
{
glyphname = E;
layers = (
{
layerId = "28213FCA-CDAC-4A0A-BF59-EE4F382E99BB";
name = "Regular Italic";
paths = (
{
closed = 1;
nodes = (
"1071 1280 LINE",
"1090 1433 LINE",
"274 1433 LINE",
"98 0 LINE",
"915 0 LINE",
"934 152 LINE",
"304 152 LINE",
"365 650 LINE",
"872 650 LINE",
"891 797 LINE",
"383 797 LINE",
"443 1280 LINE"
);
}
);
width = 1076;
}
);
leftKerningGroup = B;
rightKerningGroup = E;
unicode = 0045;
},
{
glyphname = Eacute;
layers = (
{
layerId = "28213FCA-CDAC-4A0A-BF59-EE4F382E99BB";
name = "Regular Italic";
paths = (
{
closed = 1;
nodes = (
"98 0 LINE"
);
},
{
closed = 1;
nodes = (
"1071 1280 LINE",
"1090 1433 LINE",
"274 1433 LINE",
"98 0 LINE",
"915 0 LINE",
"934 152 LINE",
"304 152 LINE",
"365 650 LINE",
"872 650 LINE",
"891 797 LINE",
"383 797 LINE",
"443 1280 LINE"
);
},
{
closed = 1;
nodes = (
"1102 1852 LINE",
"917 1852 LINE SMOOTH",
"897 1852 OFFCURVE",
"881.667 1850.33 OFFCURVE",
"871 1847 CURVE SMOOTH",
"860.333 1843.67 OFFCURVE",
"849 1834.67 OFFCURVE",
"837 1820 CURVE",
"593 1546 LINE",
"709 1546 LINE SMOOTH",
"722.333 1546 OFFCURVE",
"733.167 1547 OFFCURVE",
"741.5 1549 CURVE SMOOTH",
"749.833 1551 OFFCURVE",
"759.667 1556.67 OFFCURVE",
"771 1566 CURVE SMOOTH"
);
}
);
width = 1076;
}
);
leftKerningGroup = B;
rightKerningGroup = E;
unicode = 00C9;
},
{
glyphname = Ecircumflex;
layers = (
{
layerId = "28213FCA-CDAC-4A0A-BF59-EE4F382E99BB";
name = "Regular Italic";
paths = (
{
closed = 1;
nodes = (
"98 0 LINE"
);
},
{
closed = 1;
nodes = (
"1071 1280 LINE",
"1090 1433 LINE",
"274 1433 LINE",
"98 0 LINE",
"915 0 LINE",
"934 152 LINE",
"304 152 LINE",
"365 650 LINE",
"872 650 LINE",
"891 797 LINE",
"383 797 LINE",
"443 1280 LINE"
);
},
{
closed = 1;
nodes = (
"992 1546 LINE",
"803 1817 LINE",
"656 1817 LINE",
"405 1546 LINE",
"521 1546 LINE SMOOTH",
"528.333 1546 OFFCURVE",
"537.167 1547.5 OFFCURVE",
"547.5 1550.5 CURVE SMOOTH",
"557.833 1553.5 OFFCURVE",
"569 1561.67 OFFCURVE",
"581 1575 CURVE SMOOTH",
"705 1716 LINE",
"707 1718.67 OFFCURVE",
"709.167 1721.33 OFFCURVE",
"711.5 1724 CURVE SMOOTH",
"713.833 1726.67 OFFCURVE",
"715.667 1729.33 OFFCURVE",
"717 1732 CURVE",
"726 1716 LINE",
"818 1575 LINE SMOOTH",
"826.667 1561.67 OFFCURVE",
"836 1553.5 OFFCURVE",
"846 1550.5 CURVE SMOOTH",
"856 1547.5 OFFCURVE",
"864.667 1546 OFFCURVE",
"872 1546 CURVE SMOOTH"
);
}
);
width = 1076;
}
);
leftKerningGroup = B;
rightKerningGroup = E;
unicode = 00CA;
},
{
glyphname = Edieresis;
layers = (
{
layerId = "28213FCA-CDAC-4A0A-BF59-EE4F382E99BB";
name = "Regular Italic";
paths = (
{
closed = 1;
nodes = (
"98 0 LINE"
);
},
{
closed = 1;
nodes = (
"1071 1280 LINE",
"1090 1433 LINE",
"274 1433 LINE",
"98 0 LINE",
"915 0 LINE",
"934 152 LINE",
"304 152 LINE",
"365 650 LINE",
"872 650 LINE",
"891 797 LINE",
"383 797 LINE",
"443 1280 LINE"
);
},
{
closed = 1;
nodes = (
"634 1679 OFFCURVE",
"631 1693.83 OFFCURVE",
"625 1707.5 CURVE SMOOTH",
"619 1721.17 OFFCURVE",
"610.667 1733.33 OFFCURVE",
"600 1744 CURVE SMOOTH",
"589.333 1754.67 OFFCURVE",
"577.167 1763 OFFCURVE",
"563.5 1769 CURVE SMOOTH",
"549.833 1775 OFFCURVE",
"535.333 1778 OFFCURVE",
"520 1778 CURVE SMOOTH",
"505.333 1778 OFFCURVE",
"491.333 1775 OFFCURVE",
"478 1769 CURVE SMOOTH",
"464.667 1763 OFFCURVE",
"452.833 1754.67 OFFCURVE",
"442.5 1744 CURVE SMOOTH",
"432.167 1733.33 OFFCURVE",
"424 1721.17 OFFCURVE",
"418 1707.5 CURVE SMOOTH",
"412 1693.83 OFFCURVE",
"409 1679 OFFCURVE",
"409 1663 CURVE SMOOTH",
"409 1647.67 OFFCURVE",
"412 1633.33 OFFCURVE",
"418 1620 CURVE SMOOTH",
"424 1606.67 OFFCURVE",
"432.167 1595 OFFCURVE",
"442.5 1585 CURVE SMOOTH",
"452.833 1575 OFFCURVE",
"464.667 1567.17 OFFCURVE",
"478 1561.5 CURVE SMOOTH",
"491.333 1555.83 OFFCURVE",
"505.333 1553 OFFCURVE",
"520 1553 CURVE SMOOTH",
"535.333 1553 OFFCURVE",
"549.833 1555.83 OFFCURVE",
"563.5 1561.5 CURVE SMOOTH",
"577.167 1567.17 OFFCURVE",
"589.333 1575 OFFCURVE",
"600 1585 CURVE SMOOTH",
"610.667 1595 OFFCURVE",
"619 1606.67 OFFCURVE",
"625 1620 CURVE SMOOTH",
"631 1633.33 OFFCURVE",
"634 1647.67 OFFCURVE",
"634 1663 CURVE SMOOTH"
);
},
{
closed = 1;
nodes = (
"1014 1679 OFFCURVE",
"1011 1693.83 OFFCURVE",
"1005 1707.5 CURVE SMOOTH",
"999 1721.17 OFFCURVE",
"990.833 1733.33 OFFCURVE",
"980.5 1744 CURVE SMOOTH",
"970.167 1754.67 OFFCURVE",
"958.167 1763 OFFCURVE",
"944.5 1769 CURVE SMOOTH",
"930.833 1775 OFFCURVE",
"916.333 1778 OFFCURVE",
"901 1778 CURVE SMOOTH",
"885.667 1778 OFFCURVE",
"871.167 1775 OFFCURVE",
"857.5 1769 CURVE SMOOTH",
"843.833 1763 OFFCURVE",
"832 1754.67 OFFCURVE",
"822 1744 CURVE SMOOTH",
"812 1733.33 OFFCURVE",
"804 1721.17 OFFCURVE",
"798 1707.5 CURVE SMOOTH",
"792 1693.83 OFFCURVE",
"789 1679 OFFCURVE",
"789 1663 CURVE SMOOTH",
"789 1647.67 OFFCURVE",
"792 1633.33 OFFCURVE",
"798 1620 CURVE SMOOTH",
"804 1606.67 OFFCURVE",
"812 1595 OFFCURVE",
"822 1585 CURVE SMOOTH",
"832 1575 OFFCURVE",
"843.833 1567.17 OFFCURVE",
"857.5 1561.5 CURVE SMOOTH",
"871.167 1555.83 OFFCURVE",
"885.667 1553 OFFCURVE",
"901 1553 CURVE SMOOTH",
"916.333 1553 OFFCURVE",
"930.833 1555.83 OFFCURVE",
"944.5 1561.5 CURVE SMOOTH",
"958.167 1567.17 OFFCURVE",
"970.167 1575 OFFCURVE",
"980.5 1585 CURVE SMOOTH",
"990.833 1595 OFFCURVE",
"999 1606.67 OFFCURVE",
"1005 1620 CURVE SMOOTH",
"1011 1633.33 OFFCURVE",
"1014 1647.67 OFFCURVE",
"1014 1663 CURVE SMOOTH"
);
}
);
width = 1076;
}
);
leftKerningGroup = B;
rightKerningGroup = E;
unicode = 00CB;
},
{
glyphname = Egrave;
layers = (
{
layerId = "28213FCA-CDAC-4A0A-BF59-EE4F382E99BB";
name = "Regular Italic";
paths = (
{
closed = 1;
nodes = (
"98 0 LINE"
);
},
{
closed = 1;
nodes = (
"1071 1280 LINE",
"1090 1433 LINE",
"274 1433 LINE",
"98 0 LINE",
"915 0 LINE",
"934 152 LINE",
"304 152 LINE",
"365 650 LINE",
"872 650 LINE",
"891 797 LINE",
"383 797 LINE",
"443 1280 LINE"
);
},
{
closed = 1;
nodes = (
"408 1852 LINE",
"663 1565 LINE",
"670.333 1555.67 OFFCURVE",
"677.833 1550.17 OFFCURVE",
"685.5 1548.5 CURVE SMOOTH",
"693.167 1546.83 OFFCURVE",
"703.667 1546 OFFCURVE",
"717 1546 CURVE SMOOTH",
"835 1546 LINE",
"657 1820 LINE SMOOTH",
"647.667 1834.67 OFFCURVE",
"638 1843.67 OFFCURVE",
"628 1847 CURVE SMOOTH",
"618 1850.33 OFFCURVE",
"603 1852 OFFCURVE",
"583 1852 CURVE SMOOTH"
);
}
);
width = 1076;
}
);
leftKerningGroup = B;
rightKerningGroup = E;
unicode = 00C8;
},
{
glyphname = F;
layers = (
{
layerId = "28213FCA-CDAC-4A0A-BF59-EE4F382E99BB";
name = "Regular Italic";
paths = (
{
closed = 1;
nodes = (
"1071 1280 LINE",
"1090 1433 LINE",
"274 1433 LINE",
"98 0 LINE",
"286 0 LINE",
"362 618 LINE",
"897 618 LINE",
"917 770 LINE",
"380 770 LINE",
"443 1280 LINE"
);
}
);
width = 1060;
}
);
leftKerningGroup = B;
rightKerningGroup = F;
unicode = 0046;
},
{
glyphname = G;
layers = (
{
layerId = "28213FCA-CDAC-4A0A-BF59-EE4F382E99BB";
name = "Regular Italic";
paths = (
{
closed = 1;
nodes = (
"640 135 OFFCURVE",
"583.667 146.167 OFFCURVE",
"533 168.5 CURVE SMOOTH",
"482.333 190.833 OFFCURVE",
"439 223 OFFCURVE",
"403 265 CURVE SMOOTH",
"367 307 OFFCURVE",
"339.167 358 OFFCURVE",
"319.5 418 CURVE SMOOTH",
"299.833 478 OFFCURVE",
"290 545.667 OFFCURVE",
"290 621 CURVE SMOOTH",
"290 721.667 OFFCURVE",
"303.5 813 OFFCURVE",
"330.5 895 CURVE SMOOTH",
"357.5 977 OFFCURVE",
"395.5 1047 OFFCURVE",
"444.5 1105 CURVE SMOOTH",
"493.5 1163 OFFCURVE",
"552.167 1207.67 OFFCURVE",
"620.5 1239 CURVE SMOOTH",
"688.833 1270.33 OFFCURVE",
"764 1286 OFFCURVE",
"846 1286 CURVE SMOOTH",
"896 1286 OFFCURVE",
"938.667 1281.5 OFFCURVE",
"974 1272.5 CURVE SMOOTH",
"1009.33 1263.5 OFFCURVE",
"1039.67 1252.83 OFFCURVE",
"1065 1240.5 CURVE SMOOTH",
"1090.33 1228.17 OFFCURVE",
"1111.83 1215.17 OFFCURVE",
"1129.5 1201.5 CURVE SMOOTH",
"1147.17 1187.83 OFFCURVE",
"1163.33 1176.67 OFFCURVE",
"1178 1168 CURVE SMOOTH",
"1192.67 1158.67 OFFCURVE",
"1206.83 1155.67 OFFCURVE",
"1220.5 1159 CURVE SMOOTH",
"1234.17 1162.33 OFFCURVE",
"1246 1171 OFFCURVE",
"1256 1185 CURVE",
"1316 1263 LINE",
"1291.33 1289.67 OFFCURVE",
"1264.17 1314.33 OFFCURVE",
"1234.5 1337 CURVE SMOOTH",
"1204.83 1359.67 OFFCURVE",
"1171.5 1379.33 OFFCURVE",
"1134.5 1396 CURVE SMOOTH",
"1097.5 1412.67 OFFCURVE",
"1056.5 1425.67 OFFCURVE",
"1011.5 1435 CURVE SMOOTH",
"966.5 1444.33 OFFCURVE",
"916 1449 OFFCURVE",
"860 1449 CURVE SMOOTH",
"750 1449 OFFCURVE",
"648.5 1428.67 OFFCURVE",
"555.5 1388 CURVE SMOOTH",
"462.5 1347.33 OFFCURVE",
"382.167 1290.17 OFFCURVE",
"314.5 1216.5 CURVE SMOOTH",
"246.833 1142.83 OFFCURVE",
"193.833 1054.83 OFFCURVE",
"155.5 952.5 CURVE SMOOTH",
"117.167 850.167 OFFCURVE",
"97.9999 737.333 OFFCURVE",
"97.9999 614 CURVE SMOOTH",
"97.9999 522 OFFCURVE",
"111.5 437.333 OFFCURVE",
"138.5 360 CURVE SMOOTH",
"165.5 282.667 OFFCURVE",
"204 216.167 OFFCURVE",
"254 160.5 CURVE SMOOTH",
"304 104.833 OFFCURVE",
"364.333 61.5001 OFFCURVE",
"435 30.5001 CURVE SMOOTH",
"505.667 0 OFFCURVE",
"584.333 -16 OFFCURVE",
"671 -16 CURVE SMOOTH",
"725.667 -16 OFFCURVE",
"776.667 -13 OFFCURVE",
"824 -6 CURVE SMOOTH",
"871.333 0 OFFCURVE",
"916.167 9.50008 OFFCURVE",
"958.5 22.5001 CURVE SMOOTH",
"1000.83 35.5001 OFFCURVE",
"1041.17 51.6667 OFFCURVE",
"1079.5 71 CURVE SMOOTH",
"1117.83 90.3334 OFFCURVE",
"1155 113 OFFCURVE",
"1191 139 CURVE",
"1259 686 LINE",
"848 686 LINE",
"836 579 LINE SMOOTH",
"834.667 569 OFFCURVE",
"837.333 560.5 OFFCURVE",
"844 553.5 CURVE SMOOTH",
"850.667 546.5 OFFCURVE",
"860 543 OFFCURVE",
"872 543 CURVE SMOOTH",
"1072 543 LINE",
"1032 219 LINE",
"1008 205.667 OFFCURVE",
"984 193.833 OFFCURVE",
"960 183.5 CURVE SMOOTH",
"936 173.167 OFFCURVE",
"910.667 164.333 OFFCURVE",
"884 157 CURVE SMOOTH",
"857.333 149.667 OFFCURVE",
"829 144.167 OFFCURVE",
"799 140.5 CURVE SMOOTH",
"769 136.833 OFFCURVE",
"736.667 135 OFFCURVE",
"702 135 CURVE SMOOTH"
);
}
);
width = 1361;
}
);
leftKerningGroup = C;
rightKerningGroup = G;
unicode = 0047;
},
{
glyphname = H;
layers = (
{
layerId = "28213FCA-CDAC-4A0A-BF59-EE4F382E99BB";
name = "Regular Italic";
paths = (
{
closed = 1;
nodes = (
"1173 0 LINE",
"1350 1433 LINE",
"1161 1433 LINE",
"1082 790 LINE",
"383 790 LINE",
"462 1433 LINE",
"274 1433 LINE",
"98 0 LINE",
"286 0 LINE",
"366 654 LINE",
"1065 654 LINE",
"985 0 LINE"
);
}
);
width = 1420;
}
);
leftKerningGroup = B;
rightKerningGroup = H;
unicode = 0048;
},
{
glyphname = I;
layers = (
{
layerId = "28213FCA-CDAC-4A0A-BF59-EE4F382E99BB";
name = "Regular Italic";
paths = (
{
closed = 1;
nodes = (
"286 0 LINE",
"461 1433 LINE",
"273 1433 LINE",
"98 0 LINE"
);
}
);
width = 533;
}
);
leftKerningGroup = B;
rightKerningGroup = H;
unicode = 0049;
},
{
glyphname = Iacute;
layers = (
{
layerId = "28213FCA-CDAC-4A0A-BF59-EE4F382E99BB";
name = "Regular Italic";
paths = (
{
closed = 1;
nodes = (
"98 0 LINE"
);
},
{
closed = 1;
nodes = (
"286 0 LINE",
"461 1433 LINE",
"273 1433 LINE",
"98 0 LINE"
);
},
{
closed = 1;
nodes = (
"779 1852 LINE",
"594 1852 LINE SMOOTH",
"574 1852 OFFCURVE",
"558.667 1850.33 OFFCURVE",
"548 1847 CURVE SMOOTH",
"537.333 1843.67 OFFCURVE",
"526 1834.67 OFFCURVE",
"514 1820 CURVE",
"270 1546 LINE",
"386 1546 LINE SMOOTH",
"399.333 1546 OFFCURVE",
"410.167 1547 OFFCURVE",
"418.5 1549 CURVE SMOOTH",
"426.833 1551 OFFCURVE",
"436.667 1556.67 OFFCURVE",
"448 1566 CURVE SMOOTH"
);
}
);
width = 533;
}
);
leftKerningGroup = B;
rightKerningGroup = H;
unicode = 00CD;
},
{
glyphname = Icircumflex;
layers = (
{
layerId = "28213FCA-CDAC-4A0A-BF59-EE4F382E99BB";
name = "Regular Italic";
paths = (
{
closed = 1;
nodes = (
"91 0 LINE"
);
},
{
closed = 1;
nodes = (
"286 0 LINE",
"461 1433 LINE",
"273 1433 LINE",
"98 0 LINE"
);
},
{
closed = 1;
nodes = (
"678 1546 LINE",
"489 1817 LINE",
"342 1817 LINE",
"91 1546 LINE",
"207 1546 LINE SMOOTH",
"214.333 1546 OFFCURVE",
"223.167 1547.5 OFFCURVE",
"233.5 1550.5 CURVE SMOOTH",
"243.833 1553.5 OFFCURVE",
"255 1561.67 OFFCURVE",
"267 1575 CURVE SMOOTH",
"391 1716 LINE",
"393 1718.67 OFFCURVE",
"395.167 1721.33 OFFCURVE",
"397.5 1724 CURVE SMOOTH",
"399.833 1726.67 OFFCURVE",
"401.667 1729.33 OFFCURVE",
"403 1732 CURVE",
"412 1716 LINE",
"504 1575 LINE SMOOTH",
"512.667 1561.67 OFFCURVE",
"522 1553.5 OFFCURVE",
"532 1550.5 CURVE SMOOTH",
"542 1547.5 OFFCURVE",
"550.667 1546 OFFCURVE",
"558 1546 CURVE SMOOTH"
);
}
);
width = 533;
}
);
leftKerningGroup = B;
rightKerningGroup = H;
unicode = 00CE;
},
{
glyphname = Idieresis;
layers = (
{
layerId = "28213FCA-CDAC-4A0A-BF59-EE4F382E99BB";
name = "Regular Italic";
paths = (
{
closed = 1;
nodes = (
"95 0 LINE"
);
},
{
closed = 1;
nodes = (
"286 0 LINE",
"461 1433 LINE",
"273 1433 LINE",
"98 0 LINE"
);
},
{
closed = 1;
nodes = (
"320 1679 OFFCURVE",
"317 1693.83 OFFCURVE",
"311 1707.5 CURVE SMOOTH",
"305 1721.17 OFFCURVE",
"296.667 1733.33 OFFCURVE",
"286 1744 CURVE SMOOTH",
"275.333 1754.67 OFFCURVE",
"263.167 1763 OFFCURVE",
"249.5 1769 CURVE SMOOTH",
"235.833 1775 OFFCURVE",
"221.333 1778 OFFCURVE",
"206 1778 CURVE SMOOTH",
"191.333 1778 OFFCURVE",
"177.333 1775 OFFCURVE",
"164 1769 CURVE SMOOTH",
"150.667 1763 OFFCURVE",
"138.833 1754.67 OFFCURVE",
"128.5 1744 CURVE SMOOTH",
"118.167 1733.33 OFFCURVE",
"110 1721.17 OFFCURVE",
"104 1707.5 CURVE SMOOTH",
"98 1693.83 OFFCURVE",
"95 1679 OFFCURVE",
"95 1663 CURVE SMOOTH",
"95 1647.67 OFFCURVE",
"98 1633.33 OFFCURVE",
"104 1620 CURVE SMOOTH",
"110 1606.67 OFFCURVE",
"118.167 1595 OFFCURVE",
"128.5 1585 CURVE SMOOTH",
"138.833 1575 OFFCURVE",
"150.667 1567.17 OFFCURVE",
"164 1561.5 CURVE SMOOTH",
"177.333 1555.83 OFFCURVE",
"191.333 1553 OFFCURVE",
"206 1553 CURVE SMOOTH",
"221.333 1553 OFFCURVE",
"235.833 1555.83 OFFCURVE",
"249.5 1561.5 CURVE SMOOTH",
"263.167 1567.17 OFFCURVE",
"275.333 1575 OFFCURVE",
"286 1585 CURVE SMOOTH",
"296.667 1595 OFFCURVE",
"305 1606.67 OFFCURVE",
"311 1620 CURVE SMOOTH",
"317 1633.33 OFFCURVE",
"320 1647.67 OFFCURVE",
"320 1663 CURVE SMOOTH"
);
},
{
closed = 1;
nodes = (
"700 1679 OFFCURVE",
"697 1693.83 OFFCURVE",
"691 1707.5 CURVE SMOOTH",
"685 1721.17 OFFCURVE",
"676.833 1733.33 OFFCURVE",
"666.5 1744 CURVE SMOOTH",
"656.167 1754.67 OFFCURVE",
"644.167 1763 OFFCURVE",
"630.5 1769 CURVE SMOOTH",
"616.833 1775 OFFCURVE",
"602.333 1778 OFFCURVE",
"587 1778 CURVE SMOOTH",
"571.667 1778 OFFCURVE",
"557.167 1775 OFFCURVE",
"543.5 1769 CURVE SMOOTH",
"529.833 1763 OFFCURVE",
"518 1754.67 OFFCURVE",
"508 1744 CURVE SMOOTH",
"498 1733.33 OFFCURVE",
"490 1721.17 OFFCURVE",
"484 1707.5 CURVE SMOOTH",
"478 1693.83 OFFCURVE",
"475 1679 OFFCURVE",
"475 1663 CURVE SMOOTH",
"475 1647.67 OFFCURVE",
"478 1633.33 OFFCURVE",
"484 1620 CURVE SMOOTH",
"490 1606.67 OFFCURVE",
"498 1595 OFFCURVE",
"508 1585 CURVE SMOOTH",
"518 1575 OFFCURVE",
"529.833 1567.17 OFFCURVE",
"543.5 1561.5 CURVE SMOOTH",
"557.167 1555.83 OFFCURVE",
"571.667 1553 OFFCURVE",
"587 1553 CURVE SMOOTH",
"602.333 1553 OFFCURVE",
"616.833 1555.83 OFFCURVE",
"630.5 1561.5 CURVE SMOOTH",
"644.167 1567.17 OFFCURVE",
"656.167 1575 OFFCURVE",
"666.5 1585 CURVE SMOOTH",
"676.833 1595 OFFCURVE",
"685 1606.67 OFFCURVE",
"691 1620 CURVE SMOOTH",
"697 1633.33 OFFCURVE",
"700 1647.67 OFFCURVE",
"700 1663 CURVE SMOOTH"
);
}
);
width = 533;
}
);
leftKerningGroup = B;
rightKerningGroup = H;
unicode = 00CF;
},
{
glyphname = Igrave;
layers = (
{
layerId = "28213FCA-CDAC-4A0A-BF59-EE4F382E99BB";
name = "Regular Italic";
paths = (
{
closed = 1;
nodes = (
"62 0 LINE"
);
},
{
closed = 1;
nodes = (
"286 0 LINE",
"461 1433 LINE",
"273 1433 LINE",
"98 0 LINE"
);
},
{
closed = 1;
nodes = (
"62 1852 LINE",
"317 1565 LINE",
"324.333 1555.67 OFFCURVE",
"331.833 1550.17 OFFCURVE",
"339.5 1548.5 CURVE SMOOTH",
"347.167 1546.83 OFFCURVE",
"357.667 1546 OFFCURVE",
"371 1546 CURVE SMOOTH",
"489 1546 LINE",
"311 1820 LINE SMOOTH",
"301.667 1834.67 OFFCURVE",
"292 1843.67 OFFCURVE",
"282 1847 CURVE SMOOTH",
"272 1850.33 OFFCURVE",
"257 1852 OFFCURVE",
"237 1852 CURVE SMOOTH"
);
}
);
width = 533;
}
);
leftKerningGroup = B;
rightKerningGroup = H;
unicode = 00CC;
},
{
glyphname = J;
layers = (
{
layerId = "28213FCA-CDAC-4A0A-BF59-EE4F382E99BB";
name = "Regular Italic";
paths = (
{
closed = 1;
nodes = (
"743 1433 LINE",
"556 1433 LINE",
"438 471 LINE SMOOTH",
"430.667 409.667 OFFCURVE",
"418.5 358 OFFCURVE",
"401.5 316 CURVE SMOOTH",
"384.5 274 OFFCURVE",
"363.833 240 OFFCURVE",
"339.5 214 CURVE SMOOTH",
"315.167 188 OFFCURVE",
"287.667 169.333 OFFCURVE",
"257 158 CURVE SMOOTH",
"226.333 146.667 OFFCURVE",
"193.667 141 OFFCURVE",
"159 141 CURVE SMOOTH",
"139.667 141 OFFCURVE",
"122.833 141.833 OFFCURVE",
"108.5 143.5 CURVE SMOOTH",
"94.1667 145.167 OFFCURVE",
"81.5 147.167 OFFCURVE",
"70.5 149.5 CURVE SMOOTH",
"59.5 151.833 OFFCURVE",
"49.8333 153.833 OFFCURVE",
"41.5 155.5 CURVE SMOOTH",
"33.1667 157.167 OFFCURVE",
"25.3333 158 OFFCURVE",
"18 158 CURVE SMOOTH",
"4.66667 158 OFFCURVE",
"-5 154.333 OFFCURVE",
"-11 147 CURVE SMOOTH",
"-17 139.667 OFFCURVE",
"-21 131 OFFCURVE",
"-23 121 CURVE",
"-36 12 LINE",
"-5 2.66667 OFFCURVE",
"26.5 -4 OFFCURVE",
"57.5 -9 CURVE SMOOTH",
"88.5 -14 OFFCURVE",
"122 -16 OFFCURVE",
"158 -16 CURVE SMOOTH",
"224 -16 OFFCURVE",
"283.5 -5 OFFCURVE",
"336.5 16 CURVE SMOOTH",
"389.5 37.3333 OFFCURVE",
"435.833 68.8333 OFFCURVE",
"475.5 110.5 CURVE SMOOTH",
"515.167 152.167 OFFCURVE",
"547.5 203.5 OFFCURVE",
"572.5 264.5 CURVE SMOOTH",
"597.5 325.5 OFFCURVE",
"615 395.667 OFFCURVE",
"625 475 CURVE SMOOTH"
);
}
);
width = 801;
}
);
leftKerningGroup = J;
rightKerningGroup = J;
unicode = 004A;
},
{
glyphname = K;
layers = (
{
layerId = "28213FCA-CDAC-4A0A-BF59-EE4F382E99BB";
name = "Regular Italic";
paths = (
{
closed = 1;
nodes = (
"382 802 LINE",
"460 1433 LINE",
"273 1433 LINE",
"98 0 LINE",
"284 0 LINE",
"365 658 LINE",
"446 658 LINE SMOOTH",
"474.667 658 OFFCURVE",
"495.667 654.5 OFFCURVE",
"509 647.5 CURVE SMOOTH",
"522.333 640.5 OFFCURVE",
"534 628.667 OFFCURVE",
"544 612 CURVE",
"920 40 LINE",
"927.333 27.3333 OFFCURVE",
"936 17.5 OFFCURVE",
"946 10.5 CURVE SMOOTH",
"956 3.5 OFFCURVE",
"973.333 0 OFFCURVE",
"998 0 CURVE SMOOTH",
"1159 0 LINE",
"727 679 LINE",
"717 697.667 OFFCURVE",
"705.833 712.5 OFFCURVE",
"693.5 723.5 CURVE SMOOTH",
"681.167 734.5 OFFCURVE",
"667 743.333 OFFCURVE",
"651 750 CURVE",
"676.333 761.333 OFFCURVE",
"702.333 782.333 OFFCURVE",
"729 813 CURVE SMOOTH",
"1301 1433 LINE",
"1142 1433 LINE SMOOTH",
"1122 1433 OFFCURVE",
"1104.33 1430 OFFCURVE",
"1089 1424 CURVE SMOOTH",
"1073.67 1418 OFFCURVE",
"1059 1406 OFFCURVE",
"1045 1388 CURVE",
"549 844 LINE SMOOTH",
"535 828.667 OFFCURVE",
"520.5 817.833 OFFCURVE",
"505.5 811.5 CURVE SMOOTH",
"490.5 805.167 OFFCURVE",
"471.333 802 OFFCURVE",
"448 802 CURVE SMOOTH"
);
}
);
width = 1236;
}
);
leftKerningGroup = B;
rightKerningGroup = K;
unicode = 004B;
},
{
glyphname = L;
layers = (
{
layerId = "28213FCA-CDAC-4A0A-BF59-EE4F382E99BB";
name = "Regular Italic";
paths = (
{
closed = 1;
nodes = (
"304 158 LINE",
"461 1433 LINE",
"274 1433 LINE",
"98 0 LINE",
"851 0 LINE",
"870 158 LINE"
);
}
);
width = 951;
}
);
leftKerningGroup = B;
rightKerningGroup = L;
unicode = 004C;
},
{
glyphname = M;
layers = (
{
layerId = "28213FCA-CDAC-4A0A-BF59-EE4F382E99BB";
name = "Regular Italic";
paths = (
{
closed = 1;
nodes = (
"820 500 LINE",
"473 1401 LINE",
"463.667 1413.67 OFFCURVE",
"455.333 1422.17 OFFCURVE",
"448 1426.5 CURVE SMOOTH",
"440.667 1430.83 OFFCURVE",
"428.667 1433 OFFCURVE",
"412 1433 CURVE SMOOTH",
"274 1433 LINE",
"98 0 LINE",
"263 0 LINE",
"392 1062 LINE SMOOTH",
"393.333 1075.33 OFFCURVE",
"394.333 1089.67 OFFCURVE",
"395 1105 CURVE SMOOTH",
"395.667 1120.33 OFFCURVE",
"396.333 1136.33 OFFCURVE",
"397 1153 CURVE",
"743 252 LINE",
"747.667 238 OFFCURVE",
"755.5 227.333 OFFCURVE",
"766.5 220 CURVE SMOOTH",
"777.5 212.667 OFFCURVE",
"790.333 209 OFFCURVE",
"805 209 CURVE SMOOTH",
"832 209 LINE SMOOTH",
"862.667 209 OFFCURVE",
"886.667 223.333 OFFCURVE",
"904 252 CURVE SMOOTH",
"1462 1152 LINE",
"1458.67 1135.33 OFFCURVE",
"1455.5 1119 OFFCURVE",
"1452.5 1103 CURVE SMOOTH",
"1449.5 1087 OFFCURVE",
"1447 1072.33 OFFCURVE",
"1445 1059 CURVE SMOOTH",
"1315 0 LINE",
"1478 0 LINE",
"1655 1433 LINE",
"1516 1433 LINE SMOOTH",
"1499.33 1433 OFFCURVE",
"1486.67 1431 OFFCURVE",
"1478 1427 CURVE SMOOTH",
"1469.33 1423 OFFCURVE",
"1459.33 1414.33 OFFCURVE",
"1448 1401 CURVE",
"884 500 LINE SMOOTH",
"876 486.667 OFFCURVE",
"868.667 473.333 OFFCURVE",
"862 460 CURVE SMOOTH",
"855.333 446.667 OFFCURVE",
"848.667 433 OFFCURVE",
"842 419 CURVE",
"838.667 433 OFFCURVE",
"835.167 446.667 OFFCURVE",
"831.5 460 CURVE SMOOTH",
"827.833 473.333 OFFCURVE",
"824 486.667 OFFCURVE",
"820 500 CURVE"
);
}
);
width = 1725;
}
);
leftKerningGroup = B;
rightKerningGroup = H;
unicode = 004D;
},
{
glyphname = N;
layers = (
{
layerId = "28213FCA-CDAC-4A0A-BF59-EE4F382E99BB";
name = "Regular Italic";
paths = (
{
closed = 1;
nodes = (
"371 1433 LINE",
"274 1433 LINE",
"98 0 LINE",
"263 0 LINE",
"392 1060 LINE",
"398 1130 LINE",
"1016 35 LINE",
"1024.67 23 OFFCURVE",
"1033.67 14.1667 OFFCURVE",
"1043 8.5 CURVE SMOOTH",
"1052.33 2.83333 OFFCURVE",
"1064.67 0 OFFCURVE",
"1080 0 CURVE SMOOTH",
"1173 0 LINE",
"1350 1433 LINE",
"1185 1433 LINE",
"1056 389 LINE SMOOTH",
"1054.67 376.333 OFFCURVE",
"1053.33 363.167 OFFCURVE",
"1052 349.5 CURVE SMOOTH",
"1050.67 335.833 OFFCURVE",
"1049.67 321.333 OFFCURVE",
"1049 306 CURVE",
"430 1401 LINE SMOOTH",
"422 1414.33 OFFCURVE",
"414.333 1423 OFFCURVE",
"407 1427 CURVE SMOOTH",
"399.667 1431 OFFCURVE",
"387.667 1433 OFFCURVE",
"371 1433 CURVE SMOOTH"
);
}
);
width = 1420;
}
);
leftKerningGroup = B;
rightKerningGroup = H;
unicode = 004E;
},
{
glyphname = Ntilde;
layers = (
{
layerId = "28213FCA-CDAC-4A0A-BF59-EE4F382E99BB";
name = "Regular Italic";
paths = (
{
closed = 1;
nodes = (
"274 1433 LINE",
"98 0 LINE",
"263 0 LINE",
"392 1060 LINE",
"398 1130 LINE",
"1016 35 LINE",
"1024.67 23 OFFCURVE",
"1033.67 14.1667 OFFCURVE",
"1043 8.5 CURVE SMOOTH",
"1052.33 2.83333 OFFCURVE",
"1064.67 0 OFFCURVE",
"1080 0 CURVE SMOOTH",
"1173 0 LINE",
"1350 1433 LINE",
"1185 1433 LINE",
"1056 389 LINE SMOOTH",
"1054.67 376.333 OFFCURVE",
"1053.33 363.167 OFFCURVE",
"1052 349.5 CURVE SMOOTH",
"1050.67 335.833 OFFCURVE",
"1049.67 321.333 OFFCURVE",
"1049 306 CURVE",
"430 1401 LINE SMOOTH",
"422 1414.33 OFFCURVE",
"414.333 1423 OFFCURVE",
"407 1427 CURVE SMOOTH",
"399.667 1431 OFFCURVE",
"387.667 1433 OFFCURVE",
"371 1433 CURVE SMOOTH"
);
},
{
closed = 1;
nodes = (
"941.333 1662 OFFCURVE",
"925.333 1667.5 OFFCURVE",
"910 1678.5 CURVE SMOOTH",
"894.667 1689.5 OFFCURVE",
"878.5 1701.5 OFFCURVE",
"861.5 1714.5 CURVE SMOOTH",
"844.5 1727.5 OFFCURVE",
"825.5 1739.5 OFFCURVE",
"804.5 1750.5 CURVE SMOOTH",
"783.5 1761.5 OFFCURVE",
"759 1767 OFFCURVE",
"731 1767 CURVE SMOOTH",
"704.333 1767 OFFCURVE",
"680 1761 OFFCURVE",
"658 1749 CURVE SMOOTH",
"636 1737 OFFCURVE",
"616.667 1720.83 OFFCURVE",
"600 1700.5 CURVE SMOOTH",
"583.333 1680.17 OFFCURVE",
"569.667 1656.67 OFFCURVE",
"559 1630 CURVE SMOOTH",
"548.333 1603.33 OFFCURVE",
"541.333 1575.67 OFFCURVE",
"538 1547 CURVE",
"641 1547 LINE",
"642.333 1559 OFFCURVE",
"645.5 1571 OFFCURVE",
"650.5 1583 CURVE SMOOTH",
"655.5 1595 OFFCURVE",
"662.167 1605.83 OFFCURVE",
"670.5 1615.5 CURVE SMOOTH",
"678.833 1625.17 OFFCURVE",
"688.667 1633 OFFCURVE",
"700 1639 CURVE SMOOTH",
"711.333 1645 OFFCURVE",
"724 1648 OFFCURVE",
"738 1648 CURVE SMOOTH",
"754.667 1648 OFFCURVE",
"770.667 1642.5 OFFCURVE",
"786 1631.5 CURVE SMOOTH",
"801.333 1620.5 OFFCURVE",
"817.667 1608.5 OFFCURVE",
"835 1595.5 CURVE SMOOTH",
"852.333 1582.5 OFFCURVE",
"871.333 1570.5 OFFCURVE",
"892 1559.5 CURVE SMOOTH",
"912.667 1548.5 OFFCURVE",
"936.667 1543 OFFCURVE",
"964 1543 CURVE SMOOTH",
"990.667 1543 OFFCURVE",
"1015.17 1549 OFFCURVE",
"1037.5 1561 CURVE SMOOTH",
"1059.83 1573 OFFCURVE",
"1079.17 1589.17 OFFCURVE",
"1095.5 1609.5 CURVE SMOOTH",
"1111.83 1629.83 OFFCURVE",
"1125.17 1653.17 OFFCURVE",
"1135.5 1679.5 CURVE SMOOTH",
"1145.83 1705.83 OFFCURVE",
"1152.67 1733.33 OFFCURVE",
"1156 1762 CURVE",
"1055 1762 LINE",
"1053.67 1750 OFFCURVE",
"1050.5 1738 OFFCURVE",
"1045.5 1726 CURVE SMOOTH",
"1040.5 1714 OFFCURVE",
"1033.83 1703.17 OFFCURVE",
"1025.5 1693.5 CURVE SMOOTH",
"1017.17 1683.83 OFFCURVE",
"1007.33 1676.17 OFFCURVE",
"996 1670.5 CURVE SMOOTH",
"984.667 1664.83 OFFCURVE",
"972 1662 OFFCURVE",
"958 1662 CURVE SMOOTH"
);
}
);
width = 1420;
}
);
leftKerningGroup = B;
rightKerningGroup = H;
unicode = 00D1;
},
{
glyphname = O;
layers = (
{
layerId = "28213FCA-CDAC-4A0A-BF59-EE4F382E99BB";
name = "Regular Italic";
paths = (
{
closed = 1;
nodes = (
"1420 909.333 OFFCURVE",
"1406.83 993.5 OFFCURVE",
"1380.5 1070.5 CURVE SMOOTH",
"1354.17 1147.5 OFFCURVE",
"1316.33 1214 OFFCURVE",
"1267 1270 CURVE SMOOTH",
"1217.67 1326 OFFCURVE",
"1157.83 1369.83 OFFCURVE",
"1087.5 1401.5 CURVE SMOOTH",
"1017.17 1433.17 OFFCURVE",
"938 1449 OFFCURVE",
"850 1449 CURVE SMOOTH",
"742.666 1449 OFFCURVE",
"643.166 1428.33 OFFCURVE",
"551.5 1387 CURVE SMOOTH",
"459.833 1345.67 OFFCURVE",
"380.333 1288 OFFCURVE",
"313 1214 CURVE SMOOTH",
"245.666 1140 OFFCURVE",
"193 1051.83 OFFCURVE",
"155 949.5 CURVE SMOOTH",
"117 847.167 OFFCURVE",
"97.9998 735 OFFCURVE",
"97.9998 613 CURVE SMOOTH",
"97.9998 521.667 OFFCURVE",
"111.166 437.667 OFFCURVE",
"137.5 361 CURVE SMOOTH",
"163.833 284.333 OFFCURVE",
"201.833 218.167 OFFCURVE",
"251.5 162.5 CURVE SMOOTH",
"301.166 106.833 OFFCURVE",
"361.166 63.3334 OFFCURVE",
"431.5 32 CURVE SMOOTH",
"501.833 0.666718 OFFCURVE",
"581 -15 OFFCURVE",
"669 -15 CURVE SMOOTH",
"777 -15 OFFCURVE",
"876.833 5.50005 OFFCURVE",
"968.5 46.5 CURVE SMOOTH",
"1060.17 87.5 OFFCURVE",
"1139.5 144.833 OFFCURVE",
"1206.5 218.5 CURVE SMOOTH",
"1273.5 292.167 OFFCURVE",
"1325.83 380 OFFCURVE",
"1363.5 482 CURVE SMOOTH",
"1401.17 584 OFFCURVE",
"1420 696 OFFCURVE",
"1420 818 CURVE SMOOTH"
);
},
{
closed = 1;
nodes = (
"1228 711.333 OFFCURVE",
"1214.83 618.5 OFFCURVE",
"1188.5 535.5 CURVE SMOOTH",
"1162.17 452.5 OFFCURVE",
"1125.33 381.833 OFFCURVE",
"1078 323.5 CURVE SMOOTH",
"1030.67 265.167 OFFCURVE",
"974 220.333 OFFCURVE",
"908 189 CURVE SMOOTH",
"842 157.667 OFFCURVE",
"769.333 142 OFFCURVE",
"690 142 CURVE SMOOTH",
"628 142 OFFCURVE",
"572.333 153.167 OFFCURVE",
"523 175.5 CURVE SMOOTH",
"473.666 197.833 OFFCURVE",
"431.666 229.667 OFFCURVE",
"397 271 CURVE SMOOTH",
"362.333 312.333 OFFCURVE",
"335.833 362.333 OFFCURVE",
"317.5 421 CURVE SMOOTH",
"299.166 479.667 OFFCURVE",
"290 545.333 OFFCURVE",
"290 618 CURVE SMOOTH",
"290 720.667 OFFCURVE",
"303.166 813.5 OFFCURVE",
"329.5 896.5 CURVE SMOOTH",
"355.833 979.5 OFFCURVE",
"392.833 1050.33 OFFCURVE",
"440.5 1109 CURVE SMOOTH",
"488.166 1167.67 OFFCURVE",
"544.833 1212.83 OFFCURVE",
"610.5 1244.5 CURVE SMOOTH",
"676.166 1276.17 OFFCURVE",
"748.333 1292 OFFCURVE",
"827 1292 CURVE SMOOTH",
"889 1292 OFFCURVE",
"944.833 1280.67 OFFCURVE",
"994.5 1258 CURVE SMOOTH",
"1044.17 1235.33 OFFCURVE",
"1086.17 1203.33 OFFCURVE",
"1120.5 1162 CURVE SMOOTH",
"1154.83 1120.67 OFFCURVE",
"1181.33 1070.5 OFFCURVE",
"1200 1011.5 CURVE SMOOTH",
"1218.67 952.5 OFFCURVE",
"1228 886.667 OFFCURVE",
"1228 814 CURVE SMOOTH"
);
}
);
width = 1491;
}
);
leftKerningGroup = C;
rightKerningGroup = O;
unicode = 004F;
},
{
glyphname = Oacute;
layers = (
{
layerId = "28213FCA-CDAC-4A0A-BF59-EE4F382E99BB";
name = "Regular Italic";
paths = (
{
closed = 1;
nodes = (
"98 0 LINE"
);
},
{
closed = 1;
nodes = (
"1420 909.333 OFFCURVE",
"1406.83 993.5 OFFCURVE",
"1380.5 1070.5 CURVE SMOOTH",
"1354.17 1147.5 OFFCURVE",
"1316.33 1214 OFFCURVE",
"1267 1270 CURVE SMOOTH",
"1217.67 1326 OFFCURVE",
"1157.83 1369.83 OFFCURVE",
"1087.5 1401.5 CURVE SMOOTH",
"1017.17 1433.17 OFFCURVE",
"938 1449 OFFCURVE",
"850 1449 CURVE SMOOTH",
"742.666 1449 OFFCURVE",
"643.166 1428.33 OFFCURVE",
"551.5 1387 CURVE SMOOTH",
"459.833 1345.67 OFFCURVE",
"380.333 1288 OFFCURVE",
"313 1214 CURVE SMOOTH",
"245.666 1140 OFFCURVE",
"193 1051.83 OFFCURVE",
"155 949.5 CURVE SMOOTH",
"117 847.167 OFFCURVE",
"97.9998 735 OFFCURVE",
"97.9998 613 CURVE SMOOTH",
"97.9998 521.667 OFFCURVE",
"111.166 437.667 OFFCURVE",
"137.5 361 CURVE SMOOTH",
"163.833 284.333 OFFCURVE",
"201.833 218.167 OFFCURVE",
"251.5 162.5 CURVE SMOOTH",
"301.166 106.833 OFFCURVE",
"361.166 63.3334 OFFCURVE",
"431.5 32 CURVE SMOOTH",
"501.833 0.666718 OFFCURVE",
"581 -15 OFFCURVE",
"669 -15 CURVE SMOOTH",
"777 -15 OFFCURVE",
"876.833 5.50005 OFFCURVE",
"968.5 46.5 CURVE SMOOTH",
"1060.17 87.5 OFFCURVE",
"1139.5 144.833 OFFCURVE",
"1206.5 218.5 CURVE SMOOTH",
"1273.5 292.167 OFFCURVE",
"1325.83 380 OFFCURVE",
"1363.5 482 CURVE SMOOTH",
"1401.17 584 OFFCURVE",
"1420 696 OFFCURVE",
"1420 818 CURVE SMOOTH"
);
},
{
closed = 1;
nodes = (
"1228 711.333 OFFCURVE",
"1214.83 618.5 OFFCURVE",
"1188.5 535.5 CURVE SMOOTH",
"1162.17 452.5 OFFCURVE",
"1125.33 381.833 OFFCURVE",
"1078 323.5 CURVE SMOOTH",
"1030.67 265.167 OFFCURVE",
"974 220.333 OFFCURVE",
"908 189 CURVE SMOOTH",
"842 157.667 OFFCURVE",
"769.333 142 OFFCURVE",
"690 142 CURVE SMOOTH",
"628 142 OFFCURVE",
"572.333 153.167 OFFCURVE",
"523 175.5 CURVE SMOOTH",
"473.666 197.833 OFFCURVE",
"431.666 229.667 OFFCURVE",
"397 271 CURVE SMOOTH",
"362.333 312.333 OFFCURVE",
"335.833 362.333 OFFCURVE",
"317.5 421 CURVE SMOOTH",
"299.166 479.667 OFFCURVE",
"290 545.333 OFFCURVE",
"290 618 CURVE SMOOTH",
"290 720.667 OFFCURVE",
"303.166 813.5 OFFCURVE",
"329.5 896.5 CURVE SMOOTH",
"355.833 979.5 OFFCURVE",
"392.833 1050.33 OFFCURVE",
"440.5 1109 CURVE SMOOTH",
"488.166 1167.67 OFFCURVE",
"544.833 1212.83 OFFCURVE",
"610.5 1244.5 CURVE SMOOTH",
"676.166 1276.17 OFFCURVE",
"748.333 1292 OFFCURVE",
"827 1292 CURVE SMOOTH",
"889 1292 OFFCURVE",
"944.833 1280.67 OFFCURVE",
"994.5 1258 CURVE SMOOTH",
"1044.17 1235.33 OFFCURVE",
"1086.17 1203.33 OFFCURVE",
"1120.5 1162 CURVE SMOOTH",
"1154.83 1120.67 OFFCURVE",
"1181.33 1070.5 OFFCURVE",
"1200 1011.5 CURVE SMOOTH",
"1218.67 952.5 OFFCURVE",
"1228 886.667 OFFCURVE",
"1228 814 CURVE SMOOTH"
);
},
{
closed = 1;
nodes = (
"1239 1852 LINE",
"1054 1852 LINE SMOOTH",
"1034 1852 OFFCURVE",
"1018.67 1850.33 OFFCURVE",
"1008 1847 CURVE SMOOTH",
"997.333 1843.67 OFFCURVE",
"986 1834.67 OFFCURVE",
"974 1820 CURVE",
"730 1546 LINE",
"846 1546 LINE SMOOTH",
"859.333 1546 OFFCURVE",
"870.166 1547 OFFCURVE",
"878.5 1549 CURVE SMOOTH",
"886.833 1551 OFFCURVE",
"896.666 1556.67 OFFCURVE",
"908 1566 CURVE SMOOTH"
);
}
);
width = 1491;
}
);
leftKerningGroup = C;
rightKerningGroup = O;
unicode = 00D3;
},
{
glyphname = Ocircumflex;
layers = (
{
layerId = "28213FCA-CDAC-4A0A-BF59-EE4F382E99BB";
name = "Regular Italic";
paths = (
{
closed = 1;
nodes = (
"98 0 LINE"
);
},
{
closed = 1;
nodes = (
"1420 909.333 OFFCURVE",
"1406.83 993.5 OFFCURVE",
"1380.5 1070.5 CURVE SMOOTH",
"1354.17 1147.5 OFFCURVE",
"1316.33 1214 OFFCURVE",
"1267 1270 CURVE SMOOTH",
"1217.67 1326 OFFCURVE",
"1157.83 1369.83 OFFCURVE",
"1087.5 1401.5 CURVE SMOOTH",
"1017.17 1433.17 OFFCURVE",
"938 1449 OFFCURVE",
"850 1449 CURVE SMOOTH",
"742.666 1449 OFFCURVE",
"643.166 1428.33 OFFCURVE",
"551.5 1387 CURVE SMOOTH",
"459.833 1345.67 OFFCURVE",
"380.333 1288 OFFCURVE",
"313 1214 CURVE SMOOTH",
"245.666 1140 OFFCURVE",
"193 1051.83 OFFCURVE",
"155 949.5 CURVE SMOOTH",
"117 847.167 OFFCURVE",
"97.9998 735 OFFCURVE",
"97.9998 613 CURVE SMOOTH",
"97.9998 521.667 OFFCURVE",
"111.166 437.667 OFFCURVE",
"137.5 361 CURVE SMOOTH",
"163.833 284.333 OFFCURVE",
"201.833 218.167 OFFCURVE",
"251.5 162.5 CURVE SMOOTH",
"301.166 106.833 OFFCURVE",
"361.166 63.3334 OFFCURVE",
"431.5 32 CURVE SMOOTH",
"501.833 0.666718 OFFCURVE",
"581 -15 OFFCURVE",
"669 -15 CURVE SMOOTH",
"777 -15 OFFCURVE",
"876.833 5.50005 OFFCURVE",
"968.5 46.5 CURVE SMOOTH",
"1060.17 87.5 OFFCURVE",
"1139.5 144.833 OFFCURVE",
"1206.5 218.5 CURVE SMOOTH",
"1273.5 292.167 OFFCURVE",
"1325.83 380 OFFCURVE",
"1363.5 482 CURVE SMOOTH",
"1401.17 584 OFFCURVE",
"1420 696 OFFCURVE",
"1420 818 CURVE SMOOTH"
);
},
{
closed = 1;
nodes = (
"1228 711.333 OFFCURVE",
"1214.83 618.5 OFFCURVE",
"1188.5 535.5 CURVE SMOOTH",
"1162.17 452.5 OFFCURVE",
"1125.33 381.833 OFFCURVE",
"1078 323.5 CURVE SMOOTH",
"1030.67 265.167 OFFCURVE",
"974 220.333 OFFCURVE",
"908 189 CURVE SMOOTH",
"842 157.667 OFFCURVE",
"769.333 142 OFFCURVE",
"690 142 CURVE SMOOTH",
"628 142 OFFCURVE",
"572.333 153.167 OFFCURVE",
"523 175.5 CURVE SMOOTH",
"473.666 197.833 OFFCURVE",
"431.666 229.667 OFFCURVE",
"397 271 CURVE SMOOTH",
"362.333 312.333 OFFCURVE",
"335.833 362.333 OFFCURVE",
"317.5 421 CURVE SMOOTH",
"299.166 479.667 OFFCURVE",
"290 545.333 OFFCURVE",
"290 618 CURVE SMOOTH",
"290 720.667 OFFCURVE",
"303.166 813.5 OFFCURVE",
"329.5 896.5 CURVE SMOOTH",
"355.833 979.5 OFFCURVE",
"392.833 1050.33 OFFCURVE",
"440.5 1109 CURVE SMOOTH",
"488.166 1167.67 OFFCURVE",
"544.833 1212.83 OFFCURVE",
"610.5 1244.5 CURVE SMOOTH",
"676.166 1276.17 OFFCURVE",
"748.333 1292 OFFCURVE",
"827 1292 CURVE SMOOTH",
"889 1292 OFFCURVE",
"944.833 1280.67 OFFCURVE",
"994.5 1258 CURVE SMOOTH",
"1044.17 1235.33 OFFCURVE",
"1086.17 1203.33 OFFCURVE",
"1120.5 1162 CURVE SMOOTH",
"1154.83 1120.67 OFFCURVE",
"1181.33 1070.5 OFFCURVE",
"1200 1011.5 CURVE SMOOTH",
"1218.67 952.5 OFFCURVE",
"1228 886.667 OFFCURVE",
"1228 814 CURVE SMOOTH"
);
},
{
closed = 1;
nodes = (
"1152 1546 LINE",
"963 1817 LINE",
"816 1817 LINE",
"565 1546 LINE",
"681 1546 LINE SMOOTH",
"688.333 1546 OFFCURVE",
"697.166 1547.5 OFFCURVE",
"707.5 1550.5 CURVE SMOOTH",
"717.833 1553.5 OFFCURVE",
"729 1561.67 OFFCURVE",
"741 1575 CURVE SMOOTH",
"865 1716 LINE",
"867 1718.67 OFFCURVE",
"869.166 1721.33 OFFCURVE",
"871.5 1724 CURVE SMOOTH",
"873.833 1726.67 OFFCURVE",
"875.666 1729.33 OFFCURVE",
"877 1732 CURVE",
"886 1716 LINE",
"978 1575 LINE SMOOTH",
"986.666 1561.67 OFFCURVE",
"996 1553.5 OFFCURVE",
"1006 1550.5 CURVE SMOOTH",
"1016 1547.5 OFFCURVE",
"1024.67 1546 OFFCURVE",
"1032 1546 CURVE SMOOTH"
);
}
);
width = 1491;
}
);
leftKerningGroup = C;
rightKerningGroup = O;
unicode = 00D4;
},
{
glyphname = Odieresis;
layers = (
{
layerId = "28213FCA-CDAC-4A0A-BF59-EE4F382E99BB";
name = "Regular Italic";
paths = (
{
closed = 1;
nodes = (
"98 0 LINE"
);
},
{
closed = 1;
nodes = (
"1420 909.333 OFFCURVE",
"1406.83 993.5 OFFCURVE",
"1380.5 1070.5 CURVE SMOOTH",
"1354.17 1147.5 OFFCURVE",
"1316.33 1214 OFFCURVE",
"1267 1270 CURVE SMOOTH",
"1217.67 1326 OFFCURVE",
"1157.83 1369.83 OFFCURVE",
"1087.5 1401.5 CURVE SMOOTH",
"1017.17 1433.17 OFFCURVE",
"938 1449 OFFCURVE",
"850 1449 CURVE SMOOTH",
"742.666 1449 OFFCURVE",
"643.166 1428.33 OFFCURVE",
"551.5 1387 CURVE SMOOTH",
"459.833 1345.67 OFFCURVE",
"380.333 1288 OFFCURVE",
"313 1214 CURVE SMOOTH",
"245.666 1140 OFFCURVE",
"193 1051.83 OFFCURVE",
"155 949.5 CURVE SMOOTH",
"117 847.167 OFFCURVE",
"97.9998 735 OFFCURVE",
"97.9998 613 CURVE SMOOTH",
"97.9998 521.667 OFFCURVE",
"111.166 437.667 OFFCURVE",
"137.5 361 CURVE SMOOTH",
"163.833 284.333 OFFCURVE",
"201.833 218.167 OFFCURVE",
"251.5 162.5 CURVE SMOOTH",
"301.166 106.833 OFFCURVE",
"361.166 63.3334 OFFCURVE",
"431.5 32 CURVE SMOOTH",
"501.833 0.666718 OFFCURVE",
"581 -15 OFFCURVE",
"669 -15 CURVE SMOOTH",
"777 -15 OFFCURVE",
"876.833 5.50005 OFFCURVE",
"968.5 46.5 CURVE SMOOTH",
"1060.17 87.5 OFFCURVE",
"1139.5 144.833 OFFCURVE",
"1206.5 218.5 CURVE SMOOTH",
"1273.5 292.167 OFFCURVE",
"1325.83 380 OFFCURVE",
"1363.5 482 CURVE SMOOTH",
"1401.17 584 OFFCURVE",
"1420 696 OFFCURVE",
"1420 818 CURVE SMOOTH"
);
},
{
closed = 1;
nodes = (
"1228 711.333 OFFCURVE",
"1214.83 618.5 OFFCURVE",
"1188.5 535.5 CURVE SMOOTH",
"1162.17 452.5 OFFCURVE",
"1125.33 381.833 OFFCURVE",
"1078 323.5 CURVE SMOOTH",
"1030.67 265.167 OFFCURVE",
"974 220.333 OFFCURVE",
"908 189 CURVE SMOOTH",
"842 157.667 OFFCURVE",
"769.333 142 OFFCURVE",
"690 142 CURVE SMOOTH",
"628 142 OFFCURVE",
"572.333 153.167 OFFCURVE",
"523 175.5 CURVE SMOOTH",
"473.666 197.833 OFFCURVE",
"431.666 229.667 OFFCURVE",
"397 271 CURVE SMOOTH",
"362.333 312.333 OFFCURVE",
"335.833 362.333 OFFCURVE",
"317.5 421 CURVE SMOOTH",
"299.166 479.667 OFFCURVE",
"290 545.333 OFFCURVE",
"290 618 CURVE SMOOTH",
"290 720.667 OFFCURVE",
"303.166 813.5 OFFCURVE",
"329.5 896.5 CURVE SMOOTH",
"355.833 979.5 OFFCURVE",
"392.833 1050.33 OFFCURVE",
"440.5 1109 CURVE SMOOTH",
"488.166 1167.67 OFFCURVE",
"544.833 1212.83 OFFCURVE",
"610.5 1244.5 CURVE SMOOTH",
"676.166 1276.17 OFFCURVE",
"748.333 1292 OFFCURVE",
"827 1292 CURVE SMOOTH",
"889 1292 OFFCURVE",
"944.833 1280.67 OFFCURVE",
"994.5 1258 CURVE SMOOTH",
"1044.17 1235.33 OFFCURVE",
"1086.17 1203.33 OFFCURVE",
"1120.5 1162 CURVE SMOOTH",
"1154.83 1120.67 OFFCURVE",
"1181.33 1070.5 OFFCURVE",
"1200 1011.5 CURVE SMOOTH",
"1218.67 952.5 OFFCURVE",
"1228 886.667 OFFCURVE",
"1228 814 CURVE SMOOTH"
);
},
{
closed = 1;
nodes = (
"815 1679 OFFCURVE",
"812 1693.83 OFFCURVE",
"806 1707.5 CURVE SMOOTH",
"800 1721.17 OFFCURVE",
"791.666 1733.33 OFFCURVE",
"781 1744 CURVE SMOOTH",
"770.333 1754.67 OFFCURVE",
"758.166 1763 OFFCURVE",
"744.5 1769 CURVE SMOOTH",
"730.833 1775 OFFCURVE",
"716.333 1778 OFFCURVE",
"701 1778 CURVE SMOOTH",
"686.333 1778 OFFCURVE",
"672.333 1775 OFFCURVE",
"659 1769 CURVE SMOOTH",
"645.666 1763 OFFCURVE",
"633.833 1754.67 OFFCURVE",
"623.5 1744 CURVE SMOOTH",
"613.166 1733.33 OFFCURVE",
"605 1721.17 OFFCURVE",
"599 1707.5 CURVE SMOOTH",
"593 1693.83 OFFCURVE",
"590 1679 OFFCURVE",
"590 1663 CURVE SMOOTH",
"590 1647.67 OFFCURVE",
"593 1633.33 OFFCURVE",
"599 1620 CURVE SMOOTH",
"605 1606.67 OFFCURVE",
"613.166 1595 OFFCURVE",
"623.5 1585 CURVE SMOOTH",
"633.833 1575 OFFCURVE",
"645.666 1567.17 OFFCURVE",
"659 1561.5 CURVE SMOOTH",
"672.333 1555.83 OFFCURVE",
"686.333 1553 OFFCURVE",
"701 1553 CURVE SMOOTH",
"716.333 1553 OFFCURVE",
"730.833 1555.83 OFFCURVE",
"744.5 1561.5 CURVE SMOOTH",
"758.166 1567.17 OFFCURVE",
"770.333 1575 OFFCURVE",
"781 1585 CURVE SMOOTH",
"791.666 1595 OFFCURVE",
"800 1606.67 OFFCURVE",
"806 1620 CURVE SMOOTH",
"812 1633.33 OFFCURVE",
"815 1647.67 OFFCURVE",
"815 1663 CURVE SMOOTH"
);
},
{
closed = 1;
nodes = (
"1195 1679 OFFCURVE",
"1192 1693.83 OFFCURVE",
"1186 1707.5 CURVE SMOOTH",
"1180 1721.17 OFFCURVE",
"1171.83 1733.33 OFFCURVE",
"1161.5 1744 CURVE SMOOTH",
"1151.17 1754.67 OFFCURVE",
"1139.17 1763 OFFCURVE",
"1125.5 1769 CURVE SMOOTH",
"1111.83 1775 OFFCURVE",
"1097.33 1778 OFFCURVE",
"1082 1778 CURVE SMOOTH",
"1066.67 1778 OFFCURVE",
"1052.17 1775 OFFCURVE",
"1038.5 1769 CURVE SMOOTH",
"1024.83 1763 OFFCURVE",
"1013 1754.67 OFFCURVE",
"1003 1744 CURVE SMOOTH",
"993 1733.33 OFFCURVE",
"985 1721.17 OFFCURVE",
"979 1707.5 CURVE SMOOTH",
"973 1693.83 OFFCURVE",
"970 1679 OFFCURVE",
"970 1663 CURVE SMOOTH",
"970 1647.67 OFFCURVE",
"973 1633.33 OFFCURVE",
"979 1620 CURVE SMOOTH",
"985 1606.67 OFFCURVE",
"993 1595 OFFCURVE",
"1003 1585 CURVE SMOOTH",
"1013 1575 OFFCURVE",
"1024.83 1567.17 OFFCURVE",
"1038.5 1561.5 CURVE SMOOTH",
"1052.17 1555.83 OFFCURVE",
"1066.67 1553 OFFCURVE",
"1082 1553 CURVE SMOOTH",
"1097.33 1553 OFFCURVE",
"1111.83 1555.83 OFFCURVE",
"1125.5 1561.5 CURVE SMOOTH",
"1139.17 1567.17 OFFCURVE",
"1151.17 1575 OFFCURVE",
"1161.5 1585 CURVE SMOOTH",
"1171.83 1595 OFFCURVE",
"1180 1606.67 OFFCURVE",
"1186 1620 CURVE SMOOTH",
"1192 1633.33 OFFCURVE",
"1195 1647.67 OFFCURVE",
"1195 1663 CURVE SMOOTH"
);
}
);
width = 1491;
}
);
leftKerningGroup = C;
rightKerningGroup = O;
unicode = 00D6;
},
{
glyphname = Ograve;
layers = (
{
layerId = "28213FCA-CDAC-4A0A-BF59-EE4F382E99BB";
name = "Regular Italic";
paths = (
{
closed = 1;
nodes = (
"98 0 LINE"
);
},
{
closed = 1;
nodes = (
"1420 909.333 OFFCURVE",
"1406.83 993.5 OFFCURVE",
"1380.5 1070.5 CURVE SMOOTH",
"1354.17 1147.5 OFFCURVE",
"1316.33 1214 OFFCURVE",
"1267 1270 CURVE SMOOTH",
"1217.67 1326 OFFCURVE",
"1157.83 1369.83 OFFCURVE",
"1087.5 1401.5 CURVE SMOOTH",
"1017.17 1433.17 OFFCURVE",
"938 1449 OFFCURVE",
"850 1449 CURVE SMOOTH",
"742.666 1449 OFFCURVE",
"643.166 1428.33 OFFCURVE",
"551.5 1387 CURVE SMOOTH",
"459.833 1345.67 OFFCURVE",
"380.333 1288 OFFCURVE",
"313 1214 CURVE SMOOTH",
"245.666 1140 OFFCURVE",
"193 1051.83 OFFCURVE",
"155 949.5 CURVE SMOOTH",
"117 847.167 OFFCURVE",
"97.9998 735 OFFCURVE",
"97.9998 613 CURVE SMOOTH",
"97.9998 521.667 OFFCURVE",
"111.166 437.667 OFFCURVE",
"137.5 361 CURVE SMOOTH",
"163.833 284.333 OFFCURVE",
"201.833 218.167 OFFCURVE",
"251.5 162.5 CURVE SMOOTH",
"301.166 106.833 OFFCURVE",
"361.166 63.3334 OFFCURVE",
"431.5 32 CURVE SMOOTH",
"501.833 0.666718 OFFCURVE",
"581 -15 OFFCURVE",
"669 -15 CURVE SMOOTH",
"777 -15 OFFCURVE",
"876.833 5.50005 OFFCURVE",
"968.5 46.5 CURVE SMOOTH",
"1060.17 87.5 OFFCURVE",
"1139.5 144.833 OFFCURVE",
"1206.5 218.5 CURVE SMOOTH",
"1273.5 292.167 OFFCURVE",
"1325.83 380 OFFCURVE",
"1363.5 482 CURVE SMOOTH",
"1401.17 584 OFFCURVE",
"1420 696 OFFCURVE",
"1420 818 CURVE SMOOTH"
);
},
{
closed = 1;
nodes = (
"1228 711.333 OFFCURVE",
"1214.83 618.5 OFFCURVE",
"1188.5 535.5 CURVE SMOOTH",
"1162.17 452.5 OFFCURVE",
"1125.33 381.833 OFFCURVE",
"1078 323.5 CURVE SMOOTH",
"1030.67 265.167 OFFCURVE",
"974 220.333 OFFCURVE",
"908 189 CURVE SMOOTH",
"842 157.667 OFFCURVE",
"769.333 142 OFFCURVE",
"690 142 CURVE SMOOTH",
"628 142 OFFCURVE",
"572.333 153.167 OFFCURVE",
"523 175.5 CURVE SMOOTH",
"473.666 197.833 OFFCURVE",
"431.666 229.667 OFFCURVE",
"397 271 CURVE SMOOTH",
"362.333 312.333 OFFCURVE",
"335.833 362.333 OFFCURVE",
"317.5 421 CURVE SMOOTH",
"299.166 479.667 OFFCURVE",
"290 545.333 OFFCURVE",
"290 618 CURVE SMOOTH",
"290 720.667 OFFCURVE",
"303.166 813.5 OFFCURVE",
"329.5 896.5 CURVE SMOOTH",
"355.833 979.5 OFFCURVE",
"392.833 1050.33 OFFCURVE",
"440.5 1109 CURVE SMOOTH",
"488.166 1167.67 OFFCURVE",
"544.833 1212.83 OFFCURVE",
"610.5 1244.5 CURVE SMOOTH",
"676.166 1276.17 OFFCURVE",
"748.333 1292 OFFCURVE",
"827 1292 CURVE SMOOTH",
"889 1292 OFFCURVE",
"944.833 1280.67 OFFCURVE",
"994.5 1258 CURVE SMOOTH",
"1044.17 1235.33 OFFCURVE",
"1086.17 1203.33 OFFCURVE",
"1120.5 1162 CURVE SMOOTH",
"1154.83 1120.67 OFFCURVE",
"1181.33 1070.5 OFFCURVE",
"1200 1011.5 CURVE SMOOTH",
"1218.67 952.5 OFFCURVE",
"1228 886.667 OFFCURVE",
"1228 814 CURVE SMOOTH"
);
},
{
closed = 1;
nodes = (
"562 1852 LINE",
"817 1565 LINE",
"824.333 1555.67 OFFCURVE",
"831.833 1550.17 OFFCURVE",
"839.5 1548.5 CURVE SMOOTH",
"847.166 1546.83 OFFCURVE",
"857.666 1546 OFFCURVE",
"871 1546 CURVE SMOOTH",
"989 1546 LINE",
"811 1820 LINE SMOOTH",
"801.666 1834.67 OFFCURVE",
"792 1843.67 OFFCURVE",
"782 1847 CURVE SMOOTH",
"772 1850.33 OFFCURVE",
"757 1852 OFFCURVE",
"737 1852 CURVE SMOOTH"
);
}
);
width = 1491;
}
);
leftKerningGroup = C;
rightKerningGroup = O;
unicode = 00D2;
},
{
glyphname = Oslash;
layers = (
{
layerId = "28213FCA-CDAC-4A0A-BF59-EE4F382E99BB";
name = "Regular Italic";
paths = (
{
closed = 1;
nodes = (
"1420 906 OFFCURVE",
"1407.67 987.167 OFFCURVE",
"1383 1061.5 CURVE SMOOTH",
"1358.33 1135.83 OFFCURVE",
"1323 1201 OFFCURVE",
"1277 1257 CURVE",
"1469 1497 LINE",
"1373 1497 LINE SMOOTH",
"1362.33 1497 OFFCURVE",
"1353.33 1496.17 OFFCURVE",
"1346 1494.5 CURVE SMOOTH",
"1338.67 1492.83 OFFCURVE",
"1331.83 1490 OFFCURVE",
"1325.5 1486 CURVE SMOOTH",
"1319.17 1482 OFFCURVE",
"1313 1476.83 OFFCURVE",
"1307 1470.5 CURVE SMOOTH",
"1301 1464.17 OFFCURVE",
"1294.33 1456.67 OFFCURVE",
"1287 1448 CURVE SMOOTH",
"1197 1336 LINE",
"1151 1372 OFFCURVE",
"1099 1399.83 OFFCURVE",
"1041 1419.5 CURVE SMOOTH",
"983 1439.17 OFFCURVE",
"919.333 1449 OFFCURVE",
"850 1449 CURVE SMOOTH",
"742.667 1449 OFFCURVE",
"643.167 1428.33 OFFCURVE",
"551.5 1387 CURVE SMOOTH",
"459.833 1345.67 OFFCURVE",
"380.333 1288 OFFCURVE",
"313 1214 CURVE SMOOTH",
"245.667 1140 OFFCURVE",
"193 1051.83 OFFCURVE",
"155 949.5 CURVE SMOOTH",
"117 847.167 OFFCURVE",
"97.9999 735 OFFCURVE",
"97.9999 613 CURVE SMOOTH",
"97.9999 519.667 OFFCURVE",
"111.667 434.167 OFFCURVE",
"139 356.5 CURVE SMOOTH",
"166.333 278.833 OFFCURVE",
"205.667 212 OFFCURVE",
"257 156 CURVE",
"45.9999 -109 LINE",
"121 -109 LINE SMOOTH",
"139 -109 OFFCURVE",
"157.833 -105 OFFCURVE",
"177.5 -97 CURVE SMOOTH",
"197.167 -88 OFFCURVE",
"215.333 -74 OFFCURVE",
"232 -55 CURVE",
"341 82 LINE",
"385.667 50.6667 OFFCURVE",
"435.333 26.6667 OFFCURVE",
"490 10 CURVE SMOOTH",
"544.667 -7 OFFCURVE",
"604.333 -15 OFFCURVE",
"669 -15 CURVE SMOOTH",
"777 -15 OFFCURVE",
"876.833 5.50005 OFFCURVE",
"968.5 46.5 CURVE SMOOTH",
"1060.17 87.5 OFFCURVE",
"1139.5 144.833 OFFCURVE",
"1206.5 218.5 CURVE SMOOTH",
"1273.5 292.167 OFFCURVE",
"1325.83 380 OFFCURVE",
"1363.5 482 CURVE SMOOTH",
"1401.17 584 OFFCURVE",
"1420 696 OFFCURVE",
"1420 818 CURVE SMOOTH"
);
},
{
closed = 1;
nodes = (
"290 720.667 OFFCURVE",
"303.167 813.5 OFFCURVE",
"329.5 896.5 CURVE SMOOTH",
"355.833 979.5 OFFCURVE",
"392.833 1050.33 OFFCURVE",
"440.5 1109 CURVE SMOOTH",
"488.167 1167.67 OFFCURVE",
"544.833 1212.83 OFFCURVE",
"610.5 1244.5 CURVE SMOOTH",
"676.167 1276.17 OFFCURVE",
"748.333 1292 OFFCURVE",
"827 1292 CURVE SMOOTH",
"879.667 1292 OFFCURVE",
"927.667 1283.83 OFFCURVE",
"971 1267.5 CURVE SMOOTH",
"1014.33 1251.17 OFFCURVE",
"1053 1227.67 OFFCURVE",
"1087 1197 CURVE",
"373 302 LINE",
"345.667 342.667 OFFCURVE",
"325 389.333 OFFCURVE",
"311 442 CURVE SMOOTH",
"297 494.667 OFFCURVE",
"290 553.333 OFFCURVE",
"290 618 CURVE SMOOTH"
);
},
{
closed = 1;
nodes = (
"1228 711.333 OFFCURVE",
"1214.83 618.5 OFFCURVE",
"1188.5 535.5 CURVE SMOOTH",
"1162.17 452.5 OFFCURVE",
"1125.33 381.833 OFFCURVE",
"1078 323.5 CURVE SMOOTH",
"1030.67 265.167 OFFCURVE",
"974 220.333 OFFCURVE",
"908 189 CURVE SMOOTH",
"842 157.667 OFFCURVE",
"769.333 142 OFFCURVE",
"690 142 CURVE SMOOTH",
"642 142 OFFCURVE",
"598 148.5 OFFCURVE",
"558 161.5 CURVE SMOOTH",
"518 174.5 OFFCURVE",
"482 193.667 OFFCURVE",
"450 219 CURVE",
"1158 1107 LINE",
"1180.67 1067.67 OFFCURVE",
"1198 1023.67 OFFCURVE",
"1210 975 CURVE SMOOTH",
"1222 926.333 OFFCURVE",
"1228 872.667 OFFCURVE",
"1228 814 CURVE SMOOTH"
);
}
);
width = 1491;
}
);
leftKerningGroup = C;
rightKerningGroup = O;
unicode = 00D8;
},
{
glyphname = Otilde;
layers = (
{
layerId = "28213FCA-CDAC-4A0A-BF59-EE4F382E99BB";
name = "Regular Italic";
paths = (
{
closed = 1;
nodes = (
"98 0 LINE"
);
},
{
closed = 1;
nodes = (
"1420 909.333 OFFCURVE",
"1406.83 993.5 OFFCURVE",
"1380.5 1070.5 CURVE SMOOTH",
"1354.17 1147.5 OFFCURVE",
"1316.33 1214 OFFCURVE",
"1267 1270 CURVE SMOOTH",
"1217.67 1326 OFFCURVE",
"1157.83 1369.83 OFFCURVE",
"1087.5 1401.5 CURVE SMOOTH",
"1017.17 1433.17 OFFCURVE",
"938 1449 OFFCURVE",
"850 1449 CURVE SMOOTH",
"742.666 1449 OFFCURVE",
"643.166 1428.33 OFFCURVE",
"551.5 1387 CURVE SMOOTH",
"459.833 1345.67 OFFCURVE",
"380.333 1288 OFFCURVE",
"313 1214 CURVE SMOOTH",
"245.666 1140 OFFCURVE",
"193 1051.83 OFFCURVE",
"155 949.5 CURVE SMOOTH",
"117 847.167 OFFCURVE",
"97.9998 735 OFFCURVE",
"97.9998 613 CURVE SMOOTH",
"97.9998 521.667 OFFCURVE",
"111.166 437.667 OFFCURVE",
"137.5 361 CURVE SMOOTH",
"163.833 284.333 OFFCURVE",
"201.833 218.167 OFFCURVE",
"251.5 162.5 CURVE SMOOTH",
"301.166 106.833 OFFCURVE",
"361.166 63.3334 OFFCURVE",
"431.5 32 CURVE SMOOTH",
"501.833 0.666718 OFFCURVE",
"581 -15 OFFCURVE",
"669 -15 CURVE SMOOTH",
"777 -15 OFFCURVE",
"876.833 5.50005 OFFCURVE",
"968.5 46.5 CURVE SMOOTH",
"1060.17 87.5 OFFCURVE",
"1139.5 144.833 OFFCURVE",
"1206.5 218.5 CURVE SMOOTH",
"1273.5 292.167 OFFCURVE",
"1325.83 380 OFFCURVE",
"1363.5 482 CURVE SMOOTH",
"1401.17 584 OFFCURVE",
"1420 696 OFFCURVE",
"1420 818 CURVE SMOOTH"
);
},
{
closed = 1;
nodes = (
"1228 711.333 OFFCURVE",
"1214.83 618.5 OFFCURVE",
"1188.5 535.5 CURVE SMOOTH",
"1162.17 452.5 OFFCURVE",
"1125.33 381.833 OFFCURVE",
"1078 323.5 CURVE SMOOTH",
"1030.67 265.167 OFFCURVE",
"974 220.333 OFFCURVE",
"908 189 CURVE SMOOTH",
"842 157.667 OFFCURVE",
"769.333 142 OFFCURVE",
"690 142 CURVE SMOOTH",
"628 142 OFFCURVE",
"572.333 153.167 OFFCURVE",
"523 175.5 CURVE SMOOTH",
"473.666 197.833 OFFCURVE",
"431.666 229.667 OFFCURVE",
"397 271 CURVE SMOOTH",
"362.333 312.333 OFFCURVE",
"335.833 362.333 OFFCURVE",
"317.5 421 CURVE SMOOTH",
"299.166 479.667 OFFCURVE",
"290 545.333 OFFCURVE",
"290 618 CURVE SMOOTH",
"290 720.667 OFFCURVE",
"303.166 813.5 OFFCURVE",
"329.5 896.5 CURVE SMOOTH",
"355.833 979.5 OFFCURVE",
"392.833 1050.33 OFFCURVE",
"440.5 1109 CURVE SMOOTH",
"488.166 1167.67 OFFCURVE",
"544.833 1212.83 OFFCURVE",
"610.5 1244.5 CURVE SMOOTH",
"676.166 1276.17 OFFCURVE",
"748.333 1292 OFFCURVE",
"827 1292 CURVE SMOOTH",
"889 1292 OFFCURVE",
"944.833 1280.67 OFFCURVE",
"994.5 1258 CURVE SMOOTH",
"1044.17 1235.33 OFFCURVE",
"1086.17 1203.33 OFFCURVE",
"1120.5 1162 CURVE SMOOTH",
"1154.83 1120.67 OFFCURVE",
"1181.33 1070.5 OFFCURVE",
"1200 1011.5 CURVE SMOOTH",
"1218.67 952.5 OFFCURVE",
"1228 886.667 OFFCURVE",
"1228 814 CURVE SMOOTH"
);
},
{
closed = 1;
nodes = (
"968.333 1663 OFFCURVE",
"952.333 1668.5 OFFCURVE",
"937 1679.5 CURVE SMOOTH",
"921.666 1690.5 OFFCURVE",
"905.5 1702.5 OFFCURVE",
"888.5 1715.5 CURVE SMOOTH",
"871.5 1728.5 OFFCURVE",
"852.5 1740.5 OFFCURVE",
"831.5 1751.5 CURVE SMOOTH",
"810.5 1762.5 OFFCURVE",
"786 1768 OFFCURVE",
"758 1768 CURVE SMOOTH",
"731.333 1768 OFFCURVE",
"707 1762 OFFCURVE",
"685 1750 CURVE SMOOTH",
"663 1738 OFFCURVE",
"643.666 1721.83 OFFCURVE",
"627 1701.5 CURVE SMOOTH",
"610.333 1681.17 OFFCURVE",
"596.666 1657.67 OFFCURVE",
"586 1631 CURVE SMOOTH",
"575.333 1604.33 OFFCURVE",
"568.333 1576.67 OFFCURVE",
"565 1548 CURVE",
"668 1548 LINE",
"669.333 1560 OFFCURVE",
"672.5 1572 OFFCURVE",
"677.5 1584 CURVE SMOOTH",
"682.5 1596 OFFCURVE",
"689.166 1606.83 OFFCURVE",
"697.5 1616.5 CURVE SMOOTH",
"705.833 1626.17 OFFCURVE",
"715.666 1634 OFFCURVE",
"727 1640 CURVE SMOOTH",
"738.333 1646 OFFCURVE",
"751 1649 OFFCURVE",
"765 1649 CURVE SMOOTH",
"781.666 1649 OFFCURVE",
"797.666 1643.5 OFFCURVE",
"813 1632.5 CURVE SMOOTH",
"828.333 1621.5 OFFCURVE",
"844.666 1609.5 OFFCURVE",
"862 1596.5 CURVE SMOOTH",
"879.333 1583.5 OFFCURVE",
"898.333 1571.5 OFFCURVE",
"919 1560.5 CURVE SMOOTH",
"939.666 1549.5 OFFCURVE",
"963.666 1544 OFFCURVE",
"991 1544 CURVE SMOOTH",
"1017.67 1544 OFFCURVE",
"1042.17 1550 OFFCURVE",
"1064.5 1562 CURVE SMOOTH",
"1086.83 1574 OFFCURVE",
"1106.17 1590.17 OFFCURVE",
"1122.5 1610.5 CURVE SMOOTH",
"1138.83 1630.83 OFFCURVE",
"1152.17 1654.17 OFFCURVE",
"1162.5 1680.5 CURVE SMOOTH",
"1172.83 1706.83 OFFCURVE",
"1179.67 1734.33 OFFCURVE",
"1183 1763 CURVE",
"1082 1763 LINE",
"1080.67 1751 OFFCURVE",
"1077.5 1739 OFFCURVE",
"1072.5 1727 CURVE SMOOTH",
"1067.5 1715 OFFCURVE",
"1060.83 1704.17 OFFCURVE",
"1052.5 1694.5 CURVE SMOOTH",
"1044.17 1684.83 OFFCURVE",
"1034.33 1677.17 OFFCURVE",
"1023 1671.5 CURVE SMOOTH",
"1011.67 1665.83 OFFCURVE",
"999 1663 OFFCURVE",
"985 1663 CURVE SMOOTH"
);
}
);
width = 1491;
}
);
leftKerningGroup = C;
rightKerningGroup = O;
unicode = 00D5;
},
{
glyphname = OE;
layers = (
{
layerId = "28213FCA-CDAC-4A0A-BF59-EE4F382E99BB";
name = "Regular Italic";
paths = (
{
closed = 1;
nodes = (
"2015 1280 LINE",
"2033 1433 LINE",
"1242 1433 LINE",
"1210 1174 LINE",
"1190 1216 OFFCURVE",
"1166 1254 OFFCURVE",
"1138 1288 CURVE SMOOTH",
"1110 1322 OFFCURVE",
"1078.17 1351 OFFCURVE",
"1042.5 1375 CURVE SMOOTH",
"1006.83 1399 OFFCURVE",
"967.5 1417.33 OFFCURVE",
"924.5 1430 CURVE SMOOTH",
"881.5 1442.67 OFFCURVE",
"835 1449 OFFCURVE",
"785 1449 CURVE SMOOTH",
"687.667 1449 OFFCURVE",
"597.167 1428 OFFCURVE",
"513.5 1386 CURVE SMOOTH",
"429.833 1344 OFFCURVE",
"357.333 1285.5 OFFCURVE",
"296 1210.5 CURVE SMOOTH",
"234.667 1135.5 OFFCURVE",
"186.667 1046.33 OFFCURVE",
"152 943 CURVE SMOOTH",
"117.333 839.667 OFFCURVE",
"100 726.333 OFFCURVE",
"100 603 CURVE SMOOTH",
"100 513 OFFCURVE",
"111.667 430.167 OFFCURVE",
"135 354.5 CURVE SMOOTH",
"158.333 278.833 OFFCURVE",
"191.833 213.833 OFFCURVE",
"235.5 159.5 CURVE SMOOTH",
"279.167 105.167 OFFCURVE",
"332.333 62.6667 OFFCURVE",
"395 32 CURVE SMOOTH",
"457.667 1.33337 OFFCURVE",
"528.333 -14 OFFCURVE",
"607 -14 CURVE SMOOTH",
"707 -14 OFFCURVE",
"798.167 7 OFFCURVE",
"880.5 49 CURVE SMOOTH",
"962.833 91 OFFCURVE",
"1034 150.333 OFFCURVE",
"1094 227 CURVE",
"1066 4.57764 LINE",
"1857 4.57764 LINE",
"1876 152 LINE",
"1251 152 LINE",
"1312 649 LINE",
"1817 649 LINE",
"1834 796 LINE",
"1330 796 LINE",
"1389 1280 LINE"
);
},
{
closed = 1;
nodes = (
"1137 720 OFFCURVE",
"1125 625.833 OFFCURVE",
"1101 541.5 CURVE SMOOTH",
"1077 457.167 OFFCURVE",
"1043.17 385 OFFCURVE",
"999.5 325 CURVE SMOOTH",
"955.833 265 OFFCURVE",
"903.833 218.667 OFFCURVE",
"843.5 186 CURVE SMOOTH",
"783.167 153.333 OFFCURVE",
"716.667 137 OFFCURVE",
"644 137 CURVE SMOOTH",
"588.667 137 OFFCURVE",
"539.167 148.167 OFFCURVE",
"495.5 170.5 CURVE SMOOTH",
"451.833 192.833 OFFCURVE",
"415 224.667 OFFCURVE",
"385 266 CURVE SMOOTH",
"355 307.333 OFFCURVE",
"332 356.833 OFFCURVE",
"316 414.5 CURVE SMOOTH",
"300 472.167 OFFCURVE",
"292 536.667 OFFCURVE",
"292 608 CURVE SMOOTH",
"292 711.333 OFFCURVE",
"304.167 805.333 OFFCURVE",
"328.5 890 CURVE SMOOTH",
"352.833 974.667 OFFCURVE",
"386.833 1047.17 OFFCURVE",
"430.5 1107.5 CURVE SMOOTH",
"474.167 1167.83 OFFCURVE",
"526.333 1214.5 OFFCURVE",
"587 1247.5 CURVE SMOOTH",
"647.667 1280.5 OFFCURVE",
"714.333 1297 OFFCURVE",
"787 1297 CURVE SMOOTH",
"842.333 1297 OFFCURVE",
"891.667 1285.67 OFFCURVE",
"935 1263 CURVE SMOOTH",
"978.333 1240.33 OFFCURVE",
"1015 1208.33 OFFCURVE",
"1045 1167 CURVE SMOOTH",
"1075 1125.67 OFFCURVE",
"1097.83 1075.83 OFFCURVE",
"1113.5 1017.5 CURVE SMOOTH",
"1129.17 959.167 OFFCURVE",
"1137 894.667 OFFCURVE",
"1137 824 CURVE SMOOTH"
);
}
);
width = 2019;
}
);
leftKerningGroup = C;
rightKerningGroup = E;
unicode = 0152;
},
{
glyphname = P;
layers = (
{
layerId = "28213FCA-CDAC-4A0A-BF59-EE4F382E99BB";
name = "Regular Italic";
paths = (
{
closed = 1;
nodes = (
"350 538 LINE",
"558 538 LINE SMOOTH",
"646.667 538 OFFCURVE",
"725.5 550.833 OFFCURVE",
"794.5 576.5 CURVE SMOOTH",
"863.5 602.167 OFFCURVE",
"921.5 637.667 OFFCURVE",
"968.5 683 CURVE SMOOTH",
"1015.5 728.333 OFFCURVE",
"1051.33 782.5 OFFCURVE",
"1076 845.5 CURVE SMOOTH",
"1100.67 908.5 OFFCURVE",
"1113 977.667 OFFCURVE",
"1113 1053 CURVE SMOOTH",
"1113 1110.33 OFFCURVE",
"1104 1162.33 OFFCURVE",
"1086 1209 CURVE SMOOTH",
"1068 1255.67 OFFCURVE",
"1040.83 1295.67 OFFCURVE",
"1004.5 1329 CURVE SMOOTH",
"968.167 1362.33 OFFCURVE",
"922 1388 OFFCURVE",
"866 1406 CURVE SMOOTH",
"810 1424 OFFCURVE",
"744 1433 OFFCURVE",
"668 1433 CURVE SMOOTH",
"273 1433 LINE",
"98 0 LINE",
"284 0 LINE"
);
},
{
closed = 1;
nodes = (
"442 1286 LINE",
"650 1286 LINE SMOOTH",
"696 1286 OFFCURVE",
"736.333 1280.17 OFFCURVE",
"771 1268.5 CURVE SMOOTH",
"805.667 1256.83 OFFCURVE",
"834.333 1240.17 OFFCURVE",
"857 1218.5 CURVE SMOOTH",
"879.667 1196.83 OFFCURVE",
"896.667 1170.67 OFFCURVE",
"908 1140 CURVE SMOOTH",
"919.333 1109.33 OFFCURVE",
"925 1074.67 OFFCURVE",
"925 1036 CURVE SMOOTH",
"925 985.334 OFFCURVE",
"917.333 938.5 OFFCURVE",
"902 895.5 CURVE SMOOTH",
"886.667 852.5 OFFCURVE",
"864.333 815.5 OFFCURVE",
"835 784.5 CURVE SMOOTH",
"805.667 753.5 OFFCURVE",
"769.333 729.334 OFFCURVE",
"726 712 CURVE SMOOTH",
"682.667 694.667 OFFCURVE",
"632.667 686 OFFCURVE",
"576 686 CURVE SMOOTH",
"368 686 LINE"
);
}
);
width = 1124;
}
);
leftKerningGroup = B;
rightKerningGroup = P;
unicode = 0050;
},
{
glyphname = Thorn;
layers = (
{
layerId = "28213FCA-CDAC-4A0A-BF59-EE4F382E99BB";
name = "Regular Italic";
paths = (
{
closed = 1;
nodes = (
"427 1165 LINE",
"460 1433 LINE",
"273 1433 LINE",
"98 0 LINE",
"284 0 LINE",
"317 273 LINE",
"526 273 LINE SMOOTH",
"614.667 273 OFFCURVE",
"693.333 285.667 OFFCURVE",
"762 311 CURVE SMOOTH",
"830.667 336.333 OFFCURVE",
"888.667 371.833 OFFCURVE",
"936 417.5 CURVE SMOOTH",
"983.333 463.167 OFFCURVE",
"1019.33 517.5 OFFCURVE",
"1044 580.5 CURVE SMOOTH",
"1068.67 643.5 OFFCURVE",
"1081 712.667 OFFCURVE",
"1081 788 CURVE SMOOTH",
"1081 844.667 OFFCURVE",
"1072 896.167 OFFCURVE",
"1054 942.5 CURVE SMOOTH",
"1036 988.833 OFFCURVE",
"1008.67 1028.5 OFFCURVE",
"972 1061.5 CURVE SMOOTH",
"935.333 1094.5 OFFCURVE",
"889.167 1120 OFFCURVE",
"833.5 1138 CURVE SMOOTH",
"777.833 1156 OFFCURVE",
"712 1165 OFFCURVE",
"636 1165 CURVE SMOOTH"
);
},
{
closed = 1;
nodes = (
"409 1018 LINE",
"617 1018 LINE SMOOTH",
"710.333 1018 OFFCURVE",
"779.667 996.167 OFFCURVE",
"825 952.5 CURVE SMOOTH",
"870.333 908.833 OFFCURVE",
"893 848.333 OFFCURVE",
"893 771 CURVE SMOOTH",
"893 720.333 OFFCURVE",
"885.333 673.5 OFFCURVE",
"870 630.5 CURVE SMOOTH",
"854.667 587.5 OFFCURVE",
"832.333 550.5 OFFCURVE",
"803 519.5 CURVE SMOOTH",
"773.667 488.5 OFFCURVE",
"737.333 464.333 OFFCURVE",
"694 447 CURVE SMOOTH",
"650.667 429.667 OFFCURVE",
"600.667 421 OFFCURVE",
"544 421 CURVE SMOOTH",
"335 421 LINE"
);
}
);
width = 1121;
}
);
leftKerningGroup = B;
rightKerningGroup = Thorn;
unicode = 00DE;
},
{
glyphname = Q;
lastChange = "2014-08-20 05:13:58 -0500";
layers = (
{
layerId = "28213FCA-CDAC-4A0A-BF59-EE4F382E99BB";
name = "Regular Italic";
paths = (
{
closed = 1;
nodes = (
"1420 909.333 OFFCURVE",
"1406.83 993.5 OFFCURVE",
"1380.5 1070.5 CURVE SMOOTH",
"1354.17 1147.5 OFFCURVE",
"1316.33 1214 OFFCURVE",
"1267 1270 CURVE SMOOTH",
"1217.67 1326 OFFCURVE",
"1157.83 1369.83 OFFCURVE",
"1087.5 1401.5 CURVE SMOOTH",
"1017.17 1433.17 OFFCURVE",
"938 1449 OFFCURVE",
"850 1449 CURVE SMOOTH",
"742.666 1449 OFFCURVE",
"643.166 1428.33 OFFCURVE",
"551.5 1387 CURVE SMOOTH",
"459.833 1345.67 OFFCURVE",
"380.333 1288 OFFCURVE",
"313 1214 CURVE SMOOTH",
"245.666 1140 OFFCURVE",
"193 1051.83 OFFCURVE",
"155 949.5 CURVE SMOOTH",
"117 847.167 OFFCURVE",
"98 735 OFFCURVE",
"98 613 CURVE SMOOTH",
"98 521.667 OFFCURVE",
"111.166 437.667 OFFCURVE",
"137.5 361 CURVE SMOOTH",
"163.833 284.333 OFFCURVE",
"201.833 218.167 OFFCURVE",
"251.5 162.5 CURVE SMOOTH",
"301.166 106.833 OFFCURVE",
"361.166 63.333 OFFCURVE",
"431.5 32 CURVE SMOOTH",
"501.833 0.667 OFFCURVE",
"581 -15 OFFCURVE",
"669 -15 CURVE SMOOTH",
"777 -15 OFFCURVE",
"876.833 5.5 OFFCURVE",
"968.5 46.5 CURVE SMOOTH",
"1060.17 87.5 OFFCURVE",
"1139.5 144.833 OFFCURVE",
"1206.5 218.5 CURVE SMOOTH",
"1273.5 292.167 OFFCURVE",
"1325.83 380 OFFCURVE",
"1363.5 482 CURVE SMOOTH",
"1401.17 584 OFFCURVE",
"1420 696 OFFCURVE",
"1420 818 CURVE SMOOTH"
);
},
{
closed = 1;
nodes = (
"1228 711.333 OFFCURVE",
"1214.83 618.5 OFFCURVE",
"1188.5 535.5 CURVE SMOOTH",
"1162.17 452.5 OFFCURVE",
"1125.33 381.833 OFFCURVE",
"1078 323.5 CURVE SMOOTH",
"1030.67 265.167 OFFCURVE",
"974 220.333 OFFCURVE",
"908 189 CURVE SMOOTH",
"842 157.667 OFFCURVE",
"769.333 142 OFFCURVE",
"690 142 CURVE SMOOTH",
"628 142 OFFCURVE",
"572.333 153.167 OFFCURVE",
"523 175.5 CURVE SMOOTH",
"473.666 197.833 OFFCURVE",
"431.666 229.667 OFFCURVE",
"397 271 CURVE SMOOTH",
"362.333 312.333 OFFCURVE",
"335.833 362.333 OFFCURVE",
"317.5 421 CURVE SMOOTH",
"299.166 479.667 OFFCURVE",
"290 545.333 OFFCURVE",
"290 618 CURVE SMOOTH",
"290 720.667 OFFCURVE",
"303.166 813.5 OFFCURVE",
"329.5 896.5 CURVE SMOOTH",
"355.833 979.5 OFFCURVE",
"392.833 1050.33 OFFCURVE",
"440.5 1109 CURVE SMOOTH",
"488.166 1167.67 OFFCURVE",
"544.833 1212.83 OFFCURVE",
"610.5 1244.5 CURVE SMOOTH",
"676.166 1276.17 OFFCURVE",
"748.333 1292 OFFCURVE",
"827 1292 CURVE SMOOTH",
"889 1292 OFFCURVE",
"944.833 1280.67 OFFCURVE",
"994.5 1258 CURVE SMOOTH",
"1044.17 1235.33 OFFCURVE",
"1086.17 1203.33 OFFCURVE",
"1120.5 1162 CURVE SMOOTH",
"1154.83 1120.67 OFFCURVE",
"1181.33 1070.5 OFFCURVE",
"1200 1011.5 CURVE SMOOTH",
"1218.67 952.5 OFFCURVE",
"1228 886.667 OFFCURVE",
"1228 814 CURVE SMOOTH"
);
},
{
closed = 1;
nodes = (
"1153 -20 LINE",
"1385 -20 LINE",
"963 408 LINE",
"729 404 LINE",
"729 404 LINE"
);
}
);
width = 1491;
}
);
leftKerningGroup = C;
rightKerningGroup = O;
unicode = 0051;
},
{
glyphname = R;
lastChange = "2014-08-20 05:18:22 -0500";
layers = (
{
layerId = "28213FCA-CDAC-4A0A-BF59-EE4F382E99BB";
name = "Regular Italic";
paths = (
{
closed = 1;
nodes = (
"358 601 LINE",
"490 601 LINE SMOOTH",
"514.667 601 OFFCURVE",
"532.667 597.667 OFFCURVE",
"544 591 CURVE SMOOTH",
"555.333 584.333 OFFCURVE",
"565.333 572.667 OFFCURVE",
"574 556 CURVE SMOOTH",
"844 39.9999 LINE",
"856.667 13.3333 OFFCURVE",
"859 8 OFFCURVE",
"884 -6 CURVE",
"1080 -6 LINE",
"771 572 LINE SMOOTH",
"757 597.333 OFFCURVE",
"739.333 617.333 OFFCURVE",
"718 632 CURVE",
"776 645.333 OFFCURVE",
"828 665.833 OFFCURVE",
"874 693.5 CURVE SMOOTH",
"920 721.167 OFFCURVE",
"959.333 754.833 OFFCURVE",
"992 794.5 CURVE SMOOTH",
"1024.67 834.167 OFFCURVE",
"1049.67 879 OFFCURVE",
"1067 929 CURVE SMOOTH",
"1084.33 979 OFFCURVE",
"1093 1033 OFFCURVE",
"1093 1091 CURVE SMOOTH",
"1093 1143 OFFCURVE",
"1084.17 1190.17 OFFCURVE",
"1066.5 1232.5 CURVE SMOOTH",
"1048.83 1274.83 OFFCURVE",
"1021.83 1310.83 OFFCURVE",
"985.5 1340.5 CURVE SMOOTH",
"949.167 1370.17 OFFCURVE",
"903.167 1393 OFFCURVE",
"847.5 1409 CURVE SMOOTH",
"791.833 1425 OFFCURVE",
"726 1433 OFFCURVE",
"650 1433 CURVE SMOOTH",
"273 1433 LINE",
"98 0 LINE",
"284 0 LINE"
);
},
{
closed = 1;
nodes = (
"443 1286 LINE",
"633 1286 LINE SMOOTH",
"724.333 1286 OFFCURVE",
"792.833 1266.83 OFFCURVE",
"838.5 1228.5 CURVE SMOOTH",
"884.167 1190.17 OFFCURVE",
"907 1134.67 OFFCURVE",
"907 1062 CURVE SMOOTH",
"907 1014.67 OFFCURVE",
"899.5 971.167 OFFCURVE",
"884.5 931.5 CURVE SMOOTH",
"869.5 891.833 OFFCURVE",
"847.167 857.5 OFFCURVE",
"817.5 828.5 CURVE SMOOTH",
"787.833 799.5 OFFCURVE",
"751.333 777 OFFCURVE",
"708 761 CURVE SMOOTH",
"664.667 745 OFFCURVE",
"614.667 737 OFFCURVE",
"558 737 CURVE SMOOTH",
"375 737 LINE"
);
}
);
width = 1167;
}
);
leftKerningGroup = B;
rightKerningGroup = R;
unicode = 0052;
},
{
glyphname = S;
layers = (
{
layerId = "28213FCA-CDAC-4A0A-BF59-EE4F382E99BB";
name = "Regular Italic";
paths = (
{
closed = 1;
nodes = (
"982 1290 LINE",
"944 1338.67 OFFCURVE",
"895.667 1377 OFFCURVE",
"837 1405 CURVE SMOOTH",
"778.333 1433 OFFCURVE",
"712.333 1447 OFFCURVE",
"639 1447 CURVE SMOOTH",
"567 1447 OFFCURVE",
"502.167 1434.67 OFFCURVE",
"444.5 1410 CURVE SMOOTH",
"386.833 1385.33 OFFCURVE",
"338 1352.33 OFFCURVE",
"298 1311 CURVE SMOOTH",
"258 1269.67 OFFCURVE",
"227.333 1222 OFFCURVE",
"206 1168 CURVE SMOOTH",
"184.667 1114 OFFCURVE",
"174 1057.67 OFFCURVE",
"174 999 CURVE SMOOTH",
"174 946.333 OFFCURVE",
"182 902 OFFCURVE",
"198 866 CURVE SMOOTH",
"214 830 OFFCURVE",
"235 799.667 OFFCURVE",
"261 775 CURVE SMOOTH",
"287 750.333 OFFCURVE",
"316.667 730 OFFCURVE",
"350 714 CURVE SMOOTH",
"383.333 698 OFFCURVE",
"417.333 683.667 OFFCURVE",
"452 671 CURVE SMOOTH",
"486.667 658.333 OFFCURVE",
"520.667 645.833 OFFCURVE",
"554 633.5 CURVE SMOOTH",
"587.333 621.167 OFFCURVE",
"617 606.667 OFFCURVE",
"643 590 CURVE SMOOTH",
"669 573.333 OFFCURVE",
"690 552.833 OFFCURVE",
"706 528.5 CURVE SMOOTH",
"722 504.167 OFFCURVE",
"730 473.667 OFFCURVE",
"730 437 CURVE SMOOTH",
"730 393 OFFCURVE",
"723 352.833 OFFCURVE",
"709 316.5 CURVE SMOOTH",
"695 280.167 OFFCURVE",
"675.167 249 OFFCURVE",
"649.5 223 CURVE SMOOTH",
"623.833 197 OFFCURVE",
"592.5 176.667 OFFCURVE",
"555.5 162 CURVE SMOOTH",
"518.5 147.333 OFFCURVE",
"477 140 OFFCURVE",
"431 140 CURVE SMOOTH",
"381 140 OFFCURVE",
"339.333 147.5 OFFCURVE",
"306 162.5 CURVE SMOOTH",
"272.667 177.5 OFFCURVE",
"244.667 194.167 OFFCURVE",
"222 212.5 CURVE SMOOTH",
"199.333 230.833 OFFCURVE",
"180.667 247.5 OFFCURVE",
"166 262.5 CURVE SMOOTH",
"151.333 277.5 OFFCURVE",
"137.667 285 OFFCURVE",
"125 285 CURVE SMOOTH",
"115.667 285 OFFCURVE",
"107 282.667 OFFCURVE",
"99 278 CURVE SMOOTH",
"91 273.333 OFFCURVE",
"84.3333 267.333 OFFCURVE",
"79 260 CURVE SMOOTH",
"13 171 LINE",
"56.3333 113.667 OFFCURVE",
"111.5 68.1666 OFFCURVE",
"178.5 34.4999 CURVE SMOOTH",
"245.5 0.833267 OFFCURVE",
"321.667 -16 OFFCURVE",
"407 -16 CURVE SMOOTH",
"484.333 -16 OFFCURVE",
"554 -3 OFFCURVE",
"616 23.9999 CURVE SMOOTH",
"678 50.6666 OFFCURVE",
"730.833 86.6666 OFFCURVE",
"774.5 132 CURVE SMOOTH",
"818.167 177.333 OFFCURVE",
"851.667 230.167 OFFCURVE",
"875 290.5 CURVE SMOOTH",
"898.333 350.833 OFFCURVE",
"910 415 OFFCURVE",
"910 483 CURVE SMOOTH",
"910 532.333 OFFCURVE",
"902 574.333 OFFCURVE",
"886 609 CURVE SMOOTH",
"870 643.667 OFFCURVE",
"849 673.333 OFFCURVE",
"823 698 CURVE SMOOTH",
"797 722.667 OFFCURVE",
"767.167 743.333 OFFCURVE",
"733.5 760 CURVE SMOOTH",
"699.833 776.667 OFFCURVE",
"665.667 791.833 OFFCURVE",
"631 805.5 CURVE SMOOTH",
"596.333 819.167 OFFCURVE",
"562.167 832.5 OFFCURVE",
"528.5 845.5 CURVE SMOOTH",
"494.833 858.5 OFFCURVE",
"465 873.5 OFFCURVE",
"439 890.5 CURVE SMOOTH",
"413 907.5 OFFCURVE",
"392 927.833 OFFCURVE",
"376 951.5 CURVE SMOOTH",
"360 975.167 OFFCURVE",
"352 1004.33 OFFCURVE",
"352 1039 CURVE SMOOTH",
"352 1074.33 OFFCURVE",
"358 1107.33 OFFCURVE",
"370 1138 CURVE SMOOTH",
"382 1168.67 OFFCURVE",
"399.5 1195.5 OFFCURVE",
"422.5 1218.5 CURVE SMOOTH",
"445.5 1241.5 OFFCURVE",
"473.667 1259.67 OFFCURVE",
"507 1273 CURVE SMOOTH",
"540.333 1286.33 OFFCURVE",
"578.333 1293 OFFCURVE",
"621 1293 CURVE SMOOTH",
"663 1293 OFFCURVE",
"698 1287.17 OFFCURVE",
"726 1275.5 CURVE SMOOTH",
"754 1263.83 OFFCURVE",
"777.833 1251.17 OFFCURVE",
"797.5 1237.5 CURVE SMOOTH",
"817.167 1223.83 OFFCURVE",
"833.333 1211.17 OFFCURVE",
"846 1199.5 CURVE SMOOTH",
"858.667 1187.83 OFFCURVE",
"870.667 1182 OFFCURVE",
"882 1182 CURVE SMOOTH",
"891.333 1182 OFFCURVE",
"899.333 1184.5 OFFCURVE",
"906 1189.5 CURVE SMOOTH",
"912.667 1194.5 OFFCURVE",
"919.667 1201.67 OFFCURVE",
"927 1211 CURVE"
);
}
);
width = 1016;
}
);
leftKerningGroup = S;
rightKerningGroup = S;
unicode = 0053;
},
{
glyphname = T;
layers = (
{
layerId = "28213FCA-CDAC-4A0A-BF59-EE4F382E99BB";
name = "Regular Italic";
paths = (
{
closed = 1;
nodes = (
"1163 1433 LINE",
"128 1433 LINE",
"110 1276 LINE",
"534 1276 LINE",
"378 0 LINE",
"564 0 LINE",
"721 1276 LINE",
"1144 1276 LINE"
);
}
);
width = 1092;
}
);
leftKerningGroup = T;
rightKerningGroup = T;
unicode = 0054;
},
{
glyphname = U;
layers = (
{
layerId = "28213FCA-CDAC-4A0A-BF59-EE4F382E99BB";
name = "Regular Italic";
paths = (
{
closed = 1;
nodes = (
"574 147 OFFCURVE",
"527.167 157.333 OFFCURVE",
"487.5 178 CURVE SMOOTH",
"447.833 198.667 OFFCURVE",
"415.667 227.333 OFFCURVE",
"391 264 CURVE SMOOTH",
"366.333 300.667 OFFCURVE",
"349.333 344.333 OFFCURVE",
"340 395 CURVE SMOOTH",
"330.667 445.667 OFFCURVE",
"329.667 501 OFFCURVE",
"337 561 CURVE SMOOTH",
"444 1433 LINE",
"257 1433 LINE",
"151 560 LINE SMOOTH",
"141 478 OFFCURVE",
"143.833 401.833 OFFCURVE",
"159.5 331.5 CURVE SMOOTH",
"175.167 261.167 OFFCURVE",
"202.667 200.167 OFFCURVE",
"242 148.5 CURVE SMOOTH",
"281.333 96.8333 OFFCURVE",
"331.833 56.3333 OFFCURVE",
"393.5 27 CURVE SMOOTH",
"455.167 -2 OFFCURVE",
"526.667 -17 OFFCURVE",
"608 -17 CURVE SMOOTH",
"690 -17 OFFCURVE",
"765.333 -2 OFFCURVE",
"834 27 CURVE SMOOTH",
"902.667 56.3333 OFFCURVE",
"963 96.8333 OFFCURVE",
"1015 148.5 CURVE SMOOTH",
"1067 200.167 OFFCURVE",
"1109.67 261.167 OFFCURVE",
"1143 331.5 CURVE SMOOTH",
"1176.33 401.833 OFFCURVE",
"1198 478 OFFCURVE",
"1208 560 CURVE SMOOTH",
"1315 1433 LINE",
"1128 1433 LINE",
"1021 560 LINE SMOOTH",
"1013.67 500 OFFCURVE",
"999.167 444.667 OFFCURVE",
"977.5 394 CURVE SMOOTH",
"955.833 343.333 OFFCURVE",
"928 299.833 OFFCURVE",
"894 263.5 CURVE SMOOTH",
"860 227.167 OFFCURVE",
"820.667 198.667 OFFCURVE",
"776 178 CURVE SMOOTH",
"731.333 157.333 OFFCURVE",
"682 147 OFFCURVE",
"628 147 CURVE SMOOTH"
);
}
);
width = 1370;
}
);
leftKerningGroup = U;
rightKerningGroup = U;
unicode = 0055;
},
{
glyphname = Uacute;
layers = (
{
layerId = "28213FCA-CDAC-4A0A-BF59-EE4F382E99BB";
name = "Regular Italic";
paths = (
{
closed = 1;
nodes = (
"136 0 LINE"
);
},
{
closed = 1;
nodes = (
"574 147 OFFCURVE",
"527.167 157.333 OFFCURVE",
"487.5 178 CURVE SMOOTH",
"447.833 198.667 OFFCURVE",
"415.667 227.333 OFFCURVE",
"391 264 CURVE SMOOTH",
"366.333 300.667 OFFCURVE",
"349.333 344.333 OFFCURVE",
"340 395 CURVE SMOOTH",
"330.667 445.667 OFFCURVE",
"329.667 501 OFFCURVE",
"337 561 CURVE SMOOTH",
"444 1433 LINE",
"257 1433 LINE",
"151 560 LINE SMOOTH",
"141 478 OFFCURVE",
"143.833 401.833 OFFCURVE",
"159.5 331.5 CURVE SMOOTH",
"175.167 261.167 OFFCURVE",
"202.667 200.167 OFFCURVE",
"242 148.5 CURVE SMOOTH",
"281.333 96.8333 OFFCURVE",
"331.833 56.3333 OFFCURVE",
"393.5 27 CURVE SMOOTH",
"455.167 -2 OFFCURVE",
"526.667 -17 OFFCURVE",
"608 -17 CURVE SMOOTH",
"690 -17 OFFCURVE",
"765.333 -2 OFFCURVE",
"834 27 CURVE SMOOTH",
"902.667 56.3333 OFFCURVE",
"963 96.8333 OFFCURVE",
"1015 148.5 CURVE SMOOTH",
"1067 200.167 OFFCURVE",
"1109.67 261.167 OFFCURVE",
"1143 331.5 CURVE SMOOTH",
"1176.33 401.833 OFFCURVE",
"1198 478 OFFCURVE",
"1208 560 CURVE SMOOTH",
"1315 1433 LINE",
"1128 1433 LINE",
"1021 560 LINE SMOOTH",
"1013.67 500 OFFCURVE",
"999.167 444.667 OFFCURVE",
"977.5 394 CURVE SMOOTH",
"955.833 343.333 OFFCURVE",
"928 299.833 OFFCURVE",
"894 263.5 CURVE SMOOTH",
"860 227.167 OFFCURVE",
"820.667 198.667 OFFCURVE",
"776 178 CURVE SMOOTH",
"731.333 157.333 OFFCURVE",
"682 147 OFFCURVE",
"628 147 CURVE SMOOTH"
);
},
{
closed = 1;
nodes = (
"1179 1852 LINE",
"994 1852 LINE SMOOTH",
"974 1852 OFFCURVE",
"958.667 1850.33 OFFCURVE",
"948 1847 CURVE SMOOTH",
"937.333 1843.67 OFFCURVE",
"926 1834.67 OFFCURVE",
"914 1820 CURVE",
"670 1546 LINE",
"786 1546 LINE SMOOTH",
"799.333 1546 OFFCURVE",
"810.167 1547 OFFCURVE",
"818.5 1549 CURVE SMOOTH",
"826.833 1551 OFFCURVE",
"836.667 1556.67 OFFCURVE",
"848 1566 CURVE SMOOTH"
);
}
);
width = 1370;
}
);
leftKerningGroup = U;
rightKerningGroup = U;
unicode = 00DA;
},
{
glyphname = Ucircumflex;
layers = (
{
layerId = "28213FCA-CDAC-4A0A-BF59-EE4F382E99BB";
name = "Regular Italic";
paths = (
{
closed = 1;
nodes = (
"136 0 LINE"
);
},
{
closed = 1;
nodes = (
"574 147 OFFCURVE",
"527.167 157.333 OFFCURVE",
"487.5 178 CURVE SMOOTH",
"447.833 198.667 OFFCURVE",
"415.667 227.333 OFFCURVE",
"391 264 CURVE SMOOTH",
"366.333 300.667 OFFCURVE",
"349.333 344.333 OFFCURVE",
"340 395 CURVE SMOOTH",
"330.667 445.667 OFFCURVE",
"329.667 501 OFFCURVE",
"337 561 CURVE SMOOTH",
"444 1433 LINE",
"257 1433 LINE",
"151 560 LINE SMOOTH",
"141 478 OFFCURVE",
"143.833 401.833 OFFCURVE",
"159.5 331.5 CURVE SMOOTH",
"175.167 261.167 OFFCURVE",
"202.667 200.167 OFFCURVE",
"242 148.5 CURVE SMOOTH",
"281.333 96.8333 OFFCURVE",
"331.833 56.3333 OFFCURVE",
"393.5 27 CURVE SMOOTH",
"455.167 -2 OFFCURVE",
"526.667 -17 OFFCURVE",
"608 -17 CURVE SMOOTH",
"690 -17 OFFCURVE",
"765.333 -2 OFFCURVE",
"834 27 CURVE SMOOTH",
"902.667 56.3333 OFFCURVE",
"963 96.8333 OFFCURVE",
"1015 148.5 CURVE SMOOTH",
"1067 200.167 OFFCURVE",
"1109.67 261.167 OFFCURVE",
"1143 331.5 CURVE SMOOTH",
"1176.33 401.833 OFFCURVE",
"1198 478 OFFCURVE",
"1208 560 CURVE SMOOTH",
"1315 1433 LINE",
"1128 1433 LINE",
"1021 560 LINE SMOOTH",
"1013.67 500 OFFCURVE",
"999.167 444.667 OFFCURVE",
"977.5 394 CURVE SMOOTH",
"955.833 343.333 OFFCURVE",
"928 299.833 OFFCURVE",
"894 263.5 CURVE SMOOTH",
"860 227.167 OFFCURVE",
"820.667 198.667 OFFCURVE",
"776 178 CURVE SMOOTH",
"731.333 157.333 OFFCURVE",
"682 147 OFFCURVE",
"628 147 CURVE SMOOTH"
);
},
{
closed = 1;
nodes = (
"1097 1546 LINE",
"908 1817 LINE",
"761 1817 LINE",
"510 1546 LINE",
"626 1546 LINE SMOOTH",
"633.333 1546 OFFCURVE",
"642.167 1547.5 OFFCURVE",
"652.5 1550.5 CURVE SMOOTH",
"662.833 1553.5 OFFCURVE",
"674 1561.67 OFFCURVE",
"686 1575 CURVE SMOOTH",
"810 1716 LINE",
"812 1718.67 OFFCURVE",
"814.167 1721.33 OFFCURVE",
"816.5 1724 CURVE SMOOTH",
"818.833 1726.67 OFFCURVE",
"820.667 1729.33 OFFCURVE",
"822 1732 CURVE",
"831 1716 LINE",
"923 1575 LINE SMOOTH",
"931.667 1561.67 OFFCURVE",
"941 1553.5 OFFCURVE",
"951 1550.5 CURVE SMOOTH",
"961 1547.5 OFFCURVE",
"969.667 1546 OFFCURVE",
"977 1546 CURVE SMOOTH"
);
}
);
width = 1370;
}
);
leftKerningGroup = U;
rightKerningGroup = U;
unicode = 00DB;
},
{
glyphname = Udieresis;
layers = (
{
layerId = "28213FCA-CDAC-4A0A-BF59-EE4F382E99BB";
name = "Regular Italic";
paths = (
{
closed = 1;
nodes = (
"136 0 LINE"
);
},
{
closed = 1;
nodes = (
"574 147 OFFCURVE",
"527.167 157.333 OFFCURVE",
"487.5 178 CURVE SMOOTH",
"447.833 198.667 OFFCURVE",
"415.667 227.333 OFFCURVE",
"391 264 CURVE SMOOTH",
"366.333 300.667 OFFCURVE",
"349.333 344.333 OFFCURVE",
"340 395 CURVE SMOOTH",
"330.667 445.667 OFFCURVE",
"329.667 501 OFFCURVE",
"337 561 CURVE SMOOTH",
"444 1433 LINE",
"257 1433 LINE",
"151 560 LINE SMOOTH",
"141 478 OFFCURVE",
"143.833 401.833 OFFCURVE",
"159.5 331.5 CURVE SMOOTH",
"175.167 261.167 OFFCURVE",
"202.667 200.167 OFFCURVE",
"242 148.5 CURVE SMOOTH",
"281.333 96.8333 OFFCURVE",
"331.833 56.3333 OFFCURVE",
"393.5 27 CURVE SMOOTH",
"455.167 -2 OFFCURVE",
"526.667 -17 OFFCURVE",
"608 -17 CURVE SMOOTH",
"690 -17 OFFCURVE",
"765.333 -2 OFFCURVE",
"834 27 CURVE SMOOTH",
"902.667 56.3333 OFFCURVE",
"963 96.8333 OFFCURVE",
"1015 148.5 CURVE SMOOTH",
"1067 200.167 OFFCURVE",
"1109.67 261.167 OFFCURVE",
"1143 331.5 CURVE SMOOTH",
"1176.33 401.833 OFFCURVE",
"1198 478 OFFCURVE",
"1208 560 CURVE SMOOTH",
"1315 1433 LINE",
"1128 1433 LINE",
"1021 560 LINE SMOOTH",
"1013.67 500 OFFCURVE",
"999.167 444.667 OFFCURVE",
"977.5 394 CURVE SMOOTH",
"955.833 343.333 OFFCURVE",
"928 299.833 OFFCURVE",
"894 263.5 CURVE SMOOTH",
"860 227.167 OFFCURVE",
"820.667 198.667 OFFCURVE",
"776 178 CURVE SMOOTH",
"731.333 157.333 OFFCURVE",
"682 147 OFFCURVE",
"628 147 CURVE SMOOTH"
);
},
{
closed = 1;
nodes = (
"745 1679 OFFCURVE",
"742 1693.83 OFFCURVE",
"736 1707.5 CURVE SMOOTH",
"730 1721.17 OFFCURVE",
"721.667 1733.33 OFFCURVE",
"711 1744 CURVE SMOOTH",
"700.333 1754.67 OFFCURVE",
"688.167 1763 OFFCURVE",
"674.5 1769 CURVE SMOOTH",
"660.833 1775 OFFCURVE",
"646.333 1778 OFFCURVE",
"631 1778 CURVE SMOOTH",
"616.333 1778 OFFCURVE",
"602.333 1775 OFFCURVE",
"589 1769 CURVE SMOOTH",
"575.667 1763 OFFCURVE",
"563.833 1754.67 OFFCURVE",
"553.5 1744 CURVE SMOOTH",
"543.167 1733.33 OFFCURVE",
"535 1721.17 OFFCURVE",
"529 1707.5 CURVE SMOOTH",
"523 1693.83 OFFCURVE",
"520 1679 OFFCURVE",
"520 1663 CURVE SMOOTH",
"520 1647.67 OFFCURVE",
"523 1633.33 OFFCURVE",
"529 1620 CURVE SMOOTH",
"535 1606.67 OFFCURVE",
"543.167 1595 OFFCURVE",
"553.5 1585 CURVE SMOOTH",
"563.833 1575 OFFCURVE",
"575.667 1567.17 OFFCURVE",
"589 1561.5 CURVE SMOOTH",
"602.333 1555.83 OFFCURVE",
"616.333 1553 OFFCURVE",
"631 1553 CURVE SMOOTH",
"646.333 1553 OFFCURVE",
"660.833 1555.83 OFFCURVE",
"674.5 1561.5 CURVE SMOOTH",
"688.167 1567.17 OFFCURVE",
"700.333 1575 OFFCURVE",
"711 1585 CURVE SMOOTH",
"721.667 1595 OFFCURVE",
"730 1606.67 OFFCURVE",
"736 1620 CURVE SMOOTH",
"742 1633.33 OFFCURVE",
"745 1647.67 OFFCURVE",
"745 1663 CURVE SMOOTH"
);
},
{
closed = 1;
nodes = (
"1125 1679 OFFCURVE",
"1122 1693.83 OFFCURVE",
"1116 1707.5 CURVE SMOOTH",
"1110 1721.17 OFFCURVE",
"1101.83 1733.33 OFFCURVE",
"1091.5 1744 CURVE SMOOTH",
"1081.17 1754.67 OFFCURVE",
"1069.17 1763 OFFCURVE",
"1055.5 1769 CURVE SMOOTH",
"1041.83 1775 OFFCURVE",
"1027.33 1778 OFFCURVE",
"1012 1778 CURVE SMOOTH",
"996.667 1778 OFFCURVE",
"982.167 1775 OFFCURVE",
"968.5 1769 CURVE SMOOTH",
"954.833 1763 OFFCURVE",
"943 1754.67 OFFCURVE",
"933 1744 CURVE SMOOTH",
"923 1733.33 OFFCURVE",
"915 1721.17 OFFCURVE",
"909 1707.5 CURVE SMOOTH",
"903 1693.83 OFFCURVE",
"900 1679 OFFCURVE",
"900 1663 CURVE SMOOTH",
"900 1647.67 OFFCURVE",
"903 1633.33 OFFCURVE",
"909 1620 CURVE SMOOTH",
"915 1606.67 OFFCURVE",
"923 1595 OFFCURVE",
"933 1585 CURVE SMOOTH",
"943 1575 OFFCURVE",
"954.833 1567.17 OFFCURVE",
"968.5 1561.5 CURVE SMOOTH",
"982.167 1555.83 OFFCURVE",
"996.667 1553 OFFCURVE",
"1012 1553 CURVE SMOOTH",
"1027.33 1553 OFFCURVE",
"1041.83 1555.83 OFFCURVE",
"1055.5 1561.5 CURVE SMOOTH",
"1069.17 1567.17 OFFCURVE",
"1081.17 1575 OFFCURVE",
"1091.5 1585 CURVE SMOOTH",
"1101.83 1595 OFFCURVE",
"1110 1606.67 OFFCURVE",
"1116 1620 CURVE SMOOTH",
"1122 1633.33 OFFCURVE",
"1125 1647.67 OFFCURVE",
"1125 1663 CURVE SMOOTH"
);
}
);
width = 1370;
}
);
leftKerningGroup = U;
rightKerningGroup = U;
unicode = 00DC;
},
{
glyphname = Ugrave;
layers = (
{
layerId = "28213FCA-CDAC-4A0A-BF59-EE4F382E99BB";
name = "Regular Italic";
paths = (
{
closed = 1;
nodes = (
"136 0 LINE"
);
},
{
closed = 1;
nodes = (
"574 147 OFFCURVE",
"527.167 157.333 OFFCURVE",
"487.5 178 CURVE SMOOTH",
"447.833 198.667 OFFCURVE",
"415.667 227.333 OFFCURVE",
"391 264 CURVE SMOOTH",
"366.333 300.667 OFFCURVE",
"349.333 344.333 OFFCURVE",
"340 395 CURVE SMOOTH",
"330.667 445.667 OFFCURVE",
"329.667 501 OFFCURVE",
"337 561 CURVE SMOOTH",
"444 1433 LINE",
"257 1433 LINE",
"151 560 LINE SMOOTH",
"141 478 OFFCURVE",
"143.833 401.833 OFFCURVE",
"159.5 331.5 CURVE SMOOTH",
"175.167 261.167 OFFCURVE",
"202.667 200.167 OFFCURVE",
"242 148.5 CURVE SMOOTH",
"281.333 96.8333 OFFCURVE",
"331.833 56.3333 OFFCURVE",
"393.5 27 CURVE SMOOTH",
"455.167 -2 OFFCURVE",
"526.667 -17 OFFCURVE",
"608 -17 CURVE SMOOTH",
"690 -17 OFFCURVE",
"765.333 -2 OFFCURVE",
"834 27 CURVE SMOOTH",
"902.667 56.3333 OFFCURVE",
"963 96.8333 OFFCURVE",
"1015 148.5 CURVE SMOOTH",
"1067 200.167 OFFCURVE",
"1109.67 261.167 OFFCURVE",
"1143 331.5 CURVE SMOOTH",
"1176.33 401.833 OFFCURVE",
"1198 478 OFFCURVE",
"1208 560 CURVE SMOOTH",
"1315 1433 LINE",
"1128 1433 LINE",
"1021 560 LINE SMOOTH",
"1013.67 500 OFFCURVE",
"999.167 444.667 OFFCURVE",
"977.5 394 CURVE SMOOTH",
"955.833 343.333 OFFCURVE",
"928 299.833 OFFCURVE",
"894 263.5 CURVE SMOOTH",
"860 227.167 OFFCURVE",
"820.667 198.667 OFFCURVE",
"776 178 CURVE SMOOTH",
"731.333 157.333 OFFCURVE",
"682 147 OFFCURVE",
"628 147 CURVE SMOOTH"
);
},
{
closed = 1;
nodes = (
"484 1852 LINE",
"739 1565 LINE",
"746.333 1555.67 OFFCURVE",
"753.833 1550.17 OFFCURVE",
"761.5 1548.5 CURVE SMOOTH",
"769.167 1546.83 OFFCURVE",
"779.667 1546 OFFCURVE",
"793 1546 CURVE SMOOTH",
"911 1546 LINE",
"733 1820 LINE SMOOTH",
"723.667 1834.67 OFFCURVE",
"714 1843.67 OFFCURVE",
"704 1847 CURVE SMOOTH",
"694 1850.33 OFFCURVE",
"679 1852 OFFCURVE",
"659 1852 CURVE SMOOTH"
);
}
);
width = 1370;
}
);
leftKerningGroup = U;
rightKerningGroup = U;
unicode = 00D9;
},
{
glyphname = V;
layers = (
{
layerId = "28213FCA-CDAC-4A0A-BF59-EE4F382E99BB";
name = "Regular Italic";
paths = (
{
closed = 1;
nodes = (
"109 1433 LINE",
"471 0 LINE",
"640 0 LINE",
"1352 1433 LINE",
"1202 1433 LINE SMOOTH",
"1186 1433 OFFCURVE",
"1171.83 1428.33 OFFCURVE",
"1159.5 1419 CURVE SMOOTH",
"1147.17 1409.67 OFFCURVE",
"1138.33 1399.33 OFFCURVE",
"1133 1388 CURVE SMOOTH",
"644 364 LINE",
"632.667 342.667 OFFCURVE",
"622 319.167 OFFCURVE",
"612 293.5 CURVE SMOOTH",
"602 267.833 OFFCURVE",
"592.333 241 OFFCURVE",
"583 213 CURVE",
"579.667 241 OFFCURVE",
"575.667 267.833 OFFCURVE",
"571 293.5 CURVE SMOOTH",
"566.333 319.167 OFFCURVE",
"561.333 342.667 OFFCURVE",
"556 364 CURVE SMOOTH",
"316 1388 LINE",
"314 1400.67 OFFCURVE",
"308.167 1411.33 OFFCURVE",
"298.5 1420 CURVE SMOOTH",
"288.833 1428.67 OFFCURVE",
"275.667 1433 OFFCURVE",
"259 1433 CURVE SMOOTH"
);
}
);
width = 1259;
}
);
leftKerningGroup = V;
rightKerningGroup = V;
unicode = 0056;
},
{
glyphname = W;
layers = (
{
layerId = "28213FCA-CDAC-4A0A-BF59-EE4F382E99BB";
name = "Regular Italic";
paths = (
{
closed = 1;
nodes = (
"125 1433 LINE",
"361 0 LINE",
"529 0 LINE",
"995 1103 LINE",
"999 1113.67 OFFCURVE",
"1003.17 1125.17 OFFCURVE",
"1007.5 1137.5 CURVE SMOOTH",
"1011.83 1149.83 OFFCURVE",
"1016.33 1162.67 OFFCURVE",
"1021 1176 CURVE",
"1022.33 1162.67 OFFCURVE",
"1023.83 1149.83 OFFCURVE",
"1025.5 1137.5 CURVE SMOOTH",
"1027.17 1125.17 OFFCURVE",
"1029 1113.67 OFFCURVE",
"1031 1103 CURVE SMOOTH",
"1225 0 LINE",
"1394 0 LINE",
"1982 1433 LINE",
"1835 1433 LINE SMOOTH",
"1819 1433 OFFCURVE",
"1804.17 1428.33 OFFCURVE",
"1790.5 1419 CURVE SMOOTH",
"1776.83 1409.67 OFFCURVE",
"1768.33 1399.33 OFFCURVE",
"1765 1388 CURVE",
"1362 374 LINE",
"1356 356.667 OFFCURVE",
"1349.83 338.333 OFFCURVE",
"1343.5 319 CURVE SMOOTH",
"1337.17 299.667 OFFCURVE",
"1331 279.333 OFFCURVE",
"1325 258 CURVE",
"1323.67 279.333 OFFCURVE",
"1321.83 299.667 OFFCURVE",
"1319.5 319 CURVE SMOOTH",
"1317.17 338.333 OFFCURVE",
"1314.67 356.667 OFFCURVE",
"1312 374 CURVE SMOOTH",
"1133 1388 LINE",
"1129.67 1401.33 OFFCURVE",
"1123.17 1412.17 OFFCURVE",
"1113.5 1420.5 CURVE SMOOTH",
"1103.83 1428.83 OFFCURVE",
"1090.67 1433 OFFCURVE",
"1074 1433 CURVE SMOOTH",
"1031 1433 LINE SMOOTH",
"1015 1433 OFFCURVE",
"1001 1428.33 OFFCURVE",
"989 1419 CURVE SMOOTH",
"977 1409.67 OFFCURVE",
"968.333 1399.33 OFFCURVE",
"963 1388 CURVE",
"535 374 LINE SMOOTH",
"527.667 356.667 OFFCURVE",
"520.5 337.833 OFFCURVE",
"513.5 317.5 CURVE SMOOTH",
"506.5 297.167 OFFCURVE",
"499.333 276 OFFCURVE",
"492 254 CURVE",
"490.667 276 OFFCURVE",
"489.333 297 OFFCURVE",
"488 317 CURVE SMOOTH",
"486.667 337 OFFCURVE",
"485.333 356 OFFCURVE",
"484 374 CURVE",
"329 1388 LINE",
"327.667 1401.33 OFFCURVE",
"322 1412.17 OFFCURVE",
"312 1420.5 CURVE SMOOTH",
"302 1428.83 OFFCURVE",
"288.667 1433 OFFCURVE",
"272 1433 CURVE SMOOTH"
);
}
);
width = 1910;
}
);
leftKerningGroup = W;
rightKerningGroup = W;
unicode = 0057;
},
{
glyphname = X;
layers = (
{
layerId = "28213FCA-CDAC-4A0A-BF59-EE4F382E99BB";
name = "Regular Italic";
paths = (
{
closed = 1;
nodes = (
"501 765 LINE",
"-68 0 LINE",
"118 0 LINE SMOOTH",
"130 0 OFFCURVE",
"141.167 2.66667 OFFCURVE",
"151.5 8 CURVE SMOOTH",
"161.833 13.3333 OFFCURVE",
"171.333 22.6667 OFFCURVE",
"180 36 CURVE",
"612 631 LINE SMOOTH",
"615.333 635.667 OFFCURVE",
"618.5 640.5 OFFCURVE",
"621.5 645.5 CURVE SMOOTH",
"624.5 650.5 OFFCURVE",
"627.333 655.667 OFFCURVE",
"630 661 CURVE",
"922 36 LINE SMOOTH",
"926 27.3333 OFFCURVE",
"931.667 19.1667 OFFCURVE",
"939 11.5 CURVE SMOOTH",
"946.333 3.83333 OFFCURVE",
"956.667 0 OFFCURVE",
"970 0 CURVE SMOOTH",
"1138 0 LINE",
"760 773 LINE",
"1261 1433 LINE",
"1068 1433 LINE SMOOTH",
"1058 1433 OFFCURVE",
"1049.5 1430.67 OFFCURVE",
"1042.5 1426 CURVE SMOOTH",
"1035.5 1421.33 OFFCURVE",
"1028.33 1414 OFFCURVE",
"1021 1404 CURVE SMOOTH",
"657 902 LINE SMOOTH",
"652.333 895.333 OFFCURVE",
"648.5 889 OFFCURVE",
"645.5 883 CURVE SMOOTH",
"642.5 877 OFFCURVE",
"639.333 871 OFFCURVE",
"636 865 CURVE",
"380 1405 LINE",
"374.667 1414.33 OFFCURVE",
"369 1421.33 OFFCURVE",
"363 1426 CURVE SMOOTH",
"357 1430.67 OFFCURVE",
"347.333 1433 OFFCURVE",
"334 1433 CURVE SMOOTH",
"165 1433 LINE"
);
}
);
width = 1218;
}
);
leftKerningGroup = X;
rightKerningGroup = X;
unicode = 0058;
},
{
glyphname = Y;
layers = (
{
layerId = "28213FCA-CDAC-4A0A-BF59-EE4F382E99BB";
name = "Regular Italic";
paths = (
{
closed = 1;
nodes = (
"672 573 LINE",
"1260 1433 LINE",
"1105 1433 LINE SMOOTH",
"1089 1433 OFFCURVE",
"1075.5 1428.5 OFFCURVE",
"1064.5 1419.5 CURVE SMOOTH",
"1053.5 1410.5 OFFCURVE",
"1044.33 1400.33 OFFCURVE",
"1037 1389 CURVE SMOOTH",
"657 815 LINE",
"645.667 795.667 OFFCURVE",
"635.167 777.167 OFFCURVE",
"625.5 759.5 CURVE SMOOTH",
"615.833 741.833 OFFCURVE",
"607 724.333 OFFCURVE",
"599 707 CURVE",
"591.667 741 OFFCURVE",
"581.667 777 OFFCURVE",
"569 815 CURVE",
"332 1389 LINE",
"327.333 1402.33 OFFCURVE",
"320.333 1413 OFFCURVE",
"311 1421 CURVE SMOOTH",
"301.667 1429 OFFCURVE",
"288.667 1433 OFFCURVE",
"272 1433 CURVE SMOOTH",
"107 1433 LINE",
"485 571 LINE",
"414 0 LINE",
"601 0 LINE"
);
}
);
width = 1164;
}
);
leftKerningGroup = Y;
rightKerningGroup = Y;
unicode = 0059;
},
{
glyphname = Yacute;
layers = (
{
layerId = "28213FCA-CDAC-4A0A-BF59-EE4F382E99BB";
name = "Regular Italic";
paths = (
{
closed = 1;
nodes = (
"107 0 LINE"
);
},
{
closed = 1;
nodes = (
"672 573 LINE",
"1260 1433 LINE",
"1105 1433 LINE SMOOTH",
"1089 1433 OFFCURVE",
"1075.5 1428.5 OFFCURVE",
"1064.5 1419.5 CURVE SMOOTH",
"1053.5 1410.5 OFFCURVE",
"1044.33 1400.33 OFFCURVE",
"1037 1389 CURVE SMOOTH",
"657 815 LINE",
"645.667 795.667 OFFCURVE",
"635.167 777.167 OFFCURVE",
"625.5 759.5 CURVE SMOOTH",
"615.833 741.833 OFFCURVE",
"607 724.333 OFFCURVE",
"599 707 CURVE",
"591.667 741 OFFCURVE",
"581.667 777 OFFCURVE",
"569 815 CURVE",
"332 1389 LINE",
"327.333 1402.33 OFFCURVE",
"320.333 1413 OFFCURVE",
"311 1421 CURVE SMOOTH",
"301.667 1429 OFFCURVE",
"288.667 1433 OFFCURVE",
"272 1433 CURVE SMOOTH",
"107 1433 LINE",
"485 571 LINE",
"414 0 LINE",
"601 0 LINE"
);
},
{
closed = 1;
nodes = (
"1078 1852 LINE",
"893 1852 LINE SMOOTH",
"873 1852 OFFCURVE",
"857.667 1850.33 OFFCURVE",
"847 1847 CURVE SMOOTH",
"836.333 1843.67 OFFCURVE",
"825 1834.67 OFFCURVE",
"813 1820 CURVE",
"569 1546 LINE",
"685 1546 LINE SMOOTH",
"698.333 1546 OFFCURVE",
"709.167 1547 OFFCURVE",
"717.5 1549 CURVE SMOOTH",
"725.833 1551 OFFCURVE",
"735.667 1556.67 OFFCURVE",
"747 1566 CURVE SMOOTH"
);
}
);
width = 1164;
}
);
leftKerningGroup = Y;
rightKerningGroup = Y;
unicode = 00DD;
},
{
glyphname = Ydieresis;
layers = (
{
layerId = "28213FCA-CDAC-4A0A-BF59-EE4F382E99BB";
name = "Regular Italic";
paths = (
{
closed = 1;
nodes = (
"107 0 LINE"
);
},
{
closed = 1;
nodes = (
"672 573 LINE",
"1260 1433 LINE",
"1105 1433 LINE SMOOTH",
"1089 1433 OFFCURVE",
"1075.5 1428.5 OFFCURVE",
"1064.5 1419.5 CURVE SMOOTH",
"1053.5 1410.5 OFFCURVE",
"1044.33 1400.33 OFFCURVE",
"1037 1389 CURVE SMOOTH",
"657 815 LINE",
"645.667 795.667 OFFCURVE",
"635.167 777.167 OFFCURVE",
"625.5 759.5 CURVE SMOOTH",
"615.833 741.833 OFFCURVE",
"607 724.333 OFFCURVE",
"599 707 CURVE",
"591.667 741 OFFCURVE",
"581.667 777 OFFCURVE",
"569 815 CURVE",
"332 1389 LINE",
"327.333 1402.33 OFFCURVE",
"320.333 1413 OFFCURVE",
"311 1421 CURVE SMOOTH",
"301.667 1429 OFFCURVE",
"288.667 1433 OFFCURVE",
"272 1433 CURVE SMOOTH",
"107 1433 LINE",
"485 571 LINE",
"414 0 LINE",
"601 0 LINE"
);
},
{
closed = 1;
nodes = (
"625 1679 OFFCURVE",
"622 1693.83 OFFCURVE",
"616 1707.5 CURVE SMOOTH",
"610 1721.17 OFFCURVE",
"601.667 1733.33 OFFCURVE",
"591 1744 CURVE SMOOTH",
"580.333 1754.67 OFFCURVE",
"568.167 1763 OFFCURVE",
"554.5 1769 CURVE SMOOTH",
"540.833 1775 OFFCURVE",
"526.333 1778 OFFCURVE",
"511 1778 CURVE SMOOTH",
"496.333 1778 OFFCURVE",
"482.333 1775 OFFCURVE",
"469 1769 CURVE SMOOTH",
"455.667 1763 OFFCURVE",
"443.833 1754.67 OFFCURVE",
"433.5 1744 CURVE SMOOTH",
"423.167 1733.33 OFFCURVE",
"415 1721.17 OFFCURVE",
"409 1707.5 CURVE SMOOTH",
"403 1693.83 OFFCURVE",
"400 1679 OFFCURVE",
"400 1663 CURVE SMOOTH",
"400 1647.67 OFFCURVE",
"403 1633.33 OFFCURVE",
"409 1620 CURVE SMOOTH",
"415 1606.67 OFFCURVE",
"423.167 1595 OFFCURVE",
"433.5 1585 CURVE SMOOTH",
"443.833 1575 OFFCURVE",
"455.667 1567.17 OFFCURVE",
"469 1561.5 CURVE SMOOTH",
"482.333 1555.83 OFFCURVE",
"496.333 1553 OFFCURVE",
"511 1553 CURVE SMOOTH",
"526.333 1553 OFFCURVE",
"540.833 1555.83 OFFCURVE",
"554.5 1561.5 CURVE SMOOTH",
"568.167 1567.17 OFFCURVE",
"580.333 1575 OFFCURVE",
"591 1585 CURVE SMOOTH",
"601.667 1595 OFFCURVE",
"610 1606.67 OFFCURVE",
"616 1620 CURVE SMOOTH",
"622 1633.33 OFFCURVE",
"625 1647.67 OFFCURVE",
"625 1663 CURVE SMOOTH"
);
},
{
closed = 1;
nodes = (
"1005 1679 OFFCURVE",
"1002 1693.83 OFFCURVE",
"996 1707.5 CURVE SMOOTH",
"990 1721.17 OFFCURVE",
"981.833 1733.33 OFFCURVE",
"971.5 1744 CURVE SMOOTH",
"961.167 1754.67 OFFCURVE",
"949.167 1763 OFFCURVE",
"935.5 1769 CURVE SMOOTH",
"921.833 1775 OFFCURVE",
"907.333 1778 OFFCURVE",
"892 1778 CURVE SMOOTH",
"876.667 1778 OFFCURVE",
"862.167 1775 OFFCURVE",
"848.5 1769 CURVE SMOOTH",
"834.833 1763 OFFCURVE",
"823 1754.67 OFFCURVE",
"813 1744 CURVE SMOOTH",
"803 1733.33 OFFCURVE",
"795 1721.17 OFFCURVE",
"789 1707.5 CURVE SMOOTH",
"783 1693.83 OFFCURVE",
"780 1679 OFFCURVE",
"780 1663 CURVE SMOOTH",
"780 1647.67 OFFCURVE",
"783 1633.33 OFFCURVE",
"789 1620 CURVE SMOOTH",
"795 1606.67 OFFCURVE",
"803 1595 OFFCURVE",
"813 1585 CURVE SMOOTH",
"823 1575 OFFCURVE",
"834.833 1567.17 OFFCURVE",
"848.5 1561.5 CURVE SMOOTH",
"862.167 1555.83 OFFCURVE",
"876.667 1553 OFFCURVE",
"892 1553 CURVE SMOOTH",
"907.333 1553 OFFCURVE",
"921.833 1555.83 OFFCURVE",
"935.5 1561.5 CURVE SMOOTH",
"949.167 1567.17 OFFCURVE",
"961.167 1575 OFFCURVE",
"971.5 1585 CURVE SMOOTH",
"981.833 1595 OFFCURVE",
"990 1606.67 OFFCURVE",
"996 1620 CURVE SMOOTH",
"1002 1633.33 OFFCURVE",
"1005 1647.67 OFFCURVE",
"1005 1663 CURVE SMOOTH"
);
}
);
width = 1164;
}
);
leftKerningGroup = Y;
rightKerningGroup = Y;
unicode = 0178;
},
{
glyphname = Z;
layers = (
{
layerId = "28213FCA-CDAC-4A0A-BF59-EE4F382E99BB";
name = "Regular Italic";
paths = (
{
closed = 1;
nodes = (
"1153 1433 LINE",
"186 1433 LINE",
"167 1280 LINE",
"880 1280 LINE",
"4 107 LINE",
"-1 99 OFFCURVE",
"-6 91.3333 OFFCURVE",
"-10 84 CURVE SMOOTH",
"-14 76.6667 OFFCURVE",
"-17 68.3333 OFFCURVE",
"-18 59 CURVE SMOOTH",
"-26 0 LINE",
"964 0 LINE",
"984 152 LINE",
"246 152 LINE",
"1122 1324 LINE",
"1127.33 1332.67 OFFCURVE",
"1132.17 1340.67 OFFCURVE",
"1136.5 1348 CURVE SMOOTH",
"1140.83 1355.33 OFFCURVE",
"1143.67 1363.67 OFFCURVE",
"1145 1373 CURVE SMOOTH"
);
}
);
width = 1111;
}
);
leftKerningGroup = Z;
rightKerningGroup = Z;
unicode = 005A;
},
{
glyphname = a;
layers = (
{
layerId = "28213FCA-CDAC-4A0A-BF59-EE4F382E99BB";
name = "Regular Italic";
paths = (
{
closed = 1;
nodes = (
"818 0 LINE",
"939 980 LINE",
"899 997.333 OFFCURVE",
"858.5 1009.5 OFFCURVE",
"817.5 1016.5 CURVE SMOOTH",
"776.5 1023.5 OFFCURVE",
"734.333 1027 OFFCURVE",
"691 1027 CURVE SMOOTH",
"631 1027 OFFCURVE",
"573.667 1018.5 OFFCURVE",
"519 1001.5 CURVE SMOOTH",
"464.333 984.5 OFFCURVE",
"413.167 960.5 OFFCURVE",
"365.5 929.5 CURVE SMOOTH",
"317.833 898.5 OFFCURVE",
"274.667 861.833 OFFCURVE",
"236 819.5 CURVE SMOOTH",
"197.333 777.167 OFFCURVE",
"164.167 730.667 OFFCURVE",
"136.5 680 CURVE SMOOTH",
"108.833 629.333 OFFCURVE",
"87.5 575.5 OFFCURVE",
"72.5 518.5 CURVE SMOOTH",
"57.5 461.5 OFFCURVE",
"50 403 OFFCURVE",
"50 343 CURVE SMOOTH",
"50 285.667 OFFCURVE",
"56.3333 234.833 OFFCURVE",
"69 190.5 CURVE SMOOTH",
"81.6667 146.167 OFFCURVE",
"99.5 108.833 OFFCURVE",
"122.5 78.5 CURVE SMOOTH",
"145.5 48.1667 OFFCURVE",
"173.333 25.1667 OFFCURVE",
"206 9.50002 CURVE SMOOTH",
"238.667 -6 OFFCURVE",
"275 -14 OFFCURVE",
"315 -14 CURVE SMOOTH",
"351.667 -14 OFFCURVE",
"387 -7 OFFCURVE",
"421 6 CURVE SMOOTH",
"455 19.3333 OFFCURVE",
"487.5 38.1667 OFFCURVE",
"518.5 62.5 CURVE SMOOTH",
"549.5 86.8333 OFFCURVE",
"578.833 116.333 OFFCURVE",
"606.5 151 CURVE SMOOTH",
"634.167 185.667 OFFCURVE",
"660 224.333 OFFCURVE",
"684 267 CURVE",
"666 62 LINE",
"666 44.6667 OFFCURVE",
"670.167 30 OFFCURVE",
"678.5 18 CURVE SMOOTH",
"686.833 6 OFFCURVE",
"702.667 0 OFFCURVE",
"726 0 CURVE SMOOTH"
);
},
{
closed = 1;
nodes = (
"279.333 134 OFFCURVE",
"228 214.333 OFFCURVE",
"228 375 CURVE SMOOTH",
"228 421 OFFCURVE",
"233.333 465.833 OFFCURVE",
"244 509.5 CURVE SMOOTH",
"254.667 553.167 OFFCURVE",
"269.5 594.333 OFFCURVE",
"288.5 633 CURVE SMOOTH",
"307.5 671.667 OFFCURVE",
"330.333 707.167 OFFCURVE",
"357 739.5 CURVE SMOOTH",
"383.667 771.833 OFFCURVE",
"413.333 799.667 OFFCURVE",
"446 823 CURVE SMOOTH",
"478.667 846.333 OFFCURVE",
"513.667 864.5 OFFCURVE",
"551 877.5 CURVE SMOOTH",
"588.333 890.5 OFFCURVE",
"627 897 OFFCURVE",
"667 897 CURVE SMOOTH",
"681 897 OFFCURVE",
"695.167 896.5 OFFCURVE",
"709.5 895.5 CURVE SMOOTH",
"723.833 894.5 OFFCURVE",
"738.333 892.333 OFFCURVE",
"753 889 CURVE",
"710 541 LINE",
"691.333 481.667 OFFCURVE",
"669.833 427.167 OFFCURVE",
"645.5 377.5 CURVE SMOOTH",
"621.167 327.833 OFFCURVE",
"595 285 OFFCURVE",
"567 249 CURVE SMOOTH",
"539 213 OFFCURVE",
"509.333 184.833 OFFCURVE",
"478 164.5 CURVE SMOOTH",
"446.667 144.167 OFFCURVE",
"414.667 134 OFFCURVE",
"382 134 CURVE SMOOTH"
);
}
);
width = 1022;
}
);
leftKerningGroup = a;
rightKerningGroup = a;
unicode = 0061;
},
{
glyphname = aacute;
layers = (
{
layerId = "28213FCA-CDAC-4A0A-BF59-EE4F382E99BB";
name = "Regular Italic";
paths = (
{
closed = 1;
nodes = (
"50 0 LINE"
);
},
{
closed = 1;
nodes = (
"818 0 LINE",
"939 980 LINE",
"899 997.333 OFFCURVE",
"858.5 1009.5 OFFCURVE",
"817.5 1016.5 CURVE SMOOTH",
"776.5 1023.5 OFFCURVE",
"734.333 1027 OFFCURVE",
"691 1027 CURVE SMOOTH",
"631 1027 OFFCURVE",
"573.667 1018.5 OFFCURVE",
"519 1001.5 CURVE SMOOTH",
"464.333 984.5 OFFCURVE",
"413.167 960.5 OFFCURVE",
"365.5 929.5 CURVE SMOOTH",
"317.833 898.5 OFFCURVE",
"274.667 861.833 OFFCURVE",
"236 819.5 CURVE SMOOTH",
"197.333 777.167 OFFCURVE",
"164.167 730.667 OFFCURVE",
"136.5 680 CURVE SMOOTH",
"108.833 629.333 OFFCURVE",
"87.5 575.5 OFFCURVE",
"72.5 518.5 CURVE SMOOTH",
"57.5 461.5 OFFCURVE",
"50 403 OFFCURVE",
"50 343 CURVE SMOOTH",
"50 285.667 OFFCURVE",
"56.3333 234.833 OFFCURVE",
"69 190.5 CURVE SMOOTH",
"81.6667 146.167 OFFCURVE",
"99.5 108.833 OFFCURVE",
"122.5 78.5 CURVE SMOOTH",
"145.5 48.1667 OFFCURVE",
"173.333 25.1667 OFFCURVE",
"206 9.50002 CURVE SMOOTH",
"238.667 -6 OFFCURVE",
"275 -14 OFFCURVE",
"315 -14 CURVE SMOOTH",
"351.667 -14 OFFCURVE",
"387 -7 OFFCURVE",
"421 6 CURVE SMOOTH",
"455 19.3333 OFFCURVE",
"487.5 38.1667 OFFCURVE",
"518.5 62.5 CURVE SMOOTH",
"549.5 86.8333 OFFCURVE",
"578.833 116.333 OFFCURVE",
"606.5 151 CURVE SMOOTH",
"634.167 185.667 OFFCURVE",
"660 224.333 OFFCURVE",
"684 267 CURVE",
"666 62 LINE",
"666 44.6667 OFFCURVE",
"670.167 30 OFFCURVE",
"678.5 18 CURVE SMOOTH",
"686.833 6 OFFCURVE",
"702.667 0 OFFCURVE",
"726 0 CURVE SMOOTH"
);
},
{
closed = 1;
nodes = (
"279.333 134 OFFCURVE",
"228 214.333 OFFCURVE",
"228 375 CURVE SMOOTH",
"228 421 OFFCURVE",
"233.333 465.833 OFFCURVE",
"244 509.5 CURVE SMOOTH",
"254.667 553.167 OFFCURVE",
"269.5 594.333 OFFCURVE",
"288.5 633 CURVE SMOOTH",
"307.5 671.667 OFFCURVE",
"330.333 707.167 OFFCURVE",
"357 739.5 CURVE SMOOTH",
"383.667 771.833 OFFCURVE",
"413.333 799.667 OFFCURVE",
"446 823 CURVE SMOOTH",
"478.667 846.333 OFFCURVE",
"513.667 864.5 OFFCURVE",
"551 877.5 CURVE SMOOTH",
"588.333 890.5 OFFCURVE",
"627 897 OFFCURVE",
"667 897 CURVE SMOOTH",
"681 897 OFFCURVE",
"695.167 896.5 OFFCURVE",
"709.5 895.5 CURVE SMOOTH",
"723.833 894.5 OFFCURVE",
"738.333 892.333 OFFCURVE",
"753 889 CURVE",
"710 541 LINE",
"691.333 481.667 OFFCURVE",
"669.833 427.167 OFFCURVE",
"645.5 377.5 CURVE SMOOTH",
"621.167 327.833 OFFCURVE",
"595 285 OFFCURVE",
"567 249 CURVE SMOOTH",
"539 213 OFFCURVE",
"509.333 184.833 OFFCURVE",
"478 164.5 CURVE SMOOTH",
"446.667 144.167 OFFCURVE",
"414.667 134 OFFCURVE",
"382 134 CURVE SMOOTH"
);
},
{
closed = 1;
nodes = (
"1011 1449 LINE",
"851 1449 LINE SMOOTH",
"831 1449 OFFCURVE",
"815.5 1445.5 OFFCURVE",
"804.5 1438.5 CURVE SMOOTH",
"793.5 1431.5 OFFCURVE",
"783 1420.33 OFFCURVE",
"773 1405 CURVE SMOOTH",
"610 1163 LINE",
"708 1163 LINE SMOOTH",
"720.667 1163 OFFCURVE",
"731.333 1165.17 OFFCURVE",
"740 1169.5 CURVE SMOOTH",
"748.667 1173.83 OFFCURVE",
"757.667 1181 OFFCURVE",
"767 1191 CURVE SMOOTH"
);
}
);
width = 1022;
}
);
leftKerningGroup = a;
rightKerningGroup = a;
unicode = 00E1;
},
{
glyphname = acircumflex;
layers = (
{
layerId = "28213FCA-CDAC-4A0A-BF59-EE4F382E99BB";
name = "Regular Italic";
paths = (
{
closed = 1;
nodes = (
"50 0 LINE"
);
},
{
closed = 1;
nodes = (
"818 0 LINE",
"939 980 LINE",
"899 997.333 OFFCURVE",
"858.5 1009.5 OFFCURVE",
"817.5 1016.5 CURVE SMOOTH",
"776.5 1023.5 OFFCURVE",
"734.333 1027 OFFCURVE",
"691 1027 CURVE SMOOTH",
"631 1027 OFFCURVE",
"573.667 1018.5 OFFCURVE",
"519 1001.5 CURVE SMOOTH",
"464.333 984.5 OFFCURVE",
"413.167 960.5 OFFCURVE",
"365.5 929.5 CURVE SMOOTH",
"317.833 898.5 OFFCURVE",
"274.667 861.833 OFFCURVE",
"236 819.5 CURVE SMOOTH",
"197.333 777.167 OFFCURVE",
"164.167 730.667 OFFCURVE",
"136.5 680 CURVE SMOOTH",
"108.833 629.333 OFFCURVE",
"87.5 575.5 OFFCURVE",
"72.5 518.5 CURVE SMOOTH",
"57.5 461.5 OFFCURVE",
"50 403 OFFCURVE",
"50 343 CURVE SMOOTH",
"50 285.667 OFFCURVE",
"56.3333 234.833 OFFCURVE",
"69 190.5 CURVE SMOOTH",
"81.6667 146.167 OFFCURVE",
"99.5 108.833 OFFCURVE",
"122.5 78.5 CURVE SMOOTH",
"145.5 48.1667 OFFCURVE",
"173.333 25.1667 OFFCURVE",
"206 9.50002 CURVE SMOOTH",
"238.667 -6 OFFCURVE",
"275 -14 OFFCURVE",
"315 -14 CURVE SMOOTH",
"351.667 -14 OFFCURVE",
"387 -7 OFFCURVE",
"421 6 CURVE SMOOTH",
"455 19.3333 OFFCURVE",
"487.5 38.1667 OFFCURVE",
"518.5 62.5 CURVE SMOOTH",
"549.5 86.8333 OFFCURVE",
"578.833 116.333 OFFCURVE",
"606.5 151 CURVE SMOOTH",
"634.167 185.667 OFFCURVE",
"660 224.333 OFFCURVE",
"684 267 CURVE",
"666 62 LINE",
"666 44.6667 OFFCURVE",
"670.167 30 OFFCURVE",
"678.5 18 CURVE SMOOTH",
"686.833 6 OFFCURVE",
"702.667 0 OFFCURVE",
"726 0 CURVE SMOOTH"
);
},
{
closed = 1;
nodes = (
"279.333 134 OFFCURVE",
"228 214.333 OFFCURVE",
"228 375 CURVE SMOOTH",
"228 421 OFFCURVE",
"233.333 465.833 OFFCURVE",
"244 509.5 CURVE SMOOTH",
"254.667 553.167 OFFCURVE",
"269.5 594.333 OFFCURVE",
"288.5 633 CURVE SMOOTH",
"307.5 671.667 OFFCURVE",
"330.333 707.167 OFFCURVE",
"357 739.5 CURVE SMOOTH",
"383.667 771.833 OFFCURVE",
"413.333 799.667 OFFCURVE",
"446 823 CURVE SMOOTH",
"478.667 846.333 OFFCURVE",
"513.667 864.5 OFFCURVE",
"551 877.5 CURVE SMOOTH",
"588.333 890.5 OFFCURVE",
"627 897 OFFCURVE",
"667 897 CURVE SMOOTH",
"681 897 OFFCURVE",
"695.167 896.5 OFFCURVE",
"709.5 895.5 CURVE SMOOTH",
"723.833 894.5 OFFCURVE",
"738.333 892.333 OFFCURVE",
"753 889 CURVE",
"710 541 LINE",
"691.333 481.667 OFFCURVE",
"669.833 427.167 OFFCURVE",
"645.5 377.5 CURVE SMOOTH",
"621.167 327.833 OFFCURVE",
"595 285 OFFCURVE",
"567 249 CURVE SMOOTH",
"539 213 OFFCURVE",
"509.333 184.833 OFFCURVE",
"478 164.5 CURVE SMOOTH",
"446.667 144.167 OFFCURVE",
"414.667 134 OFFCURVE",
"382 134 CURVE SMOOTH"
);
},
{
closed = 1;
nodes = (
"943 1169 LINE",
"767 1433 LINE",
"615 1433 LINE",
"380 1169 LINE",
"494 1169 LINE SMOOTH",
"509.333 1169 OFFCURVE",
"523.333 1175.33 OFFCURVE",
"536 1188 CURVE SMOOTH",
"666 1320 LINE",
"683 1339 LINE",
"689 1329 LINE SMOOTH",
"691 1325.67 OFFCURVE",
"693.333 1322.67 OFFCURVE",
"696 1320 CURVE",
"795 1188 LINE",
"801 1180.67 OFFCURVE",
"807.167 1175.67 OFFCURVE",
"813.5 1173 CURVE SMOOTH",
"819.833 1170.33 OFFCURVE",
"826.333 1169 OFFCURVE",
"833 1169 CURVE SMOOTH"
);
}
);
width = 1022;
}
);
leftKerningGroup = a;
rightKerningGroup = a;
unicode = 00E2;
},
{
glyphname = adieresis;
layers = (
{
layerId = "28213FCA-CDAC-4A0A-BF59-EE4F382E99BB";
name = "Regular Italic";
paths = (
{
closed = 1;
nodes = (
"50 0 LINE"
);
},
{
closed = 1;
nodes = (
"818 0 LINE",
"939 980 LINE",
"899 997.333 OFFCURVE",
"858.5 1009.5 OFFCURVE",
"817.5 1016.5 CURVE SMOOTH",
"776.5 1023.5 OFFCURVE",
"734.333 1027 OFFCURVE",
"691 1027 CURVE SMOOTH",
"631 1027 OFFCURVE",
"573.667 1018.5 OFFCURVE",
"519 1001.5 CURVE SMOOTH",
"464.333 984.5 OFFCURVE",
"413.167 960.5 OFFCURVE",
"365.5 929.5 CURVE SMOOTH",
"317.833 898.5 OFFCURVE",
"274.667 861.833 OFFCURVE",
"236 819.5 CURVE SMOOTH",
"197.333 777.167 OFFCURVE",
"164.167 730.667 OFFCURVE",
"136.5 680 CURVE SMOOTH",
"108.833 629.333 OFFCURVE",
"87.5 575.5 OFFCURVE",
"72.5 518.5 CURVE SMOOTH",
"57.5 461.5 OFFCURVE",
"50 403 OFFCURVE",
"50 343 CURVE SMOOTH",
"50 285.667 OFFCURVE",
"56.3333 234.833 OFFCURVE",
"69 190.5 CURVE SMOOTH",
"81.6667 146.167 OFFCURVE",
"99.5 108.833 OFFCURVE",
"122.5 78.5 CURVE SMOOTH",
"145.5 48.1667 OFFCURVE",
"173.333 25.1667 OFFCURVE",
"206 9.50002 CURVE SMOOTH",
"238.667 -6 OFFCURVE",
"275 -14 OFFCURVE",
"315 -14 CURVE SMOOTH",
"351.667 -14 OFFCURVE",
"387 -7 OFFCURVE",
"421 6 CURVE SMOOTH",
"455 19.3333 OFFCURVE",
"487.5 38.1667 OFFCURVE",
"518.5 62.5 CURVE SMOOTH",
"549.5 86.8333 OFFCURVE",
"578.833 116.333 OFFCURVE",
"606.5 151 CURVE SMOOTH",
"634.167 185.667 OFFCURVE",
"660 224.333 OFFCURVE",
"684 267 CURVE",
"666 62 LINE",
"666 44.6667 OFFCURVE",
"670.167 30 OFFCURVE",
"678.5 18 CURVE SMOOTH",
"686.833 6 OFFCURVE",
"702.667 0 OFFCURVE",
"726 0 CURVE SMOOTH"
);
},
{
closed = 1;
nodes = (
"279.333 134 OFFCURVE",
"228 214.333 OFFCURVE",
"228 375 CURVE SMOOTH",
"228 421 OFFCURVE",
"233.333 465.833 OFFCURVE",
"244 509.5 CURVE SMOOTH",
"254.667 553.167 OFFCURVE",
"269.5 594.333 OFFCURVE",
"288.5 633 CURVE SMOOTH",
"307.5 671.667 OFFCURVE",
"330.333 707.167 OFFCURVE",
"357 739.5 CURVE SMOOTH",
"383.667 771.833 OFFCURVE",
"413.333 799.667 OFFCURVE",
"446 823 CURVE SMOOTH",
"478.667 846.333 OFFCURVE",
"513.667 864.5 OFFCURVE",
"551 877.5 CURVE SMOOTH",
"588.333 890.5 OFFCURVE",
"627 897 OFFCURVE",
"667 897 CURVE SMOOTH",
"681 897 OFFCURVE",
"695.167 896.5 OFFCURVE",
"709.5 895.5 CURVE SMOOTH",
"723.833 894.5 OFFCURVE",
"738.333 892.333 OFFCURVE",
"753 889 CURVE",
"710 541 LINE",
"691.333 481.667 OFFCURVE",
"669.833 427.167 OFFCURVE",
"645.5 377.5 CURVE SMOOTH",
"621.167 327.833 OFFCURVE",
"595 285 OFFCURVE",
"567 249 CURVE SMOOTH",
"539 213 OFFCURVE",
"509.333 184.833 OFFCURVE",
"478 164.5 CURVE SMOOTH",
"446.667 144.167 OFFCURVE",
"414.667 134 OFFCURVE",
"382 134 CURVE SMOOTH"
);
},
{
closed = 1;
nodes = (
"636 1304.33 OFFCURVE",
"633 1319 OFFCURVE",
"627 1333 CURVE SMOOTH",
"621 1347 OFFCURVE",
"612.667 1359.17 OFFCURVE",
"602 1369.5 CURVE SMOOTH",
"591.333 1379.83 OFFCURVE",
"579.167 1388 OFFCURVE",
"565.5 1394 CURVE SMOOTH",
"551.833 1400 OFFCURVE",
"537.333 1403 OFFCURVE",
"522 1403 CURVE SMOOTH",
"506.667 1403 OFFCURVE",
"492.333 1400 OFFCURVE",
"479 1394 CURVE SMOOTH",
"465.667 1388 OFFCURVE",
"453.833 1379.83 OFFCURVE",
"443.5 1369.5 CURVE SMOOTH",
"433.167 1359.17 OFFCURVE",
"425 1347 OFFCURVE",
"419 1333 CURVE SMOOTH",
"413 1319 OFFCURVE",
"410 1304.33 OFFCURVE",
"410 1289 CURVE SMOOTH",
"410 1273.67 OFFCURVE",
"413 1259.33 OFFCURVE",
"419 1246 CURVE SMOOTH",
"425 1232.67 OFFCURVE",
"433.167 1221 OFFCURVE",
"443.5 1211 CURVE SMOOTH",
"453.833 1201 OFFCURVE",
"465.667 1193 OFFCURVE",
"479 1187 CURVE SMOOTH",
"492.333 1181 OFFCURVE",
"506.667 1178 OFFCURVE",
"522 1178 CURVE SMOOTH",
"537.333 1178 OFFCURVE",
"551.833 1181 OFFCURVE",
"565.5 1187 CURVE SMOOTH",
"579.167 1193 OFFCURVE",
"591.333 1201 OFFCURVE",
"602 1211 CURVE SMOOTH",
"612.667 1221 OFFCURVE",
"621 1232.67 OFFCURVE",
"627 1246 CURVE SMOOTH",
"633 1259.33 OFFCURVE",
"636 1273.67 OFFCURVE",
"636 1289 CURVE SMOOTH"
);
},
{
closed = 1;
nodes = (
"997 1304.33 OFFCURVE",
"994 1319 OFFCURVE",
"988 1333 CURVE SMOOTH",
"982 1347 OFFCURVE",
"973.833 1359.17 OFFCURVE",
"963.5 1369.5 CURVE SMOOTH",
"953.167 1379.83 OFFCURVE",
"941.167 1388 OFFCURVE",
"927.5 1394 CURVE SMOOTH",
"913.833 1400 OFFCURVE",
"899.333 1403 OFFCURVE",
"884 1403 CURVE SMOOTH",
"868.667 1403 OFFCURVE",
"854.167 1400 OFFCURVE",
"840.5 1394 CURVE SMOOTH",
"826.833 1388 OFFCURVE",
"814.833 1379.83 OFFCURVE",
"804.5 1369.5 CURVE SMOOTH",
"794.167 1359.17 OFFCURVE",
"786 1347 OFFCURVE",
"780 1333 CURVE SMOOTH",
"774 1319 OFFCURVE",
"771 1304.33 OFFCURVE",
"771 1289 CURVE SMOOTH",
"771 1273.67 OFFCURVE",
"774 1259.33 OFFCURVE",
"780 1246 CURVE SMOOTH",
"786 1232.67 OFFCURVE",
"794.167 1221 OFFCURVE",
"804.5 1211 CURVE SMOOTH",
"814.833 1201 OFFCURVE",
"826.833 1193 OFFCURVE",
"840.5 1187 CURVE SMOOTH",
"854.167 1181 OFFCURVE",
"868.667 1178 OFFCURVE",
"884 1178 CURVE SMOOTH",
"899.333 1178 OFFCURVE",
"913.833 1181 OFFCURVE",
"927.5 1187 CURVE SMOOTH",
"941.167 1193 OFFCURVE",
"953.167 1201 OFFCURVE",
"963.5 1211 CURVE SMOOTH",
"973.833 1221 OFFCURVE",
"982 1232.67 OFFCURVE",
"988 1246 CURVE SMOOTH",
"994 1259.33 OFFCURVE",
"997 1273.67 OFFCURVE",
"997 1289 CURVE SMOOTH"
);
}
);
width = 1022;
}
);
leftKerningGroup = a;
rightKerningGroup = a;
unicode = 00E4;
},
{
glyphname = agrave;
layers = (
{
layerId = "28213FCA-CDAC-4A0A-BF59-EE4F382E99BB";
name = "Regular Italic";
paths = (
{
closed = 1;
nodes = (
"50 0 LINE"
);
},
{
closed = 1;
nodes = (
"818 0 LINE",
"939 980 LINE",
"899 997.333 OFFCURVE",
"858.5 1009.5 OFFCURVE",
"817.5 1016.5 CURVE SMOOTH",
"776.5 1023.5 OFFCURVE",
"734.333 1027 OFFCURVE",
"691 1027 CURVE SMOOTH",
"631 1027 OFFCURVE",
"573.667 1018.5 OFFCURVE",
"519 1001.5 CURVE SMOOTH",
"464.333 984.5 OFFCURVE",
"413.167 960.5 OFFCURVE",
"365.5 929.5 CURVE SMOOTH",
"317.833 898.5 OFFCURVE",
"274.667 861.833 OFFCURVE",
"236 819.5 CURVE SMOOTH",
"197.333 777.167 OFFCURVE",
"164.167 730.667 OFFCURVE",
"136.5 680 CURVE SMOOTH",
"108.833 629.333 OFFCURVE",
"87.5 575.5 OFFCURVE",
"72.5 518.5 CURVE SMOOTH",
"57.5 461.5 OFFCURVE",
"50 403 OFFCURVE",
"50 343 CURVE SMOOTH",
"50 285.667 OFFCURVE",
"56.3333 234.833 OFFCURVE",
"69 190.5 CURVE SMOOTH",
"81.6667 146.167 OFFCURVE",
"99.5 108.833 OFFCURVE",
"122.5 78.5 CURVE SMOOTH",
"145.5 48.1667 OFFCURVE",
"173.333 25.1667 OFFCURVE",
"206 9.50002 CURVE SMOOTH",
"238.667 -6 OFFCURVE",
"275 -14 OFFCURVE",
"315 -14 CURVE SMOOTH",
"351.667 -14 OFFCURVE",
"387 -7 OFFCURVE",
"421 6 CURVE SMOOTH",
"455 19.3333 OFFCURVE",
"487.5 38.1667 OFFCURVE",
"518.5 62.5 CURVE SMOOTH",
"549.5 86.8333 OFFCURVE",
"578.833 116.333 OFFCURVE",
"606.5 151 CURVE SMOOTH",
"634.167 185.667 OFFCURVE",
"660 224.333 OFFCURVE",
"684 267 CURVE",
"666 62 LINE",
"666 44.6667 OFFCURVE",
"670.167 30 OFFCURVE",
"678.5 18 CURVE SMOOTH",
"686.833 6 OFFCURVE",
"702.667 0 OFFCURVE",
"726 0 CURVE SMOOTH"
);
},
{
closed = 1;
nodes = (
"279.333 134 OFFCURVE",
"228 214.333 OFFCURVE",
"228 375 CURVE SMOOTH",
"228 421 OFFCURVE",
"233.333 465.833 OFFCURVE",
"244 509.5 CURVE SMOOTH",
"254.667 553.167 OFFCURVE",
"269.5 594.333 OFFCURVE",
"288.5 633 CURVE SMOOTH",
"307.5 671.667 OFFCURVE",
"330.333 707.167 OFFCURVE",
"357 739.5 CURVE SMOOTH",
"383.667 771.833 OFFCURVE",
"413.333 799.667 OFFCURVE",
"446 823 CURVE SMOOTH",
"478.667 846.333 OFFCURVE",
"513.667 864.5 OFFCURVE",
"551 877.5 CURVE SMOOTH",
"588.333 890.5 OFFCURVE",
"627 897 OFFCURVE",
"667 897 CURVE SMOOTH",
"681 897 OFFCURVE",
"695.167 896.5 OFFCURVE",
"709.5 895.5 CURVE SMOOTH",
"723.833 894.5 OFFCURVE",
"738.333 892.333 OFFCURVE",
"753 889 CURVE",
"710 541 LINE",
"691.333 481.667 OFFCURVE",
"669.833 427.167 OFFCURVE",
"645.5 377.5 CURVE SMOOTH",
"621.167 327.833 OFFCURVE",
"595 285 OFFCURVE",
"567 249 CURVE SMOOTH",
"539 213 OFFCURVE",
"509.333 184.833 OFFCURVE",
"478 164.5 CURVE SMOOTH",
"446.667 144.167 OFFCURVE",
"414.667 134 OFFCURVE",
"382 134 CURVE SMOOTH"
);
},
{
closed = 1;
nodes = (
"461 1449 LINE",
"647 1191 LINE SMOOTH",
"654.333 1181 OFFCURVE",
"661.833 1173.83 OFFCURVE",
"669.5 1169.5 CURVE SMOOTH",
"677.167 1165.17 OFFCURVE",
"687.333 1163 OFFCURVE",
"700 1163 CURVE SMOOTH",
"793 1163 LINE",
"684 1405 LINE SMOOTH",
"677.333 1420.33 OFFCURVE",
"669.333 1431.5 OFFCURVE",
"660 1438.5 CURVE SMOOTH",
"650.667 1445.5 OFFCURVE",
"636 1449 OFFCURVE",
"616 1449 CURVE SMOOTH"
);
}
);
width = 1022;
}
);
leftKerningGroup = a;
rightKerningGroup = a;
unicode = 00E0;
},
{
glyphname = aring;
layers = (
{
layerId = "28213FCA-CDAC-4A0A-BF59-EE4F382E99BB";
name = "Regular Italic";
paths = (
{
closed = 1;
nodes = (
"50 0 LINE"
);
},
{
closed = 1;
nodes = (
"818 0 LINE",
"939 980 LINE",
"899 997.333 OFFCURVE",
"858.5 1009.5 OFFCURVE",
"817.5 1016.5 CURVE SMOOTH",
"776.5 1023.5 OFFCURVE",
"734.333 1027 OFFCURVE",
"691 1027 CURVE SMOOTH",
"631 1027 OFFCURVE",
"573.667 1018.5 OFFCURVE",
"519 1001.5 CURVE SMOOTH",
"464.333 984.5 OFFCURVE",
"413.167 960.5 OFFCURVE",
"365.5 929.5 CURVE SMOOTH",
"317.833 898.5 OFFCURVE",
"274.667 861.833 OFFCURVE",
"236 819.5 CURVE SMOOTH",
"197.333 777.167 OFFCURVE",
"164.167 730.667 OFFCURVE",
"136.5 680 CURVE SMOOTH",
"108.833 629.333 OFFCURVE",
"87.5 575.5 OFFCURVE",
"72.5 518.5 CURVE SMOOTH",
"57.5 461.5 OFFCURVE",
"50 403 OFFCURVE",
"50 343 CURVE SMOOTH",
"50 285.667 OFFCURVE",
"56.3333 234.833 OFFCURVE",
"69 190.5 CURVE SMOOTH",
"81.6667 146.167 OFFCURVE",
"99.5 108.833 OFFCURVE",
"122.5 78.5 CURVE SMOOTH",
"145.5 48.1667 OFFCURVE",
"173.333 25.1667 OFFCURVE",
"206 9.50002 CURVE SMOOTH",
"238.667 -6 OFFCURVE",
"275 -14 OFFCURVE",
"315 -14 CURVE SMOOTH",
"351.667 -14 OFFCURVE",
"387 -7 OFFCURVE",
"421 6 CURVE SMOOTH",
"455 19.3333 OFFCURVE",
"487.5 38.1667 OFFCURVE",
"518.5 62.5 CURVE SMOOTH",
"549.5 86.8333 OFFCURVE",
"578.833 116.333 OFFCURVE",
"606.5 151 CURVE SMOOTH",
"634.167 185.667 OFFCURVE",
"660 224.333 OFFCURVE",
"684 267 CURVE",
"666 62 LINE",
"666 44.6667 OFFCURVE",
"670.167 30 OFFCURVE",
"678.5 18 CURVE SMOOTH",
"686.833 6 OFFCURVE",
"702.667 0 OFFCURVE",
"726 0 CURVE SMOOTH"
);
},
{
closed = 1;
nodes = (
"279.333 134 OFFCURVE",
"228 214.333 OFFCURVE",
"228 375 CURVE SMOOTH",
"228 421 OFFCURVE",
"233.333 465.833 OFFCURVE",
"244 509.5 CURVE SMOOTH",
"254.667 553.167 OFFCURVE",
"269.5 594.333 OFFCURVE",
"288.5 633 CURVE SMOOTH",
"307.5 671.667 OFFCURVE",
"330.333 707.167 OFFCURVE",
"357 739.5 CURVE SMOOTH",
"383.667 771.833 OFFCURVE",
"413.333 799.667 OFFCURVE",
"446 823 CURVE SMOOTH",
"478.667 846.333 OFFCURVE",
"513.667 864.5 OFFCURVE",
"551 877.5 CURVE SMOOTH",
"588.333 890.5 OFFCURVE",
"627 897 OFFCURVE",
"667 897 CURVE SMOOTH",
"681 897 OFFCURVE",
"695.167 896.5 OFFCURVE",
"709.5 895.5 CURVE SMOOTH",
"723.833 894.5 OFFCURVE",
"738.333 892.333 OFFCURVE",
"753 889 CURVE",
"710 541 LINE",
"691.333 481.667 OFFCURVE",
"669.833 427.167 OFFCURVE",
"645.5 377.5 CURVE SMOOTH",
"621.167 327.833 OFFCURVE",
"595 285 OFFCURVE",
"567 249 CURVE SMOOTH",
"539 213 OFFCURVE",
"509.333 184.833 OFFCURVE",
"478 164.5 CURVE SMOOTH",
"446.667 144.167 OFFCURVE",
"414.667 134 OFFCURVE",
"382 134 CURVE SMOOTH"
);
},
{
closed = 1;
nodes = (
"527.667 1287.67 OFFCURVE",
"529.667 1262.67 OFFCURVE",
"537 1240 CURVE SMOOTH",
"544.333 1217.33 OFFCURVE",
"555.5 1198 OFFCURVE",
"570.5 1182 CURVE SMOOTH",
"585.5 1166 OFFCURVE",
"603.5 1153.5 OFFCURVE",
"624.5 1144.5 CURVE SMOOTH",
"645.5 1135.5 OFFCURVE",
"668.333 1131 OFFCURVE",
"693 1131 CURVE SMOOTH",
"718.333 1131 OFFCURVE",
"742.833 1135.5 OFFCURVE",
"766.5 1144.5 CURVE SMOOTH",
"790.167 1153.5 OFFCURVE",
"811.333 1166 OFFCURVE",
"830 1182 CURVE SMOOTH",
"848.667 1198 OFFCURVE",
"864.167 1217.33 OFFCURVE",
"876.5 1240 CURVE SMOOTH",
"888.833 1262.67 OFFCURVE",
"896.667 1287.67 OFFCURVE",
"900 1315 CURVE SMOOTH",
"903.333 1343 OFFCURVE",
"901.333 1368.33 OFFCURVE",
"894 1391 CURVE SMOOTH",
"886.667 1413.67 OFFCURVE",
"875.333 1433.33 OFFCURVE",
"860 1450 CURVE SMOOTH",
"844.667 1466.67 OFFCURVE",
"826.167 1479.5 OFFCURVE",
"804.5 1488.5 CURVE SMOOTH",
"782.833 1497.5 OFFCURVE",
"759.667 1502 OFFCURVE",
"735 1502 CURVE SMOOTH",
"710.333 1502 OFFCURVE",
"686.5 1497.5 OFFCURVE",
"663.5 1488.5 CURVE SMOOTH",
"640.5 1479.5 OFFCURVE",
"619.667 1466.67 OFFCURVE",
"601 1450 CURVE SMOOTH",
"582.333 1433.33 OFFCURVE",
"566.667 1413.67 OFFCURVE",
"554 1391 CURVE SMOOTH",
"541.333 1368.33 OFFCURVE",
"533.667 1343 OFFCURVE",
"531 1315 CURVE SMOOTH"
);
},
{
closed = 1;
nodes = (
"626.333 1345 OFFCURVE",
"637.333 1369.33 OFFCURVE",
"656 1388 CURVE SMOOTH",
"674.667 1406.67 OFFCURVE",
"698.333 1416 OFFCURVE",
"727 1416 CURVE SMOOTH",
"754.333 1416 OFFCURVE",
"775.5 1406.67 OFFCURVE",
"790.5 1388 CURVE SMOOTH",
"805.5 1369.33 OFFCURVE",
"811.333 1345 OFFCURVE",
"808 1315 CURVE SMOOTH",
"804.667 1285.67 OFFCURVE",
"793.5 1261.67 OFFCURVE",
"774.5 1243 CURVE SMOOTH",
"755.5 1224.33 OFFCURVE",
"732.333 1215 OFFCURVE",
"705 1215 CURVE SMOOTH",
"675.667 1215 OFFCURVE",
"653.833 1224.33 OFFCURVE",
"639.5 1243 CURVE SMOOTH",
"625.167 1261.67 OFFCURVE",
"619.667 1285.67 OFFCURVE",
"623 1315 CURVE SMOOTH"
);
}
);
width = 1022;
}
);
leftKerningGroup = a;
rightKerningGroup = a;
unicode = 00E5;
},
{
glyphname = atilde;
layers = (
{
layerId = "28213FCA-CDAC-4A0A-BF59-EE4F382E99BB";
name = "Regular Italic";
paths = (
{
closed = 1;
nodes = (
"50 0 LINE"
);
},
{
closed = 1;
nodes = (
"818 0 LINE",
"939 980 LINE",
"899 997.333 OFFCURVE",
"858.5 1009.5 OFFCURVE",
"817.5 1016.5 CURVE SMOOTH",
"776.5 1023.5 OFFCURVE",
"734.333 1027 OFFCURVE",
"691 1027 CURVE SMOOTH",
"631 1027 OFFCURVE",
"573.667 1018.5 OFFCURVE",
"519 1001.5 CURVE SMOOTH",
"464.333 984.5 OFFCURVE",
"413.167 960.5 OFFCURVE",
"365.5 929.5 CURVE SMOOTH",
"317.833 898.5 OFFCURVE",
"274.667 861.833 OFFCURVE",
"236 819.5 CURVE SMOOTH",
"197.333 777.167 OFFCURVE",
"164.167 730.667 OFFCURVE",
"136.5 680 CURVE SMOOTH",
"108.833 629.333 OFFCURVE",
"87.5 575.5 OFFCURVE",
"72.5 518.5 CURVE SMOOTH",
"57.5 461.5 OFFCURVE",
"50 403 OFFCURVE",
"50 343 CURVE SMOOTH",
"50 285.667 OFFCURVE",
"56.3333 234.833 OFFCURVE",
"69 190.5 CURVE SMOOTH",
"81.6667 146.167 OFFCURVE",
"99.5 108.833 OFFCURVE",
"122.5 78.5 CURVE SMOOTH",
"145.5 48.1667 OFFCURVE",
"173.333 25.1667 OFFCURVE",
"206 9.50002 CURVE SMOOTH",
"238.667 -6 OFFCURVE",
"275 -14 OFFCURVE",
"315 -14 CURVE SMOOTH",
"351.667 -14 OFFCURVE",
"387 -7 OFFCURVE",
"421 6 CURVE SMOOTH",
"455 19.3333 OFFCURVE",
"487.5 38.1667 OFFCURVE",
"518.5 62.5 CURVE SMOOTH",
"549.5 86.8333 OFFCURVE",
"578.833 116.333 OFFCURVE",
"606.5 151 CURVE SMOOTH",
"634.167 185.667 OFFCURVE",
"660 224.333 OFFCURVE",
"684 267 CURVE",
"666 62 LINE",
"666 44.6667 OFFCURVE",
"670.167 30 OFFCURVE",
"678.5 18 CURVE SMOOTH",
"686.833 6 OFFCURVE",
"702.667 0 OFFCURVE",
"726 0 CURVE SMOOTH"
);
},
{
closed = 1;
nodes = (
"279.333 134 OFFCURVE",
"228 214.333 OFFCURVE",
"228 375 CURVE SMOOTH",
"228 421 OFFCURVE",
"233.333 465.833 OFFCURVE",
"244 509.5 CURVE SMOOTH",
"254.667 553.167 OFFCURVE",
"269.5 594.333 OFFCURVE",
"288.5 633 CURVE SMOOTH",
"307.5 671.667 OFFCURVE",
"330.333 707.167 OFFCURVE",
"357 739.5 CURVE SMOOTH",
"383.667 771.833 OFFCURVE",
"413.333 799.667 OFFCURVE",
"446 823 CURVE SMOOTH",
"478.667 846.333 OFFCURVE",
"513.667 864.5 OFFCURVE",
"551 877.5 CURVE SMOOTH",
"588.333 890.5 OFFCURVE",
"627 897 OFFCURVE",
"667 897 CURVE SMOOTH",
"681 897 OFFCURVE",
"695.167 896.5 OFFCURVE",
"709.5 895.5 CURVE SMOOTH",
"723.833 894.5 OFFCURVE",
"738.333 892.333 OFFCURVE",
"753 889 CURVE",
"710 541 LINE",
"691.333 481.667 OFFCURVE",
"669.833 427.167 OFFCURVE",
"645.5 377.5 CURVE SMOOTH",
"621.167 327.833 OFFCURVE",
"595 285 OFFCURVE",
"567 249 CURVE SMOOTH",
"539 213 OFFCURVE",
"509.333 184.833 OFFCURVE",
"478 164.5 CURVE SMOOTH",
"446.667 144.167 OFFCURVE",
"414.667 134 OFFCURVE",
"382 134 CURVE SMOOTH"
);
},
{
closed = 1;
nodes = (
"778 1325 OFFCURVE",
"764.167 1329.83 OFFCURVE",
"750.5 1339.5 CURVE SMOOTH",
"736.833 1349.17 OFFCURVE",
"722.333 1359.67 OFFCURVE",
"707 1371 CURVE SMOOTH",
"691.667 1382.33 OFFCURVE",
"675.333 1392.83 OFFCURVE",
"658 1402.5 CURVE SMOOTH",
"640.667 1412.17 OFFCURVE",
"621 1417 OFFCURVE",
"599 1417 CURVE SMOOTH",
"575 1417 OFFCURVE",
"552.333 1411.83 OFFCURVE",
"531 1401.5 CURVE SMOOTH",
"509.667 1391.17 OFFCURVE",
"490.667 1376.5 OFFCURVE",
"474 1357.5 CURVE SMOOTH",
"457.333 1338.5 OFFCURVE",
"443.5 1315.83 OFFCURVE",
"432.5 1289.5 CURVE SMOOTH",
"421.5 1263.17 OFFCURVE",
"414.333 1234 OFFCURVE",
"411 1202 CURVE",
"513 1202 LINE",
"520.333 1260.67 OFFCURVE",
"546.333 1290 OFFCURVE",
"591 1290 CURVE SMOOTH",
"605 1290 OFFCURVE",
"618.833 1285.17 OFFCURVE",
"632.5 1275.5 CURVE SMOOTH",
"646.167 1265.83 OFFCURVE",
"660.667 1255.33 OFFCURVE",
"676 1244 CURVE SMOOTH",
"691.333 1232.67 OFFCURVE",
"707.833 1222.17 OFFCURVE",
"725.5 1212.5 CURVE SMOOTH",
"743.167 1202.83 OFFCURVE",
"762.667 1198 OFFCURVE",
"784 1198 CURVE SMOOTH",
"808.667 1198 OFFCURVE",
"831.5 1203.17 OFFCURVE",
"852.5 1213.5 CURVE SMOOTH",
"873.5 1223.83 OFFCURVE",
"892.333 1238.33 OFFCURVE",
"909 1257 CURVE SMOOTH",
"925.667 1275.67 OFFCURVE",
"939.333 1298.17 OFFCURVE",
"950 1324.5 CURVE SMOOTH",
"960.667 1350.83 OFFCURVE",
"967.667 1379.67 OFFCURVE",
"971 1411 CURVE",
"871 1411 LINE",
"863 1353.67 OFFCURVE",
"836.667 1325 OFFCURVE",
"792 1325 CURVE SMOOTH"
);
}
);
width = 1022;
}
);
leftKerningGroup = a;
rightKerningGroup = a;
unicode = 00E3;
},
{
glyphname = ae;
layers = (
{
layerId = "28213FCA-CDAC-4A0A-BF59-EE4F382E99BB";
name = "Regular Italic";
paths = (
{
closed = 1;
nodes = (
"1031 1027 OFFCURVE",
"965.167 1011.33 OFFCURVE",
"907.5 980 CURVE SMOOTH",
"849.833 948.667 OFFCURVE",
"801 905 OFFCURVE",
"761 849 CURVE",
"746.333 905.667 OFFCURVE",
"718.667 950 OFFCURVE",
"678 982 CURVE SMOOTH",
"637.333 1014 OFFCURVE",
"581 1030 OFFCURVE",
"509 1030 CURVE SMOOTH",
"439.667 1030 OFFCURVE",
"375.5 1016.67 OFFCURVE",
"316.5 990 CURVE SMOOTH",
"257.5 963.333 OFFCURVE",
"199 923 OFFCURVE",
"141 869 CURVE",
"164 814 LINE",
"169.333 804.667 OFFCURVE",
"175.667 797 OFFCURVE",
"183 791 CURVE SMOOTH",
"190.333 785 OFFCURVE",
"200 782 OFFCURVE",
"212 782 CURVE SMOOTH",
"226.667 782 OFFCURVE",
"242 787.5 OFFCURVE",
"258 798.5 CURVE SMOOTH",
"274 809.5 OFFCURVE",
"292.5 821.833 OFFCURVE",
"313.5 835.5 CURVE SMOOTH",
"334.5 849.167 OFFCURVE",
"359.167 861.5 OFFCURVE",
"387.5 872.5 CURVE SMOOTH",
"415.833 883.5 OFFCURVE",
"450 889 OFFCURVE",
"490 889 CURVE SMOOTH",
"549.333 889 OFFCURVE",
"591.667 868.833 OFFCURVE",
"617 828.5 CURVE SMOOTH",
"642.333 788.167 OFFCURVE",
"650 728 OFFCURVE",
"640 648 CURVE SMOOTH",
"632 588 LINE",
"518 584.667 OFFCURVE",
"422 572.667 OFFCURVE",
"344 552 CURVE SMOOTH",
"266 531.333 OFFCURVE",
"203 504.5 OFFCURVE",
"155 471.5 CURVE SMOOTH",
"107 438.5 OFFCURVE",
"72.3333 400.667 OFFCURVE",
"50.9999 358 CURVE SMOOTH",
"29.6666 315.333 OFFCURVE",
"18.9999 270.333 OFFCURVE",
"18.9999 223 CURVE SMOOTH",
"18.9999 143 OFFCURVE",
"42.9999 83.1667 OFFCURVE",
"90.9999 43.5 CURVE SMOOTH",
"139 3.83331 OFFCURVE",
"207.333 -16 OFFCURVE",
"296 -16 CURVE SMOOTH",
"328.667 -16 OFFCURVE",
"362.667 -12 OFFCURVE",
"398 -4 CURVE SMOOTH",
"433.333 4.83331 OFFCURVE",
"467.667 18.3333 OFFCURVE",
"501 37 CURVE SMOOTH",
"534.333 55.6667 OFFCURVE",
"565.833 79.5 OFFCURVE",
"595.5 108.5 CURVE SMOOTH",
"625.167 137.5 OFFCURVE",
"650.667 172.667 OFFCURVE",
"672 214 CURVE",
"698 138 OFFCURVE",
"737.5 81 OFFCURVE",
"790.5 43 CURVE SMOOTH",
"843.5 4.99998 OFFCURVE",
"905 -14 OFFCURVE",
"975 -14 CURVE SMOOTH",
"1017.67 -14 OFFCURVE",
"1057.5 -10 OFFCURVE",
"1094.5 -2 CURVE SMOOTH",
"1131.5 5.99998 OFFCURVE",
"1167 18.1667 OFFCURVE",
"1201 34.5 CURVE SMOOTH",
"1235 50.8333 OFFCURVE",
"1268.17 71.6667 OFFCURVE",
"1300.5 97 CURVE SMOOTH",
"1332.83 122.333 OFFCURVE",
"1366 152.333 OFFCURVE",
"1400 187 CURVE",
"1356 242 LINE",
"1350.67 247.333 OFFCURVE",
"1345.33 251.5 OFFCURVE",
"1340 254.5 CURVE SMOOTH",
"1334.67 257.5 OFFCURVE",
"1328.67 259 OFFCURVE",
"1322 259 CURVE SMOOTH",
"1311.33 259 OFFCURVE",
"1300.83 255.667 OFFCURVE",
"1290.5 249 CURVE SMOOTH",
"1280.17 242.333 OFFCURVE",
"1268.67 234.167 OFFCURVE",
"1256 224.5 CURVE SMOOTH",
"1243.33 214.833 OFFCURVE",
"1229.5 204.167 OFFCURVE",
"1214.5 192.5 CURVE SMOOTH",
"1199.5 180.833 OFFCURVE",
"1182.17 170.167 OFFCURVE",
"1162.5 160.5 CURVE SMOOTH",
"1142.83 150.833 OFFCURVE",
"1120.33 142.667 OFFCURVE",
"1095 136 CURVE SMOOTH",
"1069.67 129.333 OFFCURVE",
"1041 126 OFFCURVE",
"1009 126 CURVE SMOOTH",
"937 126 OFFCURVE",
"880.667 151.833 OFFCURVE",
"840 203.5 CURVE SMOOTH",
"799.333 255.167 OFFCURVE",
"779 332.667 OFFCURVE",
"779 436 CURVE SMOOTH",
"779 456 LINE SMOOTH",
"779 462.667 OFFCURVE",
"779.333 469.333 OFFCURVE",
"780 476 CURVE",
"898.667 478 OFFCURVE",
"997 488.167 OFFCURVE",
"1075 506.5 CURVE SMOOTH",
"1153 524.833 OFFCURVE",
"1214.83 548.167 OFFCURVE",
"1260.5 576.5 CURVE SMOOTH",
"1306.17 604.833 OFFCURVE",
"1338.17 637 OFFCURVE",
"1356.5 673 CURVE SMOOTH",
"1374.83 709 OFFCURVE",
"1384 746 OFFCURVE",
"1384 784 CURVE SMOOTH",
"1384 818 OFFCURVE",
"1377 849.833 OFFCURVE",
"1363 879.5 CURVE SMOOTH",
"1349 909.167 OFFCURVE",
"1329.5 935 OFFCURVE",
"1304.5 957 CURVE SMOOTH",
"1279.5 979 OFFCURVE",
"1250 996.167 OFFCURVE",
"1216 1008.5 CURVE SMOOTH",
"1182 1020.83 OFFCURVE",
"1145 1027 OFFCURVE",
"1105 1027 CURVE SMOOTH"
);
},
{
closed = 1;
nodes = (
"609 401 LINE SMOOTH",
"603 351.667 OFFCURVE",
"591.333 308.5 OFFCURVE",
"574 271.5 CURVE SMOOTH",
"556.667 234.5 OFFCURVE",
"535.5 203.667 OFFCURVE",
"510.5 179 CURVE SMOOTH",
"485.5 154.333 OFFCURVE",
"457.5 135.833 OFFCURVE",
"426.5 123.5 CURVE SMOOTH",
"395.5 111.167 OFFCURVE",
"362.667 105 OFFCURVE",
"328 105 CURVE SMOOTH",
"284.667 105 OFFCURVE",
"250 116.5 OFFCURVE",
"224 139.5 CURVE SMOOTH",
"198 162.5 OFFCURVE",
"185 198 OFFCURVE",
"185 246 CURVE SMOOTH",
"185 279.333 OFFCURVE",
"192.5 309.5 OFFCURVE",
"207.5 336.5 CURVE SMOOTH",
"222.5 363.5 OFFCURVE",
"247.167 387 OFFCURVE",
"281.5 407 CURVE SMOOTH",
"315.833 427 OFFCURVE",
"360.667 443.167 OFFCURVE",
"416 455.5 CURVE SMOOTH",
"471.333 467.833 OFFCURVE",
"539 475.667 OFFCURVE",
"619 479 CURVE"
);
},
{
closed = 1;
nodes = (
"1129.67 900 OFFCURVE",
"1165.5 888.667 OFFCURVE",
"1190.5 866 CURVE SMOOTH",
"1215.5 843.333 OFFCURVE",
"1228 813 OFFCURVE",
"1228 775 CURVE SMOOTH",
"1228 751 OFFCURVE",
"1221.33 728.333 OFFCURVE",
"1208 707 CURVE SMOOTH",
"1194.67 685.667 OFFCURVE",
"1171.5 666.5 OFFCURVE",
"1138.5 649.5 CURVE SMOOTH",
"1105.5 632.5 OFFCURVE",
"1060.83 618 OFFCURVE",
"1004.5 606 CURVE SMOOTH",
"948.167 594 OFFCURVE",
"876.667 585.667 OFFCURVE",
"790 581 CURVE",
"798 629 OFFCURVE",
"810.333 672.667 OFFCURVE",
"827 712 CURVE SMOOTH",
"843.667 751.333 OFFCURVE",
"864.167 785 OFFCURVE",
"888.5 813 CURVE SMOOTH",
"912.833 841 OFFCURVE",
"941.333 862.5 OFFCURVE",
"974 877.5 CURVE SMOOTH",
"1006.67 892.5 OFFCURVE",
"1043 900 OFFCURVE",
"1083 900 CURVE SMOOTH"
);
}
);
width = 1485;
}
);
leftKerningGroup = a;
rightKerningGroup = e;
unicode = 00E6;
},
{
glyphname = b;
layers = (
{
layerId = "28213FCA-CDAC-4A0A-BF59-EE4F382E99BB";
name = "Regular Italic";
paths = (
{
closed = 1;
nodes = (
"59 0 LINE",
"153 0 LINE SMOOTH",
"173.667 0 OFFCURVE",
"188 4.33333 OFFCURVE",
"196 13 CURVE SMOOTH",
"204 21.6667 OFFCURVE",
"210.667 34.6667 OFFCURVE",
"216 52 CURVE",
"230 117 LINE",
"258 75 OFFCURVE",
"293.833 42.6667 OFFCURVE",
"337.5 20 CURVE SMOOTH",
"381.167 -3 OFFCURVE",
"430 -14 OFFCURVE",
"484 -14 CURVE SMOOTH",
"530.667 -14 OFFCURVE",
"575.333 -5 OFFCURVE",
"618 13 CURVE SMOOTH",
"660.667 31 OFFCURVE",
"700.167 55.8333 OFFCURVE",
"736.5 87.5 CURVE SMOOTH",
"772.833 119.167 OFFCURVE",
"805.833 156.5 OFFCURVE",
"835.5 199.5 CURVE SMOOTH",
"865.167 242.5 OFFCURVE",
"890.5 288.833 OFFCURVE",
"911.5 338.5 CURVE SMOOTH",
"932.5 388.167 OFFCURVE",
"948.667 440.333 OFFCURVE",
"960 495 CURVE SMOOTH",
"971.333 549.667 OFFCURVE",
"977 604.333 OFFCURVE",
"977 659 CURVE SMOOTH",
"977 779.667 OFFCURVE",
"953 871.333 OFFCURVE",
"905 934 CURVE SMOOTH",
"857 996.667 OFFCURVE",
"789.667 1028 OFFCURVE",
"703 1028 CURVE SMOOTH",
"667 1028 OFFCURVE",
"631.667 1021.5 OFFCURVE",
"597 1008.5 CURVE SMOOTH",
"562.333 995.5 OFFCURVE",
"529 977.167 OFFCURVE",
"497 953.5 CURVE SMOOTH",
"465 929.833 OFFCURVE",
"434.333 901.333 OFFCURVE",
"405 868 CURVE SMOOTH",
"375.667 834.667 OFFCURVE",
"348.333 797.333 OFFCURVE",
"323 756 CURVE",
"411 1473 LINE",
"237 1473 LINE"
);
},
{
closed = 1;
nodes = (
"689 885 OFFCURVE",
"729.167 864.334 OFFCURVE",
"757.5 823 CURVE SMOOTH",
"785.833 781.667 OFFCURVE",
"800 721.334 OFFCURVE",
"800 642 CURVE SMOOTH",
"800 602 OFFCURVE",
"796.5 561.5 OFFCURVE",
"789.5 520.5 CURVE SMOOTH",
"782.5 479.5 OFFCURVE",
"772 439.834 OFFCURVE",
"758 401.5 CURVE SMOOTH",
"744 363.167 OFFCURVE",
"727.167 327.167 OFFCURVE",
"707.5 293.5 CURVE SMOOTH",
"687.833 259.834 OFFCURVE",
"665.333 230.5 OFFCURVE",
"640 205.5 CURVE SMOOTH",
"614.667 180.5 OFFCURVE",
"586.667 160.667 OFFCURVE",
"556 146 CURVE SMOOTH",
"525.333 131.334 OFFCURVE",
"492.667 124 OFFCURVE",
"458 124 CURVE SMOOTH",
"421.333 124 OFFCURVE",
"385.167 131.334 OFFCURVE",
"349.5 146 CURVE SMOOTH",
"313.833 160.667 OFFCURVE",
"283.333 186 OFFCURVE",
"258 222 CURVE",
"290 484 LINE",
"309.333 542 OFFCURVE",
"332.167 595.5 OFFCURVE",
"358.5 644.5 CURVE SMOOTH",
"384.833 693.5 OFFCURVE",
"413.333 735.834 OFFCURVE",
"444 771.5 CURVE SMOOTH",
"474.667 807.167 OFFCURVE",
"506.5 835 OFFCURVE",
"539.5 855 CURVE SMOOTH",
"572.5 875 OFFCURVE",
"605 885 OFFCURVE",
"637 885 CURVE SMOOTH"
);
}
);
width = 1057;
}
);
leftKerningGroup = b;
rightKerningGroup = b;
unicode = 0062;
},
{
glyphname = c;
layers = (
{
layerId = "28213FCA-CDAC-4A0A-BF59-EE4F382E99BB";
name = "Regular Italic";
paths = (
{
closed = 1;
nodes = (
"818 182 LINE",
"774 236 LINE",
"764 247.333 OFFCURVE",
"752.667 253 OFFCURVE",
"740 253 CURVE SMOOTH",
"726 253 OFFCURVE",
"711.833 246.333 OFFCURVE",
"697.5 233 CURVE SMOOTH",
"683.167 219.667 OFFCURVE",
"665.667 205.167 OFFCURVE",
"645 189.5 CURVE SMOOTH",
"624.333 173.833 OFFCURVE",
"598.833 159.333 OFFCURVE",
"568.5 146 CURVE SMOOTH",
"538.167 132.667 OFFCURVE",
"500.667 126 OFFCURVE",
"456 126 CURVE SMOOTH",
"420 126 OFFCURVE",
"388.5 132.5 OFFCURVE",
"361.5 145.5 CURVE SMOOTH",
"334.5 158.5 OFFCURVE",
"311.667 176.833 OFFCURVE",
"293 200.5 CURVE SMOOTH",
"274.333 224.167 OFFCURVE",
"260.333 252.833 OFFCURVE",
"251 286.5 CURVE SMOOTH",
"241.667 320.167 OFFCURVE",
"237 357.667 OFFCURVE",
"237 399 CURVE SMOOTH",
"237 467 OFFCURVE",
"245.833 530.667 OFFCURVE",
"263.5 590 CURVE SMOOTH",
"281.167 649.333 OFFCURVE",
"305.333 700.667 OFFCURVE",
"336 744 CURVE SMOOTH",
"366.667 787.333 OFFCURVE",
"402.333 821.5 OFFCURVE",
"443 846.5 CURVE SMOOTH",
"483.667 871.5 OFFCURVE",
"527 884 OFFCURVE",
"573 884 CURVE SMOOTH",
"607 884 OFFCURVE",
"634.833 879.833 OFFCURVE",
"656.5 871.5 CURVE SMOOTH",
"678.167 863.167 OFFCURVE",
"696.333 853.833 OFFCURVE",
"711 843.5 CURVE SMOOTH",
"725.667 833.167 OFFCURVE",
"737.5 823.833 OFFCURVE",
"746.5 815.5 CURVE SMOOTH",
"755.5 807.167 OFFCURVE",
"764.667 803 OFFCURVE",
"774 803 CURVE SMOOTH",
"781.333 803 OFFCURVE",
"787.833 804.667 OFFCURVE",
"793.5 808 CURVE SMOOTH",
"799.167 811.333 OFFCURVE",
"804.333 815.667 OFFCURVE",
"809 821 CURVE SMOOTH",
"865 888 LINE",
"831 933.333 OFFCURVE",
"791.333 967.833 OFFCURVE",
"746 991.5 CURVE SMOOTH",
"700.667 1015.17 OFFCURVE",
"644.333 1027 OFFCURVE",
"577 1027 CURVE SMOOTH",
"501.667 1027 OFFCURVE",
"432.167 1009.67 OFFCURVE",
"368.5 975 CURVE SMOOTH",
"304.833 940.333 OFFCURVE",
"250 894 OFFCURVE",
"204 836 CURVE SMOOTH",
"158 778 OFFCURVE",
"122.167 711.333 OFFCURVE",
"96.5 636 CURVE SMOOTH",
"70.8334 560.667 OFFCURVE",
"58 482 OFFCURVE",
"58 400 CURVE SMOOTH",
"58 338.667 OFFCURVE",
"65.8334 282.5 OFFCURVE",
"81.5 231.5 CURVE SMOOTH",
"97.1667 180.5 OFFCURVE",
"120.167 136.833 OFFCURVE",
"150.5 100.5 CURVE SMOOTH",
"180.833 64.1667 OFFCURVE",
"218.5 36 OFFCURVE",
"263.5 16 CURVE SMOOTH",
"308.5 -4 OFFCURVE",
"360.333 -14 OFFCURVE",
"419 -14 CURVE SMOOTH",
"457.667 -14 OFFCURVE",
"493.833 -11 OFFCURVE",
"527.5 -5 CURVE SMOOTH",
"561.167 1 OFFCURVE",
"593.667 11.5 OFFCURVE",
"625 26.5 CURVE SMOOTH",
"656.333 41.5 OFFCURVE",
"687.667 61.6667 OFFCURVE",
"719 87 CURVE SMOOTH",
"750.333 112.333 OFFCURVE",
"783.333 144 OFFCURVE",
"818 182 CURVE"
);
}
);
width = 909;
}
);
leftKerningGroup = c;
rightKerningGroup = c;
unicode = 0063;
},
{
glyphname = ccedilla;
layers = (
{
layerId = "28213FCA-CDAC-4A0A-BF59-EE4F382E99BB";
name = "Regular Italic";
paths = (
{
closed = 1;
nodes = (
"265 -253 OFFCURVE",
"256.667 -259 OFFCURVE",
"252 -271 CURVE",
"228 -326 LINE",
"246 -335 OFFCURVE",
"266 -343 OFFCURVE",
"288 -349 CURVE SMOOTH",
"310 -354 OFFCURVE",
"333.667 -357 OFFCURVE",
"359 -357 CURVE SMOOTH",
"391 -357 OFFCURVE",
"420.667 -354 OFFCURVE",
"448 -347 CURVE SMOOTH",
"475.333 -340 OFFCURVE",
"499 -329 OFFCURVE",
"519 -316 CURVE SMOOTH",
"539 -303 OFFCURVE",
"554.5 -286 OFFCURVE",
"565.5 -267 CURVE SMOOTH",
"576.5 -248 OFFCURVE",
"582 -226 OFFCURVE",
"582 -202 CURVE SMOOTH",
"582 -171 OFFCURVE",
"570.5 -145 OFFCURVE",
"547.5 -124 CURVE SMOOTH",
"524.5 -103 OFFCURVE",
"487.667 -87 OFFCURVE",
"437 -76 CURVE",
"461 -12 LINE",
"494.333 -10 OFFCURVE",
"525.833 -5 OFFCURVE",
"555.5 2 CURVE SMOOTH",
"585.167 9.33333 OFFCURVE",
"614.167 20.5 OFFCURVE",
"642.5 35.5 CURVE SMOOTH",
"670.833 50.5 OFFCURVE",
"699.333 70 OFFCURVE",
"728 94 CURVE SMOOTH",
"756.667 118 OFFCURVE",
"786.667 147.333 OFFCURVE",
"818 182 CURVE",
"774 236 LINE",
"764 247.333 OFFCURVE",
"752.667 253 OFFCURVE",
"740 253 CURVE SMOOTH",
"726 253 OFFCURVE",
"711.833 246.333 OFFCURVE",
"697.5 233 CURVE SMOOTH",
"683.167 219.667 OFFCURVE",
"665.667 205.167 OFFCURVE",
"645 189.5 CURVE SMOOTH",
"624.333 173.833 OFFCURVE",
"598.833 159.333 OFFCURVE",
"568.5 146 CURVE SMOOTH",
"538.167 132.667 OFFCURVE",
"500.667 126 OFFCURVE",
"456 126 CURVE SMOOTH",
"420 126 OFFCURVE",
"388.5 132.5 OFFCURVE",
"361.5 145.5 CURVE SMOOTH",
"334.5 158.5 OFFCURVE",
"311.667 176.833 OFFCURVE",
"293 200.5 CURVE SMOOTH",
"274.333 224.167 OFFCURVE",
"260.333 252.833 OFFCURVE",
"251 286.5 CURVE SMOOTH",
"241.667 320.167 OFFCURVE",
"237 357.667 OFFCURVE",
"237 399 CURVE SMOOTH",
"237 467 OFFCURVE",
"245.833 530.667 OFFCURVE",
"263.5 590 CURVE SMOOTH",
"281.167 649.333 OFFCURVE",
"305.333 700.667 OFFCURVE",
"336 744 CURVE SMOOTH",
"366.667 787.333 OFFCURVE",
"402.333 821.5 OFFCURVE",
"443 846.5 CURVE SMOOTH",
"483.667 871.5 OFFCURVE",
"527 884 OFFCURVE",
"573 884 CURVE SMOOTH",
"607 884 OFFCURVE",
"634.833 879.833 OFFCURVE",
"656.5 871.5 CURVE SMOOTH",
"678.167 863.167 OFFCURVE",
"696.333 853.833 OFFCURVE",
"711 843.5 CURVE SMOOTH",
"725.667 833.167 OFFCURVE",
"737.5 823.833 OFFCURVE",
"746.5 815.5 CURVE SMOOTH",
"755.5 807.167 OFFCURVE",
"764.667 803 OFFCURVE",
"774 803 CURVE SMOOTH",
"781.333 803 OFFCURVE",
"787.833 804.667 OFFCURVE",
"793.5 808 CURVE SMOOTH",
"799.167 811.333 OFFCURVE",
"804.333 815.667 OFFCURVE",
"809 821 CURVE SMOOTH",
"865 888 LINE",
"831 933.333 OFFCURVE",
"791.333 967.833 OFFCURVE",
"746 991.5 CURVE SMOOTH",
"700.667 1015.17 OFFCURVE",
"644.333 1027 OFFCURVE",
"577 1027 CURVE SMOOTH",
"501.667 1027 OFFCURVE",
"432.167 1009.67 OFFCURVE",
"368.5 975 CURVE SMOOTH",
"304.833 940.333 OFFCURVE",
"250 894 OFFCURVE",
"204 836 CURVE SMOOTH",
"158 778 OFFCURVE",
"122.167 711.333 OFFCURVE",
"96.5 636 CURVE SMOOTH",
"70.8334 560.667 OFFCURVE",
"58 482 OFFCURVE",
"58 400 CURVE SMOOTH",
"58 344 OFFCURVE",
"64.5 292.333 OFFCURVE",
"77.5 245 CURVE SMOOTH",
"90.5 197.667 OFFCURVE",
"109.833 156.167 OFFCURVE",
"135.5 120.5 CURVE SMOOTH",
"161.167 84.8333 OFFCURVE",
"192.667 55.8333 OFFCURVE",
"230 33.5 CURVE SMOOTH",
"267.333 11.1667 OFFCURVE",
"310.667 -3 OFFCURVE",
"360 -10 CURVE",
"305 -137 LINE",
"348.333 -143 OFFCURVE",
"381.833 -151 OFFCURVE",
"405.5 -161 CURVE SMOOTH",
"429.167 -170 OFFCURVE",
"441 -186 OFFCURVE",
"441 -209 CURVE SMOOTH",
"441 -228 OFFCURVE",
"434 -244 OFFCURVE",
"420 -257 CURVE SMOOTH",
"406 -270 OFFCURVE",
"385.667 -276 OFFCURVE",
"359 -276 CURVE SMOOTH",
"346.333 -276 OFFCURVE",
"335.667 -275 OFFCURVE",
"327 -273 CURVE SMOOTH",
"318.333 -270 OFFCURVE",
"311 -268 OFFCURVE",
"305 -265 CURVE SMOOTH",
"299 -262 OFFCURVE",
"293.833 -259 OFFCURVE",
"289.5 -257 CURVE SMOOTH",
"285.167 -254 OFFCURVE",
"281 -253 OFFCURVE",
"277 -253 CURVE SMOOTH"
);
}
);
width = 909;
}
);
leftKerningGroup = c;
rightKerningGroup = c;
unicode = 00E7;
},
{
glyphname = d;
layers = (
{
layerId = "28213FCA-CDAC-4A0A-BF59-EE4F382E99BB";
name = "Regular Italic";
paths = (
{
closed = 1;
nodes = (
"851 0 LINE",
"1032 1473 LINE",
"858 1473 LINE",
"788 915 LINE",
"760 951 OFFCURVE",
"725.5 978.833 OFFCURVE",
"684.5 998.5 CURVE SMOOTH",
"643.5 1018.17 OFFCURVE",
"598 1028 OFFCURVE",
"548 1028 CURVE SMOOTH",
"501.333 1028 OFFCURVE",
"456.833 1019 OFFCURVE",
"414.5 1001 CURVE SMOOTH",
"372.167 983 OFFCURVE",
"332.667 958.333 OFFCURVE",
"296 927 CURVE SMOOTH",
"259.333 895.667 OFFCURVE",
"226.167 858.5 OFFCURVE",
"196.5 815.5 CURVE SMOOTH",
"166.833 772.5 OFFCURVE",
"141.5 726 OFFCURVE",
"120.5 676 CURVE SMOOTH",
"99.5 626 OFFCURVE",
"83.3333 573.667 OFFCURVE",
"72 519 CURVE SMOOTH",
"60.6667 464.333 OFFCURVE",
"55 409.667 OFFCURVE",
"55 355 CURVE SMOOTH",
"55 235 OFFCURVE",
"79 143.5 OFFCURVE",
"127 80.5 CURVE SMOOTH",
"175 17.5 OFFCURVE",
"242.333 -14 OFFCURVE",
"329 -14 CURVE SMOOTH",
"365.667 -14 OFFCURVE",
"401.833 -7 OFFCURVE",
"437.5 6.5 CURVE SMOOTH",
"473.167 20.1667 OFFCURVE",
"507.5 39.6667 OFFCURVE",
"540.5 65 CURVE SMOOTH",
"573.5 90.3333 OFFCURVE",
"605 120.667 OFFCURVE",
"635 156 CURVE SMOOTH",
"665 191.333 OFFCURVE",
"692.667 231 OFFCURVE",
"718 275 CURVE",
"699 62 LINE",
"699 44.6667 OFFCURVE",
"703 30 OFFCURVE",
"711 18 CURVE SMOOTH",
"719 6 OFFCURVE",
"734.667 0 OFFCURVE",
"758 0 CURVE SMOOTH"
);
},
{
closed = 1;
nodes = (
"343.333 129 OFFCURVE",
"302.833 149.833 OFFCURVE",
"274.5 191.5 CURVE SMOOTH",
"246.167 233.167 OFFCURVE",
"232 293.667 OFFCURVE",
"232 373 CURVE SMOOTH",
"232 432.333 OFFCURVE",
"240 492.667 OFFCURVE",
"256 554 CURVE SMOOTH",
"272 615.333 OFFCURVE",
"294.833 670.833 OFFCURVE",
"324.5 720.5 CURVE SMOOTH",
"354.167 770.167 OFFCURVE",
"390 810.667 OFFCURVE",
"432 842 CURVE SMOOTH",
"474 873.333 OFFCURVE",
"521.333 889 OFFCURVE",
"574 889 CURVE SMOOTH",
"610 889 OFFCURVE",
"645.833 881.667 OFFCURVE",
"681.5 867 CURVE SMOOTH",
"717.167 852.333 OFFCURVE",
"747.667 827.333 OFFCURVE",
"773 792 CURVE",
"741 529 LINE",
"721.667 471 OFFCURVE",
"698.667 417.5 OFFCURVE",
"672 368.5 CURVE SMOOTH",
"645.333 319.5 OFFCURVE",
"616.833 277.333 OFFCURVE",
"586.5 242 CURVE SMOOTH",
"556.167 206.667 OFFCURVE",
"524.833 179 OFFCURVE",
"492.5 159 CURVE SMOOTH",
"460.167 139 OFFCURVE",
"428 129 OFFCURVE",
"396 129 CURVE SMOOTH"
);
}
);
width = 1058;
}
);
leftKerningGroup = d;
rightKerningGroup = d;
unicode = 0064;
},
{
glyphname = eth;
layers = (
{
layerId = "28213FCA-CDAC-4A0A-BF59-EE4F382E99BB";
name = "Regular Italic";
paths = (
{
closed = 1;
nodes = (
"485 1008 LINE",
"676 1145 LINE",
"726.667 1099 OFFCURVE",
"764.667 1043.17 OFFCURVE",
"790 977.5 CURVE SMOOTH",
"815.333 911.833 OFFCURVE",
"828.667 833.667 OFFCURVE",
"830 743 CURVE",
"798 805 OFFCURVE",
"756 851.167 OFFCURVE",
"704 881.5 CURVE SMOOTH",
"652 911.833 OFFCURVE",
"593.667 927 OFFCURVE",
"529 927 CURVE SMOOTH",
"459 927 OFFCURVE",
"395 912.833 OFFCURVE",
"337 884.5 CURVE SMOOTH",
"279 856.167 OFFCURVE",
"229.167 818 OFFCURVE",
"187.5 770 CURVE SMOOTH",
"145.833 722 OFFCURVE",
"113.5 665.833 OFFCURVE",
"90.4999 601.5 CURVE SMOOTH",
"67.4999 537.167 OFFCURVE",
"55.9999 469 OFFCURVE",
"55.9999 397 CURVE SMOOTH",
"55.9999 333.667 OFFCURVE",
"65.3333 276.833 OFFCURVE",
"83.9999 226.5 CURVE SMOOTH",
"102.667 176.167 OFFCURVE",
"128.667 133.167 OFFCURVE",
"162 97.5 CURVE SMOOTH",
"195.333 61.8333 OFFCURVE",
"235 34.5 OFFCURVE",
"281 15.5 CURVE SMOOTH",
"327 -4 OFFCURVE",
"377.667 -13 OFFCURVE",
"433 -13 CURVE SMOOTH",
"519.667 -13 OFFCURVE",
"596.333 4.83328 OFFCURVE",
"663 40.5 CURVE SMOOTH",
"729.667 76.1666 OFFCURVE",
"785.667 126.333 OFFCURVE",
"831 191 CURVE SMOOTH",
"876.333 255.667 OFFCURVE",
"910.667 333.167 OFFCURVE",
"934 423.5 CURVE SMOOTH",
"957.333 513.833 OFFCURVE",
"969 614 OFFCURVE",
"969 724 CURVE SMOOTH",
"969 834 OFFCURVE",
"953.167 929.167 OFFCURVE",
"921.5 1009.5 CURVE SMOOTH",
"889.833 1089.83 OFFCURVE",
"847 1158 OFFCURVE",
"793 1214 CURVE",
"907 1297 LINE",
"918.333 1303.67 OFFCURVE",
"924.5 1311.83 OFFCURVE",
"925.5 1321.5 CURVE SMOOTH",
"926.5 1331.17 OFFCURVE",
"924.667 1340 OFFCURVE",
"920 1348 CURVE",
"891 1405 LINE",
"716 1281 LINE",
"670 1315 OFFCURVE",
"619.833 1342.67 OFFCURVE",
"565.5 1364 CURVE SMOOTH",
"511.167 1385.33 OFFCURVE",
"454.667 1401.33 OFFCURVE",
"396 1412 CURVE",
"370 1357 LINE SMOOTH",
"362 1339.67 OFFCURVE",
"360 1324.83 OFFCURVE",
"364 1312.5 CURVE SMOOTH",
"368 1300.17 OFFCURVE",
"380 1290.67 OFFCURVE",
"400 1284 CURVE",
"436.667 1274 OFFCURVE",
"471 1262.67 OFFCURVE",
"503 1250 CURVE SMOOTH",
"535 1237.33 OFFCURVE",
"564.667 1223 OFFCURVE",
"592 1207 CURVE",
"463 1112 LINE SMOOTH",
"455.667 1106.67 OFFCURVE",
"450.833 1099.67 OFFCURVE",
"448.5 1091 CURVE SMOOTH",
"446.167 1082.33 OFFCURVE",
"447.667 1073.67 OFFCURVE",
"453 1065 CURVE"
);
},
{
closed = 1;
nodes = (
"421 121 OFFCURVE",
"391.167 127.5 OFFCURVE",
"363.5 140.5 CURVE SMOOTH",
"335.833 153.5 OFFCURVE",
"311.833 172.166 OFFCURVE",
"291.5 196.5 CURVE SMOOTH",
"271.167 220.833 OFFCURVE",
"255.333 250.666 OFFCURVE",
"244 286 CURVE SMOOTH",
"232.667 321.333 OFFCURVE",
"227 361.333 OFFCURVE",
"227 406 CURVE SMOOTH",
"227 460 OFFCURVE",
"234.167 510.5 OFFCURVE",
"248.5 557.5 CURVE SMOOTH",
"262.833 604.5 OFFCURVE",
"283.667 645.5 OFFCURVE",
"311 680.5 CURVE SMOOTH",
"338.333 715.5 OFFCURVE",
"371.833 743 OFFCURVE",
"411.5 763 CURVE SMOOTH",
"451.167 783 OFFCURVE",
"496 793 OFFCURVE",
"546 793 CURVE SMOOTH",
"583.333 793 OFFCURVE",
"616 786.666 OFFCURVE",
"644 774 CURVE SMOOTH",
"672 761.333 OFFCURVE",
"696 744.666 OFFCURVE",
"716 724 CURVE SMOOTH",
"736 703.333 OFFCURVE",
"752.333 679.5 OFFCURVE",
"765 652.5 CURVE SMOOTH",
"777.667 625.5 OFFCURVE",
"787.333 597.666 OFFCURVE",
"794 569 CURVE",
"783.333 489.666 OFFCURVE",
"767.667 421.666 OFFCURVE",
"747 365 CURVE SMOOTH",
"726.333 308.333 OFFCURVE",
"701.5 262 OFFCURVE",
"672.5 226 CURVE SMOOTH",
"643.5 190 OFFCURVE",
"610.5 163.5 OFFCURVE",
"573.5 146.5 CURVE SMOOTH",
"536.5 129.5 OFFCURVE",
"496.333 121 OFFCURVE",
"453 121 CURVE SMOOTH"
);
}
);
width = 1054;
}
);
leftKerningGroup = eth;
rightKerningGroup = eth;
unicode = 00F0;
},
{
glyphname = e;
lastChange = "2014-08-20 05:16:29 -0500";
layers = (
{
layerId = "28213FCA-CDAC-4A0A-BF59-EE4F382E99BB";
name = "Regular Italic";
paths = (
{
closed = 1;
nodes = (
"880 821 OFFCURVE",
"874 847 OFFCURVE",
"863 874 CURVE SMOOTH",
"851 901 OFFCURVE",
"833 926 OFFCURVE",
"809 949 CURVE SMOOTH",
"785 972 OFFCURVE",
"754 990 OFFCURVE",
"717 1005 CURVE SMOOTH",
"680 1020 OFFCURVE",
"635 1027 OFFCURVE",
"584 1027 CURVE SMOOTH",
"530 1027 OFFCURVE",
"480 1019 OFFCURVE",
"433 1002 CURVE SMOOTH",
"386 985 OFFCURVE",
"343 963 OFFCURVE",
"304 934 CURVE SMOOTH",
"265 905 OFFCURVE",
"230 870 OFFCURVE",
"200 830 CURVE SMOOTH",
"169 790 OFFCURVE",
"144 747 OFFCURVE",
"123 700 CURVE SMOOTH",
"102 653 OFFCURVE",
"86 604 OFFCURVE",
"75 553 CURVE SMOOTH",
"64 501 OFFCURVE",
"58 449 OFFCURVE",
"58 397 CURVE SMOOTH",
"58 334 OFFCURVE",
"67 278 OFFCURVE",
"84 227 CURVE SMOOTH",
"101 176 OFFCURVE",
"126 133 OFFCURVE",
"158 98 CURVE SMOOTH",
"190 62 OFFCURVE",
"229 34 OFFCURVE",
"275 15 CURVE SMOOTH",
"321 -4 OFFCURVE",
"373 -14 OFFCURVE",
"431 -14 CURVE SMOOTH",
"474 -14 OFFCURVE",
"514 -10 OFFCURVE",
"551 -2 CURVE SMOOTH",
"588 5 OFFCURVE",
"623 17 OFFCURVE",
"657 34 CURVE SMOOTH",
"690 51 OFFCURVE",
"723 72 OFFCURVE",
"756 97 CURVE SMOOTH",
"789 122 OFFCURVE",
"822 152 OFFCURVE",
"856 187 CURVE",
"812 242 LINE",
"802 253 OFFCURVE",
"791 259 OFFCURVE",
"778 259 CURVE SMOOTH",
"767 259 OFFCURVE",
"757 256 OFFCURVE",
"746 249 CURVE SMOOTH",
"735 242 OFFCURVE",
"724 234 OFFCURVE",
"712 225 CURVE SMOOTH",
"699 215 OFFCURVE",
"686 204 OFFCURVE",
"671 193 CURVE SMOOTH",
"656 181 OFFCURVE",
"638 170 OFFCURVE",
"619 161 CURVE SMOOTH",
"599 151 OFFCURVE",
"577 143 OFFCURVE",
"552 136 CURVE SMOOTH",
"527 129 OFFCURVE",
"498 126 OFFCURVE",
"466 126 CURVE SMOOTH",
"387 126 OFFCURVE",
"329 150 OFFCURVE",
"290 197 CURVE SMOOTH",
"251 244 OFFCURVE",
"231 312 OFFCURVE",
"231 401 CURVE SMOOTH",
"231 410 LINE SMOOTH",
"231 417 OFFCURVE",
"231 424 OFFCURVE",
"232 431 CURVE",
"364 444 OFFCURVE",
"472 455 OFFCURVE",
"556 487 CURVE SMOOTH",
"641 519 OFFCURVE",
"706 545 OFFCURVE",
"754 575 CURVE SMOOTH",
"802 604 OFFCURVE",
"835 638 OFFCURVE",
"853 675 CURVE SMOOTH",
"871 712 OFFCURVE",
"880 752 OFFCURVE",
"880 796 CURVE SMOOTH"
);
},
{
closed = 1;
nodes = (
"601 899 OFFCURVE",
"623 896 OFFCURVE",
"642 889 CURVE SMOOTH",
"661 882 OFFCURVE",
"676 873 OFFCURVE",
"688 862 CURVE SMOOTH",
"699 851 OFFCURVE",
"708 840 OFFCURVE",
"713 827 CURVE SMOOTH",
"718 814 OFFCURVE",
"721 801 OFFCURVE",
"721 789 CURVE SMOOTH",
"721 765 OFFCURVE",
"716 742 OFFCURVE",
"705 720 CURVE SMOOTH",
"694 698 OFFCURVE",
"672 678 OFFCURVE",
"639 659 CURVE SMOOTH",
"606 640 OFFCURVE",
"560 623 OFFCURVE",
"496 596 CURVE SMOOTH",
"434 570 OFFCURVE",
"352 562 OFFCURVE",
"249 549 CURVE",
"260 596 OFFCURVE",
"275 654 OFFCURVE",
"294 695 CURVE SMOOTH",
"313 736 OFFCURVE",
"337 771 OFFCURVE",
"364 802 CURVE SMOOTH",
"391 832 OFFCURVE",
"423 856 OFFCURVE",
"458 873 CURVE SMOOTH",
"493 890 OFFCURVE",
"532 899 OFFCURVE",
"574 899 CURVE SMOOTH"
);
}
);
width = 957;
}
);
leftKerningGroup = c;
rightKerningGroup = e;
unicode = 0065;
},
{
glyphname = eacute;
lastChange = "2014-08-20 05:16:39 -0500";
layers = (
{
layerId = "28213FCA-CDAC-4A0A-BF59-EE4F382E99BB";
name = "Regular Italic";
paths = (
{
closed = 1;
nodes = (
"900 1449 LINE",
"740 1449 LINE SMOOTH",
"720 1449 OFFCURVE",
"704.5 1445.5 OFFCURVE",
"693.5 1438.5 CURVE SMOOTH",
"682.5 1431.5 OFFCURVE",
"672 1420.33 OFFCURVE",
"662 1405 CURVE SMOOTH",
"499 1163 LINE",
"597 1163 LINE SMOOTH",
"609.667 1163 OFFCURVE",
"620.333 1165.17 OFFCURVE",
"629 1169.5 CURVE SMOOTH",
"637.667 1173.83 OFFCURVE",
"646.667 1181 OFFCURVE",
"656 1191 CURVE SMOOTH"
);
},
{
closed = 1;
nodes = (
"880 821 OFFCURVE",
"874 847 OFFCURVE",
"863 874 CURVE SMOOTH",
"851 901 OFFCURVE",
"833 926 OFFCURVE",
"809 949 CURVE SMOOTH",
"785 972 OFFCURVE",
"754 990 OFFCURVE",
"717 1005 CURVE SMOOTH",
"680 1020 OFFCURVE",
"635 1027 OFFCURVE",
"584 1027 CURVE SMOOTH",
"530 1027 OFFCURVE",
"480 1019 OFFCURVE",
"433 1002 CURVE SMOOTH",
"386 985 OFFCURVE",
"343 963 OFFCURVE",
"304 934 CURVE SMOOTH",
"265 905 OFFCURVE",
"230 870 OFFCURVE",
"200 830 CURVE SMOOTH",
"169 790 OFFCURVE",
"144 747 OFFCURVE",
"123 700 CURVE SMOOTH",
"102 653 OFFCURVE",
"86 604 OFFCURVE",
"75 553 CURVE SMOOTH",
"64 501 OFFCURVE",
"58 449 OFFCURVE",
"58 397 CURVE SMOOTH",
"58 334 OFFCURVE",
"67 278 OFFCURVE",
"84 227 CURVE SMOOTH",
"101 176 OFFCURVE",
"126 133 OFFCURVE",
"158 98 CURVE SMOOTH",
"190 62 OFFCURVE",
"229 34 OFFCURVE",
"275 15 CURVE SMOOTH",
"321 -4 OFFCURVE",
"373 -14 OFFCURVE",
"431 -14 CURVE SMOOTH",
"474 -14 OFFCURVE",
"514 -10 OFFCURVE",
"551 -2 CURVE SMOOTH",
"588 5 OFFCURVE",
"623 17 OFFCURVE",
"657 34 CURVE SMOOTH",
"690 51 OFFCURVE",
"723 72 OFFCURVE",
"756 97 CURVE SMOOTH",
"789 122 OFFCURVE",
"822 152 OFFCURVE",
"856 187 CURVE",
"812 242 LINE",
"802 253 OFFCURVE",
"791 259 OFFCURVE",
"778 259 CURVE SMOOTH",
"767 259 OFFCURVE",
"757 256 OFFCURVE",
"746 249 CURVE SMOOTH",
"735 242 OFFCURVE",
"724 234 OFFCURVE",
"712 225 CURVE SMOOTH",
"699 215 OFFCURVE",
"686 204 OFFCURVE",
"671 193 CURVE SMOOTH",
"656 181 OFFCURVE",
"638 170 OFFCURVE",
"619 161 CURVE SMOOTH",
"599 151 OFFCURVE",
"577 143 OFFCURVE",
"552 136 CURVE SMOOTH",
"527 129 OFFCURVE",
"498 126 OFFCURVE",
"466 126 CURVE SMOOTH",
"387 126 OFFCURVE",
"329 150 OFFCURVE",
"290 197 CURVE SMOOTH",
"251 244 OFFCURVE",
"231 312 OFFCURVE",
"231 401 CURVE SMOOTH",
"231 410 LINE SMOOTH",
"231 417 OFFCURVE",
"231 424 OFFCURVE",
"232 431 CURVE",
"364 444 OFFCURVE",
"472 455 OFFCURVE",
"556 487 CURVE SMOOTH",
"641 519 OFFCURVE",
"706 545 OFFCURVE",
"754 575 CURVE SMOOTH",
"802 604 OFFCURVE",
"835 638 OFFCURVE",
"853 675 CURVE SMOOTH",
"871 712 OFFCURVE",
"880 752 OFFCURVE",
"880 796 CURVE SMOOTH"
);
},
{
closed = 1;
nodes = (
"601 899 OFFCURVE",
"623 896 OFFCURVE",
"642 889 CURVE SMOOTH",
"661 882 OFFCURVE",
"676 873 OFFCURVE",
"688 862 CURVE SMOOTH",
"699 851 OFFCURVE",
"708 840 OFFCURVE",
"713 827 CURVE SMOOTH",
"718 814 OFFCURVE",
"721 801 OFFCURVE",
"721 789 CURVE SMOOTH",
"721 765 OFFCURVE",
"716 742 OFFCURVE",
"705 720 CURVE SMOOTH",
"694 698 OFFCURVE",
"672 678 OFFCURVE",
"639 659 CURVE SMOOTH",
"606 640 OFFCURVE",
"560 623 OFFCURVE",
"496 596 CURVE SMOOTH",
"434 570 OFFCURVE",
"352 562 OFFCURVE",
"249 549 CURVE",
"260 596 OFFCURVE",
"275 654 OFFCURVE",
"294 695 CURVE SMOOTH",
"313 736 OFFCURVE",
"337 771 OFFCURVE",
"364 802 CURVE SMOOTH",
"391 832 OFFCURVE",
"423 856 OFFCURVE",
"458 873 CURVE SMOOTH",
"493 890 OFFCURVE",
"532 899 OFFCURVE",
"574 899 CURVE SMOOTH"
);
}
);
width = 957;
}
);
leftKerningGroup = c;
rightKerningGroup = e;
unicode = 00E9;
},
{
glyphname = ecircumflex;
lastChange = "2014-08-20 05:16:18 -0500";
layers = (
{
layerId = "28213FCA-CDAC-4A0A-BF59-EE4F382E99BB";
name = "Regular Italic";
paths = (
{
closed = 1;
nodes = (
"866 1169 LINE",
"690 1433 LINE",
"538 1433 LINE",
"303 1169 LINE",
"417 1169 LINE SMOOTH",
"432.333 1169 OFFCURVE",
"446.333 1175.33 OFFCURVE",
"459 1188 CURVE SMOOTH",
"589 1320 LINE",
"606 1339 LINE",
"612 1329 LINE SMOOTH",
"614 1325.67 OFFCURVE",
"616.333 1322.67 OFFCURVE",
"619 1320 CURVE",
"718 1188 LINE",
"724 1180.67 OFFCURVE",
"730.167 1175.67 OFFCURVE",
"736.5 1173 CURVE SMOOTH",
"742.833 1170.33 OFFCURVE",
"749.333 1169 OFFCURVE",
"756 1169 CURVE SMOOTH"
);
},
{
closed = 1;
nodes = (
"880 821 OFFCURVE",
"874 847 OFFCURVE",
"863 874 CURVE SMOOTH",
"851 901 OFFCURVE",
"833 926 OFFCURVE",
"809 949 CURVE SMOOTH",
"785 972 OFFCURVE",
"754 990 OFFCURVE",
"717 1005 CURVE SMOOTH",
"680 1020 OFFCURVE",
"635 1027 OFFCURVE",
"584 1027 CURVE SMOOTH",
"530 1027 OFFCURVE",
"480 1019 OFFCURVE",
"433 1002 CURVE SMOOTH",
"386 985 OFFCURVE",
"343 963 OFFCURVE",
"304 934 CURVE SMOOTH",
"265 905 OFFCURVE",
"230 870 OFFCURVE",
"200 830 CURVE SMOOTH",
"169 790 OFFCURVE",
"144 747 OFFCURVE",
"123 700 CURVE SMOOTH",
"102 653 OFFCURVE",
"86 604 OFFCURVE",
"75 553 CURVE SMOOTH",
"64 501 OFFCURVE",
"58 449 OFFCURVE",
"58 397 CURVE SMOOTH",
"58 334 OFFCURVE",
"67 278 OFFCURVE",
"84 227 CURVE SMOOTH",
"101 176 OFFCURVE",
"126 133 OFFCURVE",
"158 98 CURVE SMOOTH",
"190 62 OFFCURVE",
"229 34 OFFCURVE",
"275 15 CURVE SMOOTH",
"321 -4 OFFCURVE",
"373 -14 OFFCURVE",
"431 -14 CURVE SMOOTH",
"474 -14 OFFCURVE",
"514 -10 OFFCURVE",
"551 -2 CURVE SMOOTH",
"588 5 OFFCURVE",
"623 17 OFFCURVE",
"657 34 CURVE SMOOTH",
"690 51 OFFCURVE",
"723 72 OFFCURVE",
"756 97 CURVE SMOOTH",
"789 122 OFFCURVE",
"822 152 OFFCURVE",
"856 187 CURVE",
"812 242 LINE",
"802 253 OFFCURVE",
"791 259 OFFCURVE",
"778 259 CURVE SMOOTH",
"767 259 OFFCURVE",
"757 256 OFFCURVE",
"746 249 CURVE SMOOTH",
"735 242 OFFCURVE",
"724 234 OFFCURVE",
"712 225 CURVE SMOOTH",
"699 215 OFFCURVE",
"686 204 OFFCURVE",
"671 193 CURVE SMOOTH",
"656 181 OFFCURVE",
"638 170 OFFCURVE",
"619 161 CURVE SMOOTH",
"599 151 OFFCURVE",
"577 143 OFFCURVE",
"552 136 CURVE SMOOTH",
"527 129 OFFCURVE",
"498 126 OFFCURVE",
"466 126 CURVE SMOOTH",
"387 126 OFFCURVE",
"329 150 OFFCURVE",
"290 197 CURVE SMOOTH",
"251 244 OFFCURVE",
"231 312 OFFCURVE",
"231 401 CURVE SMOOTH",
"231 410 LINE SMOOTH",
"231 417 OFFCURVE",
"231 424 OFFCURVE",
"232 431 CURVE",
"364 444 OFFCURVE",
"472 455 OFFCURVE",
"556 487 CURVE SMOOTH",
"641 519 OFFCURVE",
"706 545 OFFCURVE",
"754 575 CURVE SMOOTH",
"802 604 OFFCURVE",
"835 638 OFFCURVE",
"853 675 CURVE SMOOTH",
"871 712 OFFCURVE",
"880 752 OFFCURVE",
"880 796 CURVE SMOOTH"
);
},
{
closed = 1;
nodes = (
"601 899 OFFCURVE",
"623 896 OFFCURVE",
"642 889 CURVE SMOOTH",
"661 882 OFFCURVE",
"676 873 OFFCURVE",
"688 862 CURVE SMOOTH",
"699 851 OFFCURVE",
"708 840 OFFCURVE",
"713 827 CURVE SMOOTH",
"718 814 OFFCURVE",
"721 801 OFFCURVE",
"721 789 CURVE SMOOTH",
"721 765 OFFCURVE",
"716 742 OFFCURVE",
"705 720 CURVE SMOOTH",
"694 698 OFFCURVE",
"672 678 OFFCURVE",
"639 659 CURVE SMOOTH",
"606 640 OFFCURVE",
"560 623 OFFCURVE",
"496 596 CURVE SMOOTH",
"434 570 OFFCURVE",
"352 562 OFFCURVE",
"249 549 CURVE",
"260 596 OFFCURVE",
"275 654 OFFCURVE",
"294 695 CURVE SMOOTH",
"313 736 OFFCURVE",
"337 771 OFFCURVE",
"364 802 CURVE SMOOTH",
"391 832 OFFCURVE",
"423 856 OFFCURVE",
"458 873 CURVE SMOOTH",
"493 890 OFFCURVE",
"532 899 OFFCURVE",
"574 899 CURVE SMOOTH"
);
}
);
width = 957;
}
);
leftKerningGroup = c;
rightKerningGroup = e;
unicode = 00EA;
},
{
glyphname = edieresis;
lastChange = "2014-08-20 05:16:50 -0500";
layers = (
{
layerId = "28213FCA-CDAC-4A0A-BF59-EE4F382E99BB";
name = "Regular Italic";
paths = (
{
closed = 1;
nodes = (
"543 1304.33 OFFCURVE",
"540 1319 OFFCURVE",
"534 1333 CURVE SMOOTH",
"528 1347 OFFCURVE",
"519.667 1359.17 OFFCURVE",
"509 1369.5 CURVE SMOOTH",
"498.333 1379.83 OFFCURVE",
"486.167 1388 OFFCURVE",
"472.5 1394 CURVE SMOOTH",
"458.833 1400 OFFCURVE",
"444.333 1403 OFFCURVE",
"429 1403 CURVE SMOOTH",
"413.667 1403 OFFCURVE",
"399.333 1400 OFFCURVE",
"386 1394 CURVE SMOOTH",
"372.667 1388 OFFCURVE",
"360.833 1379.83 OFFCURVE",
"350.5 1369.5 CURVE SMOOTH",
"340.167 1359.17 OFFCURVE",
"332 1347 OFFCURVE",
"326 1333 CURVE SMOOTH",
"320 1319 OFFCURVE",
"317 1304.33 OFFCURVE",
"317 1289 CURVE SMOOTH",
"317 1273.67 OFFCURVE",
"320 1259.33 OFFCURVE",
"326 1246 CURVE SMOOTH",
"332 1232.67 OFFCURVE",
"340.167 1221 OFFCURVE",
"350.5 1211 CURVE SMOOTH",
"360.833 1201 OFFCURVE",
"372.667 1193 OFFCURVE",
"386 1187 CURVE SMOOTH",
"399.333 1181 OFFCURVE",
"413.667 1178 OFFCURVE",
"429 1178 CURVE SMOOTH",
"444.333 1178 OFFCURVE",
"458.833 1181 OFFCURVE",
"472.5 1187 CURVE SMOOTH",
"486.167 1193 OFFCURVE",
"498.333 1201 OFFCURVE",
"509 1211 CURVE SMOOTH",
"519.667 1221 OFFCURVE",
"528 1232.67 OFFCURVE",
"534 1246 CURVE SMOOTH",
"540 1259.33 OFFCURVE",
"543 1273.67 OFFCURVE",
"543 1289 CURVE SMOOTH"
);
},
{
closed = 1;
nodes = (
"904 1304.33 OFFCURVE",
"901 1319 OFFCURVE",
"895 1333 CURVE SMOOTH",
"889 1347 OFFCURVE",
"880.833 1359.17 OFFCURVE",
"870.5 1369.5 CURVE SMOOTH",
"860.167 1379.83 OFFCURVE",
"848.167 1388 OFFCURVE",
"834.5 1394 CURVE SMOOTH",
"820.833 1400 OFFCURVE",
"806.333 1403 OFFCURVE",
"791 1403 CURVE SMOOTH",
"775.667 1403 OFFCURVE",
"761.167 1400 OFFCURVE",
"747.5 1394 CURVE SMOOTH",
"733.833 1388 OFFCURVE",
"721.833 1379.83 OFFCURVE",
"711.5 1369.5 CURVE SMOOTH",
"701.167 1359.17 OFFCURVE",
"693 1347 OFFCURVE",
"687 1333 CURVE SMOOTH",
"681 1319 OFFCURVE",
"678 1304.33 OFFCURVE",
"678 1289 CURVE SMOOTH",
"678 1273.67 OFFCURVE",
"681 1259.33 OFFCURVE",
"687 1246 CURVE SMOOTH",
"693 1232.67 OFFCURVE",
"701.167 1221 OFFCURVE",
"711.5 1211 CURVE SMOOTH",
"721.833 1201 OFFCURVE",
"733.833 1193 OFFCURVE",
"747.5 1187 CURVE SMOOTH",
"761.167 1181 OFFCURVE",
"775.667 1178 OFFCURVE",
"791 1178 CURVE SMOOTH",
"806.333 1178 OFFCURVE",
"820.833 1181 OFFCURVE",
"834.5 1187 CURVE SMOOTH",
"848.167 1193 OFFCURVE",
"860.167 1201 OFFCURVE",
"870.5 1211 CURVE SMOOTH",
"880.833 1221 OFFCURVE",
"889 1232.67 OFFCURVE",
"895 1246 CURVE SMOOTH",
"901 1259.33 OFFCURVE",
"904 1273.67 OFFCURVE",
"904 1289 CURVE SMOOTH"
);
},
{
closed = 1;
nodes = (
"880 821 OFFCURVE",
"874 847 OFFCURVE",
"863 874 CURVE SMOOTH",
"851 901 OFFCURVE",
"833 926 OFFCURVE",
"809 949 CURVE SMOOTH",
"785 972 OFFCURVE",
"754 990 OFFCURVE",
"717 1005 CURVE SMOOTH",
"680 1020 OFFCURVE",
"635 1027 OFFCURVE",
"584 1027 CURVE SMOOTH",
"530 1027 OFFCURVE",
"480 1019 OFFCURVE",
"433 1002 CURVE SMOOTH",
"386 985 OFFCURVE",
"343 963 OFFCURVE",
"304 934 CURVE SMOOTH",
"265 905 OFFCURVE",
"230 870 OFFCURVE",
"200 830 CURVE SMOOTH",
"169 790 OFFCURVE",
"144 747 OFFCURVE",
"123 700 CURVE SMOOTH",
"102 653 OFFCURVE",
"86 604 OFFCURVE",
"75 553 CURVE SMOOTH",
"64 501 OFFCURVE",
"58 449 OFFCURVE",
"58 397 CURVE SMOOTH",
"58 334 OFFCURVE",
"67 278 OFFCURVE",
"84 227 CURVE SMOOTH",
"101 176 OFFCURVE",
"126 133 OFFCURVE",
"158 98 CURVE SMOOTH",
"190 62 OFFCURVE",
"229 34 OFFCURVE",
"275 15 CURVE SMOOTH",
"321 -4 OFFCURVE",
"373 -14 OFFCURVE",
"431 -14 CURVE SMOOTH",
"474 -14 OFFCURVE",
"514 -10 OFFCURVE",
"551 -2 CURVE SMOOTH",
"588 5 OFFCURVE",
"623 17 OFFCURVE",
"657 34 CURVE SMOOTH",
"690 51 OFFCURVE",
"723 72 OFFCURVE",
"756 97 CURVE SMOOTH",
"789 122 OFFCURVE",
"822 152 OFFCURVE",
"856 187 CURVE",
"812 242 LINE",
"802 253 OFFCURVE",
"791 259 OFFCURVE",
"778 259 CURVE SMOOTH",
"767 259 OFFCURVE",
"757 256 OFFCURVE",
"746 249 CURVE SMOOTH",
"735 242 OFFCURVE",
"724 234 OFFCURVE",
"712 225 CURVE SMOOTH",
"699 215 OFFCURVE",
"686 204 OFFCURVE",
"671 193 CURVE SMOOTH",
"656 181 OFFCURVE",
"638 170 OFFCURVE",
"619 161 CURVE SMOOTH",
"599 151 OFFCURVE",
"577 143 OFFCURVE",
"552 136 CURVE SMOOTH",
"527 129 OFFCURVE",
"498 126 OFFCURVE",
"466 126 CURVE SMOOTH",
"387 126 OFFCURVE",
"329 150 OFFCURVE",
"290 197 CURVE SMOOTH",
"251 244 OFFCURVE",
"231 312 OFFCURVE",
"231 401 CURVE SMOOTH",
"231 410 LINE SMOOTH",
"231 417 OFFCURVE",
"231 424 OFFCURVE",
"232 431 CURVE",
"364 444 OFFCURVE",
"472 455 OFFCURVE",
"556 487 CURVE SMOOTH",
"641 519 OFFCURVE",
"706 545 OFFCURVE",
"754 575 CURVE SMOOTH",
"802 604 OFFCURVE",
"835 638 OFFCURVE",
"853 675 CURVE SMOOTH",
"871 712 OFFCURVE",
"880 752 OFFCURVE",
"880 796 CURVE SMOOTH"
);
},
{
closed = 1;
nodes = (
"601 899 OFFCURVE",
"623 896 OFFCURVE",
"642 889 CURVE SMOOTH",
"661 882 OFFCURVE",
"676 873 OFFCURVE",
"688 862 CURVE SMOOTH",
"699 851 OFFCURVE",
"708 840 OFFCURVE",
"713 827 CURVE SMOOTH",
"718 814 OFFCURVE",
"721 801 OFFCURVE",
"721 789 CURVE SMOOTH",
"721 765 OFFCURVE",
"716 742 OFFCURVE",
"705 720 CURVE SMOOTH",
"694 698 OFFCURVE",
"672 678 OFFCURVE",
"639 659 CURVE SMOOTH",
"606 640 OFFCURVE",
"560 623 OFFCURVE",
"496 596 CURVE SMOOTH",
"434 570 OFFCURVE",
"352 562 OFFCURVE",
"249 549 CURVE",
"260 596 OFFCURVE",
"275 654 OFFCURVE",
"294 695 CURVE SMOOTH",
"313 736 OFFCURVE",
"337 771 OFFCURVE",
"364 802 CURVE SMOOTH",
"391 832 OFFCURVE",
"423 856 OFFCURVE",
"458 873 CURVE SMOOTH",
"493 890 OFFCURVE",
"532 899 OFFCURVE",
"574 899 CURVE SMOOTH"
);
}
);
width = 957;
}
);
leftKerningGroup = c;
rightKerningGroup = e;
unicode = 00EB;
},
{
glyphname = egrave;
lastChange = "2014-08-20 05:15:41 -0500";
layers = (
{
layerId = "28213FCA-CDAC-4A0A-BF59-EE4F382E99BB";
name = "Regular Italic";
paths = (
{
closed = 1;
nodes = (
"342 1449 LINE",
"528 1191 LINE SMOOTH",
"535.333 1181 OFFCURVE",
"542.833 1173.83 OFFCURVE",
"550.5 1169.5 CURVE SMOOTH",
"558.167 1165.17 OFFCURVE",
"568.333 1163 OFFCURVE",
"581 1163 CURVE SMOOTH",
"674 1163 LINE",
"565 1405 LINE SMOOTH",
"558.333 1420.33 OFFCURVE",
"550.333 1431.5 OFFCURVE",
"541 1438.5 CURVE SMOOTH",
"531.667 1445.5 OFFCURVE",
"517 1449 OFFCURVE",
"497 1449 CURVE SMOOTH"
);
},
{
closed = 1;
nodes = (
"880 821 OFFCURVE",
"874 847 OFFCURVE",
"863 874 CURVE SMOOTH",
"851 901 OFFCURVE",
"833 926 OFFCURVE",
"809 949 CURVE SMOOTH",
"785 972 OFFCURVE",
"754 990 OFFCURVE",
"717 1005 CURVE SMOOTH",
"680 1020 OFFCURVE",
"635 1027 OFFCURVE",
"584 1027 CURVE SMOOTH",
"530 1027 OFFCURVE",
"480 1019 OFFCURVE",
"433 1002 CURVE SMOOTH",
"386 985 OFFCURVE",
"343 963 OFFCURVE",
"304 934 CURVE SMOOTH",
"265 905 OFFCURVE",
"230 870 OFFCURVE",
"200 830 CURVE SMOOTH",
"169 790 OFFCURVE",
"144 747 OFFCURVE",
"123 700 CURVE SMOOTH",
"102 653 OFFCURVE",
"86 604 OFFCURVE",
"75 553 CURVE SMOOTH",
"64 501 OFFCURVE",
"58 449 OFFCURVE",
"58 397 CURVE SMOOTH",
"58 334 OFFCURVE",
"67 278 OFFCURVE",
"84 227 CURVE SMOOTH",
"101 176 OFFCURVE",
"126 133 OFFCURVE",
"158 98 CURVE SMOOTH",
"190 62 OFFCURVE",
"229 34 OFFCURVE",
"275 15 CURVE SMOOTH",
"321 -4 OFFCURVE",
"373 -14 OFFCURVE",
"431 -14 CURVE SMOOTH",
"474 -14 OFFCURVE",
"514 -10 OFFCURVE",
"551 -2 CURVE SMOOTH",
"588 5 OFFCURVE",
"623 17 OFFCURVE",
"657 34 CURVE SMOOTH",
"690 51 OFFCURVE",
"723 72 OFFCURVE",
"756 97 CURVE SMOOTH",
"789 122 OFFCURVE",
"822 152 OFFCURVE",
"856 187 CURVE",
"812 242 LINE",
"802 253 OFFCURVE",
"791 259 OFFCURVE",
"778 259 CURVE SMOOTH",
"767 259 OFFCURVE",
"757 256 OFFCURVE",
"746 249 CURVE SMOOTH",
"735 242 OFFCURVE",
"724 234 OFFCURVE",
"712 225 CURVE SMOOTH",
"699 215 OFFCURVE",
"686 204 OFFCURVE",
"671 193 CURVE SMOOTH",
"656 181 OFFCURVE",
"638 170 OFFCURVE",
"619 161 CURVE SMOOTH",
"599 151 OFFCURVE",
"577 143 OFFCURVE",
"552 136 CURVE SMOOTH",
"527 129 OFFCURVE",
"498 126 OFFCURVE",
"466 126 CURVE SMOOTH",
"387 126 OFFCURVE",
"329 150 OFFCURVE",
"290 197 CURVE SMOOTH",
"251 244 OFFCURVE",
"231 312 OFFCURVE",
"231 401 CURVE SMOOTH",
"231 410 LINE SMOOTH",
"231 417 OFFCURVE",
"231 424 OFFCURVE",
"232 431 CURVE",
"364 444 OFFCURVE",
"472 455 OFFCURVE",
"556 487 CURVE SMOOTH",
"641 519 OFFCURVE",
"706 545 OFFCURVE",
"754 575 CURVE SMOOTH",
"802 604 OFFCURVE",
"835 638 OFFCURVE",
"853 675 CURVE SMOOTH",
"871 712 OFFCURVE",
"880 752 OFFCURVE",
"880 796 CURVE SMOOTH"
);
},
{
closed = 1;
nodes = (
"601 899 OFFCURVE",
"623 896 OFFCURVE",
"642 889 CURVE SMOOTH",
"661 882 OFFCURVE",
"676 873 OFFCURVE",
"688 862 CURVE SMOOTH",
"699 851 OFFCURVE",
"708 840 OFFCURVE",
"713 827 CURVE SMOOTH",
"718 814 OFFCURVE",
"721 801 OFFCURVE",
"721 789 CURVE SMOOTH",
"721 765 OFFCURVE",
"716 742 OFFCURVE",
"705 720 CURVE SMOOTH",
"694 698 OFFCURVE",
"672 678 OFFCURVE",
"639 659 CURVE SMOOTH",
"606 640 OFFCURVE",
"560 623 OFFCURVE",
"496 596 CURVE SMOOTH",
"434 570 OFFCURVE",
"352 562 OFFCURVE",
"249 549 CURVE",
"260 596 OFFCURVE",
"275 654 OFFCURVE",
"294 695 CURVE SMOOTH",
"313 736 OFFCURVE",
"337 771 OFFCURVE",
"364 802 CURVE SMOOTH",
"391 832 OFFCURVE",
"423 856 OFFCURVE",
"458 873 CURVE SMOOTH",
"493 890 OFFCURVE",
"532 899 OFFCURVE",
"574 899 CURVE SMOOTH"
);
}
);
width = 957;
}
);
leftKerningGroup = c;
rightKerningGroup = e;
unicode = 00E8;
},
{
glyphname = f;
lastChange = "2014-08-20 05:32:57 -0500";
layers = (
{
layerId = "28213FCA-CDAC-4A0A-BF59-EE4F382E99BB";
name = "Regular Italic";
paths = (
{
closed = 1;
nodes = (
"395 865 LINE",
"641 865 LINE",
"658 993 LINE",
"405 993 LINE",
"416 1086 LINE SMOOTH",
"421.333 1129.33 OFFCURVE",
"430.5 1166 OFFCURVE",
"443.5 1196 CURVE SMOOTH",
"456.5 1226 OFFCURVE",
"472.333 1250.33 OFFCURVE",
"491 1269 CURVE SMOOTH",
"509.667 1287.67 OFFCURVE",
"531.167 1301.17 OFFCURVE",
"555.5 1309.5 CURVE SMOOTH",
"579.833 1317.83 OFFCURVE",
"606.333 1322 OFFCURVE",
"635 1322 CURVE SMOOTH",
"693 1322 LINE SMOOTH",
"708.333 1322 OFFCURVE",
"717.333 1328.67 OFFCURVE",
"720 1342 CURVE SMOOTH",
"737 1434 LINE",
"702.333 1447.33 OFFCURVE",
"664.667 1454 OFFCURVE",
"624 1454 CURVE SMOOTH",
"574.667 1454 OFFCURVE",
"528.833 1446 OFFCURVE",
"486.5 1430 CURVE SMOOTH",
"444.167 1414 OFFCURVE",
"406.5 1390.5 OFFCURVE",
"373.5 1359.5 CURVE SMOOTH",
"340.5 1328.5 OFFCURVE",
"313.167 1290.5 OFFCURVE",
"291.5 1245.5 CURVE SMOOTH",
"269.833 1200.5 OFFCURVE",
"255.333 1149 OFFCURVE",
"248 1091 CURVE SMOOTH",
"236 993 LINE",
"91.9999 993 LINE",
"85 908 LINE SMOOTH",
"84 894 OFFCURVE",
"87 883 OFFCURVE",
"94 877 CURVE SMOOTH",
"101 870 OFFCURVE",
"110 865 OFFCURVE",
"122 862 CURVE",
"220 862 LINE",
"85.9999 -249 LINE",
"155 -249 LINE SMOOTH",
"180.333 -249 OFFCURVE",
"200.167 -243 OFFCURVE",
"214.5 -230 CURVE SMOOTH",
"228.833 -217 OFFCURVE",
"239.667 -198 OFFCURVE",
"247 -174 CURVE",
"294 33 LINE"
);
}
);
width = 641;
}
);
leftKerningGroup = f;
rightKerningGroup = f;
unicode = 0066;
},
{
glyphname = g;
lastChange = "2014-08-20 05:07:27 -0500";
layers = (
{
layerId = "28213FCA-CDAC-4A0A-BF59-EE4F382E99BB";
name = "Regular Italic";
paths = (
{
closed = 1;
nodes = (
"955 1012 LINE",
"852 1012 LINE SMOOTH",
"828.667 1012 OFFCURVE",
"812 1000 OFFCURVE",
"802 976 CURVE",
"780 895 LINE",
"752 937 OFFCURVE",
"716.333 969.833 OFFCURVE",
"673 993.5 CURVE SMOOTH",
"629.667 1017.17 OFFCURVE",
"581.667 1029 OFFCURVE",
"529 1029 CURVE SMOOTH",
"483.667 1029 OFFCURVE",
"440.5 1020.33 OFFCURVE",
"399.5 1003 CURVE SMOOTH",
"358.5 985.667 OFFCURVE",
"320.667 961.833 OFFCURVE",
"286 931.5 CURVE SMOOTH",
"251.333 901.167 OFFCURVE",
"220 865.5 OFFCURVE",
"192 824.5 CURVE SMOOTH",
"164 783.5 OFFCURVE",
"140.167 738.833 OFFCURVE",
"120.5 690.5 CURVE SMOOTH",
"100.833 642.167 OFFCURVE",
"85.6667 591.667 OFFCURVE",
"75 539 CURVE SMOOTH",
"64.3333 486.333 OFFCURVE",
"59 433.333 OFFCURVE",
"59 380 CURVE SMOOTH",
"59 322 OFFCURVE",
"65 270.167 OFFCURVE",
"77 224.5 CURVE SMOOTH",
"89 178.833 OFFCURVE",
"106.333 140.333 OFFCURVE",
"129 109 CURVE SMOOTH",
"151.667 77.6667 OFFCURVE",
"179.5 53.6667 OFFCURVE",
"212.5 37 CURVE SMOOTH",
"245.5 20.3334 OFFCURVE",
"283 12 OFFCURVE",
"325 12 CURVE SMOOTH",
"397 12 OFFCURVE",
"464 35.6667 OFFCURVE",
"526 83 CURVE SMOOTH",
"588 130.333 OFFCURVE",
"643.333 195.667 OFFCURVE",
"692 279 CURVE",
"664 46 LINE SMOOTH",
"658.667 6 OFFCURVE",
"648.333 -31 OFFCURVE",
"633 -66 CURVE SMOOTH",
"617.667 -101 OFFCURVE",
"597.167 -131 OFFCURVE",
"571.5 -156 CURVE SMOOTH",
"545.833 -181 OFFCURVE",
"515.333 -200 OFFCURVE",
"480 -215 CURVE SMOOTH",
"444.667 -229 OFFCURVE",
"405 -236 OFFCURVE",
"361 -236 CURVE SMOOTH",
"322.333 -236 OFFCURVE",
"290.167 -232 OFFCURVE",
"264.5 -223 CURVE SMOOTH",
"238.833 -214 OFFCURVE",
"217.333 -204 OFFCURVE",
"200 -193 CURVE SMOOTH",
"182.667 -182 OFFCURVE",
"168 -173 OFFCURVE",
"156 -164 CURVE SMOOTH",
"144 -155 OFFCURVE",
"132.333 -150 OFFCURVE",
"121 -150 CURVE SMOOTH",
"100.333 -150 OFFCURVE",
"84 -159 OFFCURVE",
"72 -176 CURVE SMOOTH",
"28 -236 LINE",
"60.6667 -272 OFFCURVE",
"103.833 -302 OFFCURVE",
"157.5 -326 CURVE SMOOTH",
"211.167 -350 OFFCURVE",
"277 -362 OFFCURVE",
"355 -362 CURVE SMOOTH",
"426.333 -362 OFFCURVE",
"490.167 -352 OFFCURVE",
"546.5 -332 CURVE SMOOTH",
"602.833 -311 OFFCURVE",
"651.333 -283 OFFCURVE",
"692 -246 CURVE SMOOTH",
"732.667 -209 OFFCURVE",
"765.167 -164 OFFCURVE",
"789.5 -113 CURVE SMOOTH",
"813.833 -62 OFFCURVE",
"829.667 -5 OFFCURVE",
"837 57 CURVE SMOOTH"
);
},
{
closed = 1;
nodes = (
"341.333 155 OFFCURVE",
"302.5 176.667 OFFCURVE",
"275.5 220 CURVE SMOOTH",
"248.5 263.333 OFFCURVE",
"235 322.667 OFFCURVE",
"235 398 CURVE SMOOTH",
"235 435.333 OFFCURVE",
"238.167 473.667 OFFCURVE",
"244.5 513 CURVE SMOOTH",
"250.833 552.333 OFFCURVE",
"260.167 590.333 OFFCURVE",
"272.5 627 CURVE SMOOTH",
"284.833 663.667 OFFCURVE",
"300.167 698.333 OFFCURVE",
"318.5 731 CURVE SMOOTH",
"336.833 763.667 OFFCURVE",
"357.833 792.167 OFFCURVE",
"381.5 816.5 CURVE SMOOTH",
"405.167 840.833 OFFCURVE",
"431.333 860.167 OFFCURVE",
"460 874.5 CURVE SMOOTH",
"488.667 888.833 OFFCURVE",
"520 896 OFFCURVE",
"554 896 CURVE SMOOTH",
"590 896 OFFCURVE",
"626 887.5 OFFCURVE",
"662 870.5 CURVE SMOOTH",
"698 853.5 OFFCURVE",
"728.667 826 OFFCURVE",
"754 788 CURVE",
"725 545 LINE",
"706.333 485 OFFCURVE",
"684.333 431 OFFCURVE",
"659 383 CURVE SMOOTH",
"633.667 335 OFFCURVE",
"606.333 294 OFFCURVE",
"577 260 CURVE SMOOTH",
"547.667 226 OFFCURVE",
"517.167 200 OFFCURVE",
"485.5 182 CURVE SMOOTH",
"453.833 164 OFFCURVE",
"422.667 155 OFFCURVE",
"392 155 CURVE SMOOTH"
);
}
);
width = 1036;
}
);
leftKerningGroup = d;
rightKerningGroup = q;
unicode = 0067;
},
{
glyphname = h;
layers = (
{
layerId = "28213FCA-CDAC-4A0A-BF59-EE4F382E99BB";
name = "Regular Italic";
paths = (
{
closed = 1;
nodes = (
"59 0 LINE",
"236 0 LINE",
"301 534 LINE",
"320.333 586.667 OFFCURVE",
"343.167 634.333 OFFCURVE",
"369.5 677 CURVE SMOOTH",
"395.833 719.667 OFFCURVE",
"423.833 756.167 OFFCURVE",
"453.5 786.5 CURVE SMOOTH",
"483.167 816.833 OFFCURVE",
"514 840.167 OFFCURVE",
"546 856.5 CURVE SMOOTH",
"578 872.833 OFFCURVE",
"609 881 OFFCURVE",
"639 881 CURVE SMOOTH",
"691.667 881 OFFCURVE",
"727.667 861.667 OFFCURVE",
"747 823 CURVE SMOOTH",
"766.333 784.333 OFFCURVE",
"771 725 OFFCURVE",
"761 645 CURVE SMOOTH",
"685 6.10352 LINE",
"863 6.10352 LINE",
"939 645 LINE SMOOTH",
"946.333 705.667 OFFCURVE",
"946.333 759.833 OFFCURVE",
"939 807.5 CURVE SMOOTH",
"931.667 855.167 OFFCURVE",
"917.833 895.333 OFFCURVE",
"897.5 928 CURVE SMOOTH",
"877.167 960.667 OFFCURVE",
"850.667 985.5 OFFCURVE",
"818 1002.5 CURVE SMOOTH",
"785.333 1019.5 OFFCURVE",
"747.333 1028 OFFCURVE",
"704 1028 CURVE SMOOTH",
"636.667 1028 OFFCURVE",
"570.833 1007.83 OFFCURVE",
"506.5 967.5 CURVE SMOOTH",
"442.167 927.167 OFFCURVE",
"384 867.667 OFFCURVE",
"332 789 CURVE",
"415 1473 LINE",
"237 1473 LINE"
);
}
);
width = 1059;
}
);
leftKerningGroup = b;
rightKerningGroup = h;
unicode = 0068;
},
{
glyphname = i;
layers = (
{
layerId = "28213FCA-CDAC-4A0A-BF59-EE4F382E99BB";
name = "Regular Italic";
paths = (
{
closed = 1;
nodes = (
"366 1013 LINE",
"191 1013 LINE",
"69 0 LINE",
"244 0 LINE"
);
},
{
closed = 1;
nodes = (
"434 1348.33 OFFCURVE",
"430.5 1364.83 OFFCURVE",
"423.5 1380.5 CURVE SMOOTH",
"416.5 1396.17 OFFCURVE",
"407.333 1409.83 OFFCURVE",
"396 1421.5 CURVE SMOOTH",
"384.667 1433.17 OFFCURVE",
"371.5 1442.33 OFFCURVE",
"356.5 1449 CURVE SMOOTH",
"341.5 1455.67 OFFCURVE",
"326 1459 OFFCURVE",
"310 1459 CURVE SMOOTH",
"294.667 1459 OFFCURVE",
"279.667 1455.5 OFFCURVE",
"265 1448.5 CURVE SMOOTH",
"250.333 1441.5 OFFCURVE",
"237.333 1432.17 OFFCURVE",
"226 1420.5 CURVE SMOOTH",
"214.667 1408.83 OFFCURVE",
"205.667 1395.33 OFFCURVE",
"199 1380 CURVE SMOOTH",
"192.333 1364.67 OFFCURVE",
"189 1348.33 OFFCURVE",
"189 1331 CURVE SMOOTH",
"189 1313.67 OFFCURVE",
"192.333 1297.5 OFFCURVE",
"199 1282.5 CURVE SMOOTH",
"205.667 1267.5 OFFCURVE",
"214.5 1254.17 OFFCURVE",
"225.5 1242.5 CURVE SMOOTH",
"236.5 1230.83 OFFCURVE",
"249.333 1221.67 OFFCURVE",
"264 1215 CURVE SMOOTH",
"278.667 1208.33 OFFCURVE",
"293.667 1205 OFFCURVE",
"309 1205 CURVE SMOOTH",
"325 1205 OFFCURVE",
"340.5 1208.33 OFFCURVE",
"355.5 1215 CURVE SMOOTH",
"370.5 1221.67 OFFCURVE",
"383.833 1230.83 OFFCURVE",
"395.5 1242.5 CURVE SMOOTH",
"407.167 1254.17 OFFCURVE",
"416.5 1267.5 OFFCURVE",
"423.5 1282.5 CURVE SMOOTH",
"430.5 1297.5 OFFCURVE",
"434 1313.67 OFFCURVE",
"434 1331 CURVE SMOOTH"
);
}
);
width = 460;
}
);
leftKerningGroup = i;
rightKerningGroup = i;
unicode = 0069;
},
{
glyphname = iacute;
layers = (
{
layerId = "28213FCA-CDAC-4A0A-BF59-EE4F382E99BB";
name = "Regular Italic";
paths = (
{
closed = 1;
nodes = (
"69 0 LINE"
);
},
{
closed = 1;
nodes = (
"366 1013 LINE",
"191 1013 LINE",
"69 0 LINE",
"244 0 LINE"
);
},
{
closed = 1;
nodes = (
"587 1449 LINE",
"427 1449 LINE SMOOTH",
"407 1449 OFFCURVE",
"391.5 1445.5 OFFCURVE",
"380.5 1438.5 CURVE SMOOTH",
"369.5 1431.5 OFFCURVE",
"359 1420.33 OFFCURVE",
"349 1405 CURVE SMOOTH",
"186 1163 LINE",
"284 1163 LINE SMOOTH",
"296.667 1163 OFFCURVE",
"307.333 1165.17 OFFCURVE",
"316 1169.5 CURVE SMOOTH",
"324.667 1173.83 OFFCURVE",
"333.667 1181 OFFCURVE",
"343 1191 CURVE SMOOTH"
);
}
);
width = 460;
}
);
leftKerningGroup = i;
rightKerningGroup = i;
unicode = 00ED;
},
{
glyphname = icircumflex;
layers = (
{
layerId = "28213FCA-CDAC-4A0A-BF59-EE4F382E99BB";
name = "Regular Italic";
paths = (
{
closed = 1;
nodes = (
"17 0 LINE"
);
},
{
closed = 1;
nodes = (
"366 1013 LINE",
"191 1013 LINE",
"69 0 LINE",
"244 0 LINE"
);
},
{
closed = 1;
nodes = (
"580 1169 LINE",
"404 1433 LINE",
"252 1433 LINE",
"17 1169 LINE",
"131 1169 LINE SMOOTH",
"146.333 1169 OFFCURVE",
"160.333 1175.33 OFFCURVE",
"173 1188 CURVE SMOOTH",
"303 1320 LINE",
"320 1339 LINE",
"326 1329 LINE SMOOTH",
"328 1325.67 OFFCURVE",
"330.333 1322.67 OFFCURVE",
"333 1320 CURVE",
"432 1188 LINE",
"438 1180.67 OFFCURVE",
"444.167 1175.67 OFFCURVE",
"450.5 1173 CURVE SMOOTH",
"456.833 1170.33 OFFCURVE",
"463.333 1169 OFFCURVE",
"470 1169 CURVE SMOOTH"
);
}
);
width = 460;
}
);
leftKerningGroup = i;
rightKerningGroup = i;
unicode = 00EE;
},
{
glyphname = idieresis;
layers = (
{
layerId = "28213FCA-CDAC-4A0A-BF59-EE4F382E99BB";
name = "Regular Italic";
paths = (
{
closed = 1;
nodes = (
"56 0 LINE"
);
},
{
closed = 1;
nodes = (
"366 1013 LINE",
"191 1013 LINE",
"69 0 LINE",
"244 0 LINE"
);
},
{
closed = 1;
nodes = (
"281 1304.33 OFFCURVE",
"278 1319 OFFCURVE",
"272 1333 CURVE SMOOTH",
"266 1347 OFFCURVE",
"257.667 1359.17 OFFCURVE",
"247 1369.5 CURVE SMOOTH",
"236.333 1379.83 OFFCURVE",
"224.167 1388 OFFCURVE",
"210.5 1394 CURVE SMOOTH",
"196.833 1400 OFFCURVE",
"182.333 1403 OFFCURVE",
"167 1403 CURVE SMOOTH",
"152.333 1403 OFFCURVE",
"138.333 1400 OFFCURVE",
"125 1394 CURVE SMOOTH",
"111.667 1388 OFFCURVE",
"99.8333 1379.83 OFFCURVE",
"89.5 1369.5 CURVE SMOOTH",
"79.1667 1359.17 OFFCURVE",
"71 1347 OFFCURVE",
"65 1333 CURVE SMOOTH",
"59 1319 OFFCURVE",
"56 1304.33 OFFCURVE",
"56 1289 CURVE SMOOTH",
"56 1273.67 OFFCURVE",
"59 1259.33 OFFCURVE",
"65 1246 CURVE SMOOTH",
"71 1232.67 OFFCURVE",
"79.1667 1221 OFFCURVE",
"89.5 1211 CURVE SMOOTH",
"99.8333 1201 OFFCURVE",
"111.667 1193 OFFCURVE",
"125 1187 CURVE SMOOTH",
"138.333 1181 OFFCURVE",
"152.333 1178 OFFCURVE",
"167 1178 CURVE SMOOTH",
"182.333 1178 OFFCURVE",
"196.833 1181 OFFCURVE",
"210.5 1187 CURVE SMOOTH",
"224.167 1193 OFFCURVE",
"236.333 1201 OFFCURVE",
"247 1211 CURVE SMOOTH",
"257.667 1221 OFFCURVE",
"266 1232.67 OFFCURVE",
"272 1246 CURVE SMOOTH",
"278 1259.33 OFFCURVE",
"281 1273.67 OFFCURVE",
"281 1289 CURVE SMOOTH"
);
},
{
closed = 1;
nodes = (
"573 1304.33 OFFCURVE",
"570 1319 OFFCURVE",
"564 1333 CURVE SMOOTH",
"558 1347 OFFCURVE",
"549.833 1359.17 OFFCURVE",
"539.5 1369.5 CURVE SMOOTH",
"529.167 1379.83 OFFCURVE",
"517.167 1388 OFFCURVE",
"503.5 1394 CURVE SMOOTH",
"489.833 1400 OFFCURVE",
"475.333 1403 OFFCURVE",
"460 1403 CURVE SMOOTH",
"444.667 1403 OFFCURVE",
"430.167 1400 OFFCURVE",
"416.5 1394 CURVE SMOOTH",
"402.833 1388 OFFCURVE",
"391 1379.83 OFFCURVE",
"381 1369.5 CURVE SMOOTH",
"371 1359.17 OFFCURVE",
"363 1347 OFFCURVE",
"357 1333 CURVE SMOOTH",
"351 1319 OFFCURVE",
"348 1304.33 OFFCURVE",
"348 1289 CURVE SMOOTH",
"348 1273.67 OFFCURVE",
"351 1259.33 OFFCURVE",
"357 1246 CURVE SMOOTH",
"363 1232.67 OFFCURVE",
"371 1221 OFFCURVE",
"381 1211 CURVE SMOOTH",
"391 1201 OFFCURVE",
"402.833 1193 OFFCURVE",
"416.5 1187 CURVE SMOOTH",
"430.167 1181 OFFCURVE",
"444.667 1178 OFFCURVE",
"460 1178 CURVE SMOOTH",
"475.333 1178 OFFCURVE",
"489.833 1181 OFFCURVE",
"503.5 1187 CURVE SMOOTH",
"517.167 1193 OFFCURVE",
"529.167 1201 OFFCURVE",
"539.5 1211 CURVE SMOOTH",
"549.833 1221 OFFCURVE",
"558 1232.67 OFFCURVE",
"564 1246 CURVE SMOOTH",
"570 1259.33 OFFCURVE",
"573 1273.67 OFFCURVE",
"573 1289 CURVE SMOOTH"
);
}
);
width = 460;
}
);
leftKerningGroup = i;
rightKerningGroup = i;
unicode = 00EF;
},
{
glyphname = igrave;
layers = (
{
layerId = "28213FCA-CDAC-4A0A-BF59-EE4F382E99BB";
name = "Regular Italic";
paths = (
{
closed = 1;
nodes = (
"69 0 LINE"
);
},
{
closed = 1;
nodes = (
"366 1013 LINE",
"191 1013 LINE",
"69 0 LINE",
"244 0 LINE"
);
},
{
closed = 1;
nodes = (
"71 1449 LINE",
"257 1191 LINE SMOOTH",
"264.333 1181 OFFCURVE",
"271.833 1173.83 OFFCURVE",
"279.5 1169.5 CURVE SMOOTH",
"287.167 1165.17 OFFCURVE",
"297.333 1163 OFFCURVE",
"310 1163 CURVE SMOOTH",
"403 1163 LINE",
"294 1405 LINE SMOOTH",
"287.333 1420.33 OFFCURVE",
"279.333 1431.5 OFFCURVE",
"270 1438.5 CURVE SMOOTH",
"260.667 1445.5 OFFCURVE",
"246 1449 OFFCURVE",
"226 1449 CURVE SMOOTH"
);
}
);
width = 460;
}
);
leftKerningGroup = i;
rightKerningGroup = i;
unicode = 00EC;
},
